<svg xmlns="http://www.w3.org/2000/svg" width="27.651" height="27.651" viewBox="0 0 27.651 27.651">
  <g id="Google" transform="translate(-2907.522 976.478)">
    <g id="search" transform="translate(2907.522 -976.478)">
      <path id="Trazado_725" data-name="Trazado 725" d="M6.128,147.51,5.165,151.1l-3.518.074a13.849,13.849,0,0,1-.1-12.91h0l3.132.574,1.372,3.113a8.251,8.251,0,0,0,.078,5.555Z" transform="translate(0 -130.801)" fill="#fbbb00"/>
      <path id="Trazado_726" data-name="Trazado 726" d="M274.908,208.176a13.82,13.82,0,0,1-4.928,13.364h0l-3.945-.2-.558-3.485a8.24,8.24,0,0,0,3.545-4.208h-7.393v-5.469h13.28Z" transform="translate(-247.499 -196.933)" fill="#518ef8"/>
      <path id="Trazado_727" data-name="Trazado 727" d="M51.341,317.305h0a13.83,13.83,0,0,1-20.833-4.23l4.48-3.668a8.222,8.222,0,0,0,11.849,4.21Z" transform="translate(-28.861 -292.699)" fill="#28b446"/>
      <path id="Trazado_728" data-name="Trazado 728" d="M49.728,3.183,45.249,6.85a8.221,8.221,0,0,0-12.121,4.3l-4.5-3.687h0a13.828,13.828,0,0,1,21.1-4.284Z" transform="translate(-27.078)" fill="#f14336"/>
    </g>
  </g>
</svg>
