<svg xmlns="http://www.w3.org/2000/svg" xmlns:xlink="http://www.w3.org/1999/xlink" width="99" height="86" viewBox="0 0 99 86">
  <defs>
    <linearGradient id="linear-gradient" x1="0.5" x2="0.5" y2="1" gradientUnits="objectBoundingBox">
      <stop offset="0" stop-color="#e6e6e6" stop-opacity="0"/>
      <stop offset="0.431" stop-color="#e6e6e6" stop-opacity="0.969"/>
      <stop offset="0.707" stop-color="#e6e6e6"/>
      <stop offset="1" stop-color="#e6e6e6"/>
    </linearGradient>
  </defs>
  <g id="Grupo_529" data-name="Grupo 529" transform="translate(-142 -726)">
    <g id="Elipse_32" data-name="Elipse 32" transform="translate(149 726)" fill="none" stroke="#3e0cf2" stroke-width="1">
      <circle cx="39" cy="39" r="39" stroke="none"/>
      <circle cx="39" cy="39" r="38.5" fill="none"/>
    </g>
    <rect id="Rectángulo_2555" data-name="Rectángulo 2555" width="99" height="79" transform="translate(142 733)" fill="url(#linear-gradient)"/>
    <g id="Grupo_446" data-name="Grupo 446" transform="translate(0 24)">
      <circle id="Elipse_28" data-name="Elipse 28" cx="24" cy="24" r="24" transform="translate(164 717)" fill="#3e0cf2"/>
      <path id="Icon_awesome-phone-alt" data-name="Icon awesome-phone-alt" d="M17.946,13.054,13.9,11.322a.866.866,0,0,0-1.01.249l-1.79,2.186A13.373,13.373,0,0,1,4.712,7.364L6.9,5.575a.864.864,0,0,0,.249-1.01L5.416.524a.872.872,0,0,0-.992-.5L.671.888A.866.866,0,0,0,0,1.732,16.739,16.739,0,0,0,16.741,18.473a.866.866,0,0,0,.844-.671l.866-3.752a.876.876,0,0,0-.505-1Z" transform="translate(179 732)" fill="#e6e6e6"/>
      <g id="Elipse_29" data-name="Elipse 29" transform="translate(169 722)" fill="none" stroke="#e6e6e6" stroke-width="1">
        <circle cx="19" cy="19" r="19" stroke="none"/>
        <circle cx="19" cy="19" r="18.5" fill="none"/>
      </g>
    </g>
  </g>
</svg>
