<svg xmlns="http://www.w3.org/2000/svg" width="43.58" height="43.58" viewBox="0 0 43.58 43.58">
  <g id="instagram_2_" data-name="instagram (2)" transform="translate(0 0)">
    <path id="Trazado_770" data-name="Trazado 770" d="M43.449,12.806a16,16,0,0,0-1.013-5.289,10.679,10.679,0,0,0-2.513-3.86,10.683,10.683,0,0,0-3.86-2.514A15.994,15.994,0,0,0,30.774.131C28.45.025,27.708,0,21.79,0s-6.66.025-8.984.131A16,16,0,0,0,7.517,1.144a10.679,10.679,0,0,0-3.86,2.513A10.681,10.681,0,0,0,1.143,7.516,16,16,0,0,0,.131,12.806C.025,15.13,0,15.872,0,21.79s.025,6.66.132,8.984a15.993,15.993,0,0,0,1.013,5.289,10.678,10.678,0,0,0,2.513,3.859,10.677,10.677,0,0,0,3.86,2.513,15.988,15.988,0,0,0,5.289,1.013c2.324.106,3.066.131,8.984.131s6.66-.025,8.984-.131a15.99,15.99,0,0,0,5.289-1.013,11.14,11.14,0,0,0,6.372-6.372,15.992,15.992,0,0,0,1.013-5.289c.106-2.324.131-3.066.131-8.984s-.025-6.66-.131-8.984ZM39.527,30.6a12.056,12.056,0,0,1-.75,4.046,7.216,7.216,0,0,1-4.136,4.136,12.056,12.056,0,0,1-4.046.75c-2.3.105-2.986.127-8.8.127s-6.508-.022-8.805-.127a12.06,12.06,0,0,1-4.046-.75,6.753,6.753,0,0,1-2.505-1.63A6.75,6.75,0,0,1,4.8,34.641a12.056,12.056,0,0,1-.75-4.046c-.1-2.3-.127-2.987-.127-8.8s.022-6.507.127-8.805A12.065,12.065,0,0,1,4.8,8.939a6.756,6.756,0,0,1,1.63-2.506A6.746,6.746,0,0,1,8.939,4.8a12.054,12.054,0,0,1,4.046-.75c2.3-.1,2.987-.127,8.8-.127h0c5.818,0,6.507.022,8.805.127a12.058,12.058,0,0,1,4.046.75,6.756,6.756,0,0,1,2.505,1.63,6.746,6.746,0,0,1,1.63,2.506,12.045,12.045,0,0,1,.75,4.046c.1,2.3.127,2.987.127,8.8s-.022,6.507-.127,8.805Zm0,0" fill="#fff"/>
    <path id="Trazado_771" data-name="Trazado 771" d="M135.728,124.539a11.189,11.189,0,1,0,11.19,11.19A11.19,11.19,0,0,0,135.728,124.539Zm0,18.453a7.263,7.263,0,1,1,7.264-7.264A7.263,7.263,0,0,1,135.728,142.992Zm0,0" transform="translate(-113.939 -113.939)" fill="#fff"/>
    <path id="Trazado_772" data-name="Trazado 772" d="M367.159,91.24a2.615,2.615,0,1,1-2.615-2.615A2.615,2.615,0,0,1,367.159,91.24Zm0,0" transform="translate(-331.123 -81.082)" fill="#fff"/>
  </g>
</svg>
