<svg xmlns="http://www.w3.org/2000/svg" width="30.805" height="23.094" viewBox="0 0 30.805 23.094">
  <g id="Layer_2" data-name="Layer 2" transform="translate(0 0.055)">
    <g id="Layer_1" data-name="Layer 1" transform="translate(0 -0.055)">
      <path id="Trazado_109" data-name="Trazado 109" d="M0,35.88c.288.18.489.3.683.43q5.951,3.971,11.9,7.933a4.767,4.767,0,0,0,5.62.013q5.979-3.982,11.952-7.968c.18-.12.361-.231.617-.387.012.232.029.4.029.569V51.083a3.339,3.339,0,0,1-3.579,3.567H3.591A3.343,3.343,0,0,1,0,51.04q0-7.25,0-14.5Z" transform="translate(0 -31.556)" fill="#fff"/>
      <path id="Trazado_110" data-name="Trazado 110" d="M1.78,2.213a3.269,3.269,0,0,1,3.2-2.261q5.713-.013,11.423,0H28.911A3.227,3.227,0,0,1,32.145,2.2c-.148.107-.3.229-.467.338L18.832,11.1a2.981,2.981,0,0,1-3.73-.011L2.35,2.6C2.167,2.478,1.988,2.358,1.78,2.213Z" transform="translate(-1.566 0.055)" fill="#fff"/>
    </g>
  </g>
</svg>
