<svg xmlns="http://www.w3.org/2000/svg" width="47.129" height="30.919" viewBox="0 0 47.129 30.919">
  <g id="Capa_1" data-name="Capa 1" transform="translate(1 -9.028)">
    <path id="Trazado_730" data-name="Trazado 730" d="M0,59.792a27.485,27.485,0,0,1,45.129,0S39.037,71.484,23.193,71.869A26.987,26.987,0,0,1,0,59.792Z" transform="translate(0 -32.931)" fill="#e6e6e6" stroke="#aaa" stroke-linecap="round" stroke-linejoin="round" stroke-width="2"/>
    <path id="Trazado_731" data-name="Trazado 731" d="M58.666,68.261a10.2,10.2,0,1,1-19.849.131l.923-4.219H57.486Z" transform="translate(-26.192 -45.283)" fill="none" stroke="#aaa" stroke-width="2"/>
    <path id="Trazado_732" data-name="Trazado 732" d="M63.853,70.45a4.713,4.713,0,1,1-7.13.071l.85-.055,1.924-.077.856-.019h1.555l1.135.032Z" transform="translate(-37.778 -48.129)" fill="#aaa"/>
    <circle id="Elipse_13" data-name="Elipse 13" cx="1.43" cy="1.43" r="1.43" transform="translate(22.542 23.113)" fill="#f2f2f2"/>
    <path id="Trazado_733" data-name="Trazado 733" d="M0,59.81s23.879-8.977,45.129,0c0,0-6.386-12.206-23.77-11.782C7.146,48.367,0,59.81,0,59.81Z" transform="translate(0 -32.943)" fill="#aaa"/>
    <g id="Grupo_351" data-name="Grupo 351" transform="translate(801.099 608.155) rotate(180)">
      <line id="Línea_15" data-name="Línea 15" y2="8.203" transform="translate(778.535 589.925)" fill="none" stroke="#aaa" stroke-linecap="round" stroke-linejoin="round" stroke-width="2"/>
      <line id="Línea_16" data-name="Línea 16" x2="5.802" y2="5.802" transform="translate(791.214 586.021)" fill="none" stroke="#aaa" stroke-linecap="round" stroke-linejoin="round" stroke-width="2"/>
      <line id="Línea_17" data-name="Línea 17" x1="5.799" y2="5.802" transform="translate(760.056 586.021)" fill="none" stroke="#aaa" stroke-linecap="round" stroke-linejoin="round" stroke-width="2"/>
    </g>
  </g>
</svg>
