<svg xmlns="http://www.w3.org/2000/svg" width="35.651" height="35.922" viewBox="0 0 35.651 35.922">
  <g id="Layer_2" data-name="Layer 2" transform="translate(-0.002 0)">
    <g id="Layer_1" data-name="Layer 1" transform="translate(0.002 0)">
      <path id="Trazado_1215" data-name="Trazado 1215" d="M24.1,33.608c.125-1.519.252-3.051.383-4.64a12.261,12.261,0,0,0,11.855-3.215,11.615,11.615,0,0,0,3.635-8.869A12.23,12.23,0,0,0,26.179,4.817,12.375,12.375,0,0,0,15.8,20.536l-4.66.379A16.9,16.9,0,0,1,18.892,2.424,17.043,17.043,0,0,1,41.858,26.476,16.8,16.8,0,0,1,24.1,33.608Z" transform="translate(-9.058 0)" fill="#353535"/>
      <path id="Trazado_1216" data-name="Trazado 1216" d="M3.6,155.76a16.787,16.787,0,0,1-1.755-1.69,1.54,1.54,0,0,1-.267-1.25,1.378,1.378,0,0,1,1.009-.678c3.179-.295,6.364-.546,9.549-.789,1.2-.091,1.565.274,1.475,1.494-.243,3.184-.487,6.367-.79,9.543a1.371,1.371,0,0,1-.7.994,1.562,1.562,0,0,1-1.25-.295,17.88,17.88,0,0,1-1.7-1.725c-1.012,1.05-1.938,2.03-2.884,2.989-.784.795-1.259.786-2.053,0q-1.858-1.84-3.707-3.7c-.689-.693-.7-1.214-.018-1.893C1.476,157.792,2.481,156.844,3.6,155.76Z" transform="translate(-0.002 -129.024)" fill="#aaa"/>
      <path id="Trazado_1217" data-name="Trazado 1217" d="M77.552,54.951a10.116,10.116,0,1,0-19.61,4.955c.124.431.295.6.761.547.854-.094,1.713-.147,2.57-.19a3.249,3.249,0,0,1,3.639,3.605c-.053.976-.133,1.951-.2,2.961a9.446,9.446,0,0,0,4.546.348,10.132,10.132,0,0,0,8.3-12.226Zm-6.473,5.437a2.688,2.688,0,0,1-1.048.92,4.764,4.764,0,0,1-1.59.463v.885a.313.313,0,0,1-.091.232.3.3,0,0,1-.218.09h-.917a.308.308,0,0,1-.321-.321v-.885a4.382,4.382,0,0,1-1.635-.482,2.686,2.686,0,0,1-.991-.9,2.221,2.221,0,0,1-.361-1.107.258.258,0,0,1,.084-.186.273.273,0,0,1,.2-.084h1.379a.408.408,0,0,1,.257.071.9.9,0,0,1,.168.174,1.343,1.343,0,0,0,.295.425,1.51,1.51,0,0,0,.547.341,2.4,2.4,0,0,0,.863.136,2.345,2.345,0,0,0,1.255-.27.836.836,0,0,0,.419-.737.7.7,0,0,0-.226-.541,2.078,2.078,0,0,0-.708-.373c-.321-.111-.754-.232-1.293-.36a7.021,7.021,0,0,1-1.635-.535A2.452,2.452,0,0,1,64.5,56.5a2.491,2.491,0,0,1,.385-3.018A3.435,3.435,0,0,1,66.9,52.6v-.885a.308.308,0,0,1,.316-.323h.914a.3.3,0,0,1,.218.09.317.317,0,0,1,.091.233v.913a3.781,3.781,0,0,1,1.486.535,3.014,3.014,0,0,1,.914.885,1.886,1.886,0,0,1,.327.96.267.267,0,0,1-.077.186.252.252,0,0,1-.193.084H69.44a.489.489,0,0,1-.218-.052.442.442,0,0,1-.18-.18.922.922,0,0,0-.451-.59,1.755,1.755,0,0,0-.978-.252,1.881,1.881,0,0,0-1,.233.773.773,0,0,0-.373.708.737.737,0,0,0,.193.521,1.582,1.582,0,0,0,.63.375q.442.159,1.18.354a8.77,8.77,0,0,1,1.84.553,2.378,2.378,0,0,1,.991,3.431Z" transform="translate(-49.077 -40.158)" fill="#aaa"/>
    </g>
  </g>
</svg>
