<svg id="Layer_1" data-name="Layer 1" xmlns="http://www.w3.org/2000/svg" width="95.528" height="95.536" viewBox="0 0 95.528 95.536">
  <defs>
    <style>
      .cls-1 {
        fill: #efefef;
      }

      .cls-2 {
        fill: #b47bff;
      }
    </style>
  </defs>
  <path id="Trazado_40" data-name="Trazado 40" class="cls-1" d="M42.68,9.287,47.758,0l5.086,9.287a84.039,84.039,0,0,0,33.4,33.393l9.287,5.086-9.287,5.086a84.046,84.046,0,0,0-33.4,33.4l-5.086,9.287-5.086-9.287a84.038,84.038,0,0,0-33.393-33.4L0,47.758l9.287-5.086A84.027,84.027,0,0,0,42.68,9.287Z"/>
  <path id="Trazado_44" data-name="Trazado 44" class="cls-2" d="M17.61,3.832,19.705,0l2.1,3.832A34.675,34.675,0,0,0,35.583,17.61l3.832,2.1-3.832,2.1A34.678,34.678,0,0,0,21.8,35.587l-2.1,3.832-2.1-3.832A34.675,34.675,0,0,0,3.829,21.807L0,19.705l3.832-2.1A34.67,34.67,0,0,0,17.61,3.832Z" transform="translate(28.056 28.059)"/>
</svg>
