<svg xmlns="http://www.w3.org/2000/svg" width="183.328" height="183.328" viewBox="0 0 183.328 183.328">
  <g id="Grupo_49" data-name="Grupo 49" transform="translate(-608 -330.322)">
    <path id="Trazado_114" data-name="Trazado 114" d="M57.915,12.6,64.805,0l6.9,12.6a114.036,114.036,0,0,0,45.318,45.313l12.6,6.9-12.6,6.9a114.046,114.046,0,0,0-45.318,45.318l-6.9,12.6-6.9-12.6A114.036,114.036,0,0,0,12.592,71.717L0,64.805l12.6-6.9A114.02,114.02,0,0,0,57.915,12.6Z" transform="translate(699.667 330.322) rotate(45)"/>
    <path id="Trazado_115" data-name="Trazado 115" d="M51.646,24.523,19.02,6.35,19.6,43.705Z" transform="matrix(-0.035, 0.999, -0.999, -0.035, 725.481, 389.548)" fill="#b47bff"/>
  </g>
</svg>
