<svg xmlns="http://www.w3.org/2000/svg" width="92.069" height="90.71" viewBox="0 0 92.069 90.71">
  <g id="Layer_2" data-name="Layer 2" transform="translate(-0.001)">
    <g id="Capa_1" data-name="Capa 1" transform="translate(0.001)">
      <path id="Trazado_3462" data-name="Trazado 3462" d="M48.744,25.918,64.562,4.092,58.2,30.464,81.384,17.279,65.065,37.511h27L65.925,47.336,89.8,59.791,62.97,56.608,78.55,78.084,55.922,63.429l3.865,25.689L47.024,66.611l-9.071,24.1L36.568,63.883,17.5,82.071,28.085,58.427,4.175,64.565l20.912-15.46L0,42.968l26.586-2.955L6.489,22.053l24.784,9.32L21.557,6.82,39.78,25.689,42.509,0Z" fill="#3e0cf2"/>
      <path id="Trazado_3463" data-name="Trazado 3463" d="M221.462,209.186a14.179,14.179,0,0,1,7.094-12.287,14.186,14.186,0,1,0,0,24.575A14.181,14.181,0,0,1,221.462,209.186Z" transform="translate(-174.15 -163.832)" fill="#fff"/>
    </g>
  </g>
</svg>
