<svg xmlns="http://www.w3.org/2000/svg" width="90.924" height="90.928" viewBox="0 0 90.924 90.928">
  <g id="Layer_2" data-name="Layer 2" transform="translate(-0.002 0.001)">
    <g id="Capa_1" data-name="Capa 1">
      <path id="Unión_4" data-name="Unión 4" d="M16579.818-252.544a201.468,201.468,0,0,1-2.053-21.81,19.431,19.431,0,0,0,2.691.188,19.508,19.508,0,0,0,2.7-.188,200.98,200.98,0,0,1-2.055,21.81l-.637,4.314Zm14.547-8.771c-.6-2.879-3.264-5.854-6.033-7.185-3.385-1.619-5.037-5.562-5.158-5.862a19.6,19.6,0,0,1-5.412,0c-.121.3-1.773,4.243-5.152,5.862-2.779,1.331-5.441,4.3-6.043,7.181s-1.48,7.068-5.436,6.935c0,0,3.371-2.195,3.254-5.925-.08-2.6-1.219-5.8.852-7.995s3.984-4.248,3.984-6.655a7.293,7.293,0,0,0-.639-3.046,201.669,201.669,0,0,1-16.756,13.865l-3.51,2.6,2.6-3.509a201.181,201.181,0,0,1,13.877-16.778,7.259,7.259,0,0,0-3.07-.638c-2.408,0-4.457,1.924-6.66,3.989s-5.395.926-7.99.847c-3.73-.117-5.924,3.255-5.924,3.255-.135-3.951,4.059-4.836,6.934-5.437s5.846-3.259,7.182-6.042c1.59-3.317,5.412-4.97,5.842-5.145a201.583,201.583,0,0,1-21.785-2.049l-4.314-.638,4.314-.651a200.939,200.939,0,0,1,21.8-2.04v.038a.14.14,0,0,0,.01-.063c-.234-.092-4.236-1.744-5.871-5.157-1.336-2.779-4.307-5.445-7.182-6.042s-7.068-1.481-6.936-5.437c0,0,2.2,3.371,5.926,3.255,2.6-.079,5.795-1.218,7.99.851s4.252,3.985,6.66,3.985a7.292,7.292,0,0,0,3.045-.638,201,201,0,0,1-13.861-16.744l-2.59-3.5,3.514,2.591a200.237,200.237,0,0,1,16.752,13.857,7.261,7.261,0,0,0,.643-3.075c0-2.4-1.906-4.444-3.977-6.643s-.926-5.4-.848-7.995c.117-3.73-3.254-5.925-3.254-5.925,3.951-.134,4.828,4.06,5.438,6.935s3.258,5.846,6.037,7.177c3.488,1.673,5.137,5.8,5.166,5.883a200,200,0,0,1,2.053-21.81l.639-4.314.639,4.314a201.468,201.468,0,0,1,2.053,21.81c.029-.071,1.672-4.21,5.16-5.883,2.779-1.331,5.449-4.306,6.047-7.181s1.48-7.072,5.438-6.939c0,0-3.373,2.2-3.256,5.929.08,2.6,1.219,5.792-.852,7.99s-3.984,4.252-3.984,6.659a7.28,7.28,0,0,0,.639,3.067,201.642,201.642,0,0,1,16.748-13.857l3.51-2.6-2.6,3.517a202.338,202.338,0,0,1-13.852,16.744,7.3,7.3,0,0,0,3.045.638c2.412,0,4.465-1.919,6.664-3.981s5.391-.93,7.99-.851c3.73.117,5.926-3.255,5.926-3.255.133,3.956-4.061,4.828-6.936,5.437s-5.846,3.263-7.182,6.042c-1.639,3.426-5.662,5.074-5.875,5.161a19.629,19.629,0,0,1,.188,2.708,20.007,20.007,0,0,1-.184,2.691,19.289,19.289,0,0,0,0-5.387,201.009,201.009,0,0,1,21.811,2.053l4.314.638-4.307.647a199.647,199.647,0,0,1-21.793,2.049c.377.154,4.252,1.807,5.85,5.153,1.336,2.779,4.3,5.441,7.182,6.042s7.068,1.481,6.936,5.437c0,0-2.2-3.371-5.926-3.255-2.6.079-5.795,1.218-7.99-.851s-4.252-3.985-6.66-3.985a7.3,7.3,0,0,0-3.07.638,199.656,199.656,0,0,1,13.877,16.765l2.592,3.509-3.5-2.6a201.664,201.664,0,0,1-16.762-13.87,7.311,7.311,0,0,0-.639,3.05c0,2.408,1.924,4.46,3.984,6.659s.932,5.4.852,7.995c-.121,3.73,3.25,5.925,3.25,5.925q-.091,0-.182,0C16595.818-254.377,16594.957-258.485,16594.365-261.315Zm1.465-20.337a20,20,0,0,1-3.3,3.3l-.014.017a19.544,19.544,0,0,0,1.762-1.561v0a19.859,19.859,0,0,0,1.568-1.773Zm-29.176,1.765a20.119,20.119,0,0,0,1.762,1.552l-.008-.013a19.754,19.754,0,0,1-3.318-3.313A19.219,19.219,0,0,0,16566.654-279.887Zm-5.721-13.807a19.44,19.44,0,0,0,.15,2.358,19.566,19.566,0,0,1-.141-2.366c0-.5.016-1.006.053-1.5C16560.955-294.7,16560.934-294.2,16560.934-293.694Zm.117-2.115v.056c0-.02,0-.04,0-.06Zm34.248-10.569h0c-.1-.121-.2-.242-.32-.363C16595.09-306.62,16595.2-306.5,16595.3-306.378Zm-29.191-.551.146-.159Zm28.646-.069c-.158-.171-.316-.341-.48-.5-.068-.07-.139-.136-.207-.2C16594.3-307.474,16594.531-307.238,16594.754-307Zm-28.1-.5c-.027.025-.051.051-.076.077l.182-.178Zm.426-.413.131-.121Zm25.691-.926v-.008l-.043-.029A.418.418,0,0,1,16592.775-308.84Z" transform="translate(-16535 339.157)" fill="#ffba0d"/>
      <path id="Trazado_3460" data-name="Trazado 3460" d="M206.181,195.977l1.552-2.837,1.552,2.837a25.668,25.668,0,0,0,10.206,10.2l2.837,1.552-2.837,1.552a25.648,25.648,0,0,0-10.206,10.206l-1.552,2.837-1.552-2.837a25.668,25.668,0,0,0-10.2-10.2l-2.837-1.552,2.837-1.552A25.688,25.688,0,0,0,206.181,195.977Z" transform="translate(-162.269 -162.269)" fill="#3e0cf2"/>
      <path id="Trazado_3461" data-name="Trazado 3461" d="M220.788,222.982l-.908-3.1,3.1.909a25.683,25.683,0,0,0,14.432,0l3.1-.909-.909,3.1a25.683,25.683,0,0,0,0,14.432l.909,3.1-3.1-.909a25.682,25.682,0,0,0-14.432,0l-3.1.909.908-3.1A25.654,25.654,0,0,0,220.788,222.982Z" transform="translate(-184.735 -184.735)" fill="#3e0cf2"/>
    </g>
  </g>
</svg>
