<?xml version="1.0" encoding="UTF-8"?><svg xmlns="http://www.w3.org/2000/svg" xmlns:xlink="http://www.w3.org/1999/xlink" viewBox="0 0 122.21 29.13"><defs><style>.f{fill:#fff;}.g{fill:url(#d);}.h{fill:url(#e);}</style><linearGradient id="d" x1="13.74" y1="-1.44" x2="23.69" y2="18.56" gradientTransform="matrix(1, 0, 0, 1, 0, 0)" gradientUnits="userSpaceOnUse"><stop offset="0" stop-color="#ff5d0c"/><stop offset="1" stop-color="#ffff0c"/></linearGradient><linearGradient id="e" x1="4.94" y1="2.75" x2="16.1" y2="25.15" xlink:href="#d"/></defs><g id="a"/><g id="b"><g id="c"><g><g><polygon class="g" points="22.16 8.77 16.92 5.85 17.01 11.85 22.16 8.77"/><path class="h" d="M22.02,23.78c-8.31,0-15.05-6.74-15.05-15.05,0-3.26,1.05-6.27,2.81-8.73C4.07,2.14,0,7.63,0,14.08c0,8.31,6.74,15.05,15.05,15.05,5.05,0,9.51-2.5,12.24-6.31-1.64,.61-3.41,.97-5.26,.97Z"/></g><g><path class="f" d="M40.39,11.48s.08,.03,.1,.09c.03,.06,.02,.11-.02,.13-.56,.4-1.06,.68-1.49,.85-.43,.16-.9,.25-1.39,.25-.8,0-1.46-.22-1.99-.66-.53-.44-.79-1.17-.79-2.18V4.55c0-.32-.03-.54-.08-.68-.06-.14-.15-.23-.3-.28-.14-.05-.38-.07-.71-.07-.04,0-.06-.05-.06-.17,0-.1,.02-.14,.06-.14,.62,0,1.14-.15,1.56-.44,.42-.3,.66-.68,.73-1.14,0-.04,.05-.06,.14-.06,.04,0,.08,0,.11,.02s.05,.03,.05,.06v1.5c.76-.01,1.96-.08,3.61-.19,.04,0,.08,.04,.1,.13,.03,.09,.04,.2,.04,.32,0,.14-.02,.27-.07,.4-.05,.13-.09,.19-.13,.17-1.04-.25-2.23-.38-3.55-.41v5.77c0,.91,.17,1.58,.52,2.03,.34,.45,.87,.67,1.59,.67s1.39-.19,1.94-.56l.04-.02Z"/><path class="f" d="M50.76,11.4c.06,0,.09,.03,.11,.09,.02,.06,0,.11-.05,.13l-2.19,1.05-.16,.04c-.23,0-.46-.12-.69-.37-.23-.25-.38-.62-.46-1.11l-1.32,.76c-.47,.26-.86,.44-1.16,.55-.31,.1-.61,.15-.92,.15-.51,0-.93-.14-1.26-.43-.33-.29-.5-.63-.5-1.03,0-.48,.16-.88,.48-1.21,.32-.32,.88-.63,1.68-.92l2.95-1.07v-2.43c0-.84-.11-1.45-.33-1.84-.22-.38-.57-.58-1.05-.58-.56,0-.99,.2-1.27,.6-.28,.4-.5,.91-.65,1.53-.15,.6-.46,.91-.93,.91-.26,0-.47-.08-.64-.23-.17-.15-.24-.34-.23-.58,0-.36,.25-.75,.75-1.17,.5-.43,1.11-.79,1.81-1.08,.71-.3,1.36-.44,1.95-.44,.63,0,1.14,.19,1.52,.57,.38,.38,.57,.94,.57,1.7v4.91c0,.66,.1,1.11,.29,1.36,.19,.25,.45,.37,.78,.37,.22,0,.52-.08,.89-.23h.02Zm-3.46-.47c-.01-.07-.02-.18-.02-.33v-2.23l-2.12,.8c-.45,.18-.78,.39-.97,.63-.19,.24-.29,.53-.29,.86s.11,.63,.32,.87c.21,.23,.47,.35,.77,.35,.26,0,.6-.1,1.03-.31l1.28-.64Z"/><path class="f" d="M62.39,12.43c0,.08-.02,.12-.06,.12h-2.72c-.22,0-.63-.41-1.24-1.24-.61-.82-1.32-1.96-2.14-3.4-.29,.04-.58,.06-.87,.06s-.51,0-.66-.02v2.93c0,.43,.03,.74,.1,.93,.07,.19,.2,.32,.39,.39,.19,.07,.51,.1,.95,.1,.04,0,.06,.04,.06,.12s-.02,.12-.06,.12c-.38,0-.69,0-.91-.02l-1.32-.02-1.28,.02c-.23,.01-.56,.02-.97,.02-.03,0-.04-.04-.04-.12s.01-.12,.04-.12c.44,0,.76-.03,.96-.1,.2-.07,.34-.2,.41-.4s.11-.51,.11-.92V4.57c0-.41-.04-.71-.11-.91-.08-.19-.21-.33-.41-.4-.2-.08-.5-.11-.92-.11-.04,0-.06-.04-.06-.12s.02-.12,.06-.12l.95,.02c.52,.03,.94,.04,1.26,.04,.26,0,.5,0,.71-.02,.21-.01,.39-.03,.55-.04,.43-.04,.83-.06,1.22-.06,.95,0,1.67,.17,2.17,.52,.5,.34,.75,.84,.75,1.48,0,.55-.16,1.06-.48,1.52-.32,.46-.77,.83-1.33,1.12,.76,1.25,1.4,2.22,1.93,2.91,.53,.69,1.02,1.18,1.47,1.47,.45,.3,.93,.44,1.42,.44,.04,0,.06,.04,.06,.12Zm-6.89-4.82c.82,0,1.4-.19,1.72-.56,.32-.37,.48-.92,.48-1.65,0-1.48-.61-2.23-1.83-2.23-.48,0-.8,.1-.95,.31-.15,.21-.23,.58-.23,1.13v2.95c.3,.03,.57,.04,.8,.04Z"/><path class="f" d="M65.09,12.12c-.76-.45-1.34-1.07-1.76-1.84-.42-.77-.63-1.61-.63-2.51,0-1.06,.28-1.98,.82-2.75,.55-.78,1.25-1.36,2.11-1.76s1.74-.6,2.63-.6c.96,0,1.81,.24,2.56,.71,.74,.47,1.31,1.09,1.71,1.85s.6,1.55,.6,2.37c0,.92-.25,1.78-.74,2.59-.49,.8-1.16,1.44-1.99,1.92s-1.74,.71-2.73,.71-1.82-.23-2.58-.68Zm5.43-.89c.58-.76,.88-1.81,.88-3.15,0-.91-.15-1.74-.45-2.49s-.74-1.36-1.32-1.8-1.26-.67-2.06-.67c-1,0-1.78,.36-2.33,1.07-.55,.71-.82,1.72-.82,3.03,0,.96,.16,1.83,.47,2.62,.32,.78,.76,1.4,1.33,1.85s1.23,.68,1.97,.68c.98,0,1.76-.38,2.34-1.13Z"/><path class="f" d="M81.37,11.48s.08,.03,.1,.09c.03,.06,.02,.11-.02,.13-.56,.4-1.06,.68-1.49,.85-.43,.16-.9,.25-1.39,.25-.8,0-1.46-.22-1.99-.66-.53-.44-.79-1.17-.79-2.18V4.55c0-.32-.03-.54-.08-.68-.06-.14-.15-.23-.3-.28-.14-.05-.38-.07-.71-.07-.04,0-.06-.05-.06-.17,0-.1,.02-.14,.06-.14,.62,0,1.14-.15,1.56-.44,.42-.3,.66-.68,.73-1.14,0-.04,.05-.06,.14-.06,.04,0,.08,0,.11,.02s.05,.03,.05,.06v1.5c.76-.01,1.96-.08,3.61-.19,.04,0,.08,.04,.1,.13,.03,.09,.04,.2,.04,.32,0,.14-.02,.27-.07,.4-.05,.13-.09,.19-.13,.17-1.04-.25-2.23-.38-3.55-.41v5.77c0,.91,.17,1.58,.52,2.03,.34,.45,.87,.67,1.59,.67s1.39-.19,1.94-.56l.04-.02Z"/><path class="f" d="M85.87,11.8c.07,.2,.2,.33,.4,.4,.2,.07,.52,.1,.96,.1,.04,0,.06,.04,.06,.12s-.02,.12-.06,.12c-.4,0-.71,0-.93-.02l-1.32-.02-1.28,.02c-.23,.01-.56,.02-.97,.02-.03,0-.04-.04-.04-.12s.01-.12,.04-.12c.44,0,.76-.03,.97-.1,.21-.07,.35-.2,.42-.4s.11-.51,.11-.92V4.57c0-.41-.04-.71-.11-.91-.08-.19-.22-.33-.42-.4-.21-.08-.53-.11-.97-.11-.03,0-.04-.04-.04-.12s.01-.12,.04-.12l.97,.02c.52,.03,.95,.04,1.28,.04s.79-.01,1.34-.04l.91-.02s.06,.04,.06,.12-.02,.12-.06,.12c-.43,0-.74,.04-.94,.12s-.34,.22-.41,.42c-.08,.2-.11,.51-.11,.92v6.27c0,.41,.03,.72,.1,.92Z"/><path class="f" d="M91.11,5.58c.21,.3,.47,.55,.77,.75,.3,.2,.73,.44,1.28,.73,.56,.29,1.02,.55,1.37,.78,.35,.23,.65,.53,.89,.88,.24,.35,.36,.77,.36,1.25,0,.52-.15,1-.44,1.43-.3,.43-.71,.77-1.25,1.02-.54,.25-1.15,.37-1.86,.37-.52,0-1.02-.07-1.49-.2-.47-.13-.87-.3-1.19-.53-.11-.07-.17-.21-.17-.41l-.19-2.14c0-.06,.03-.09,.1-.1,.07-.01,.12,0,.14,.06,.28,.8,.7,1.49,1.27,2.07,.57,.58,1.21,.88,1.91,.88,.45,0,.85-.13,1.18-.4s.5-.68,.5-1.25c0-.44-.11-.83-.33-1.16-.22-.34-.5-.62-.82-.85-.33-.23-.76-.48-1.28-.77-.54-.29-.97-.55-1.3-.77-.33-.23-.61-.51-.83-.85-.23-.34-.34-.73-.34-1.19,0-.78,.32-1.4,.96-1.85,.64-.45,1.41-.68,2.32-.68,.77,0,1.5,.16,2.21,.47,.12,.06,.2,.11,.24,.15,.03,.05,.06,.12,.07,.22l.08,1.84c0,.05-.03,.09-.1,.1-.07,.01-.12,0-.14-.04-.07-.3-.22-.64-.46-1.01-.24-.37-.56-.69-.95-.96-.39-.27-.83-.4-1.31-.4s-.87,.14-1.12,.41c-.25,.28-.38,.64-.38,1.09,0,.4,.11,.75,.32,1.05Z"/><path class="f" d="M104.03,11.48s.08,.03,.1,.09c.03,.06,.02,.11-.02,.13-.56,.4-1.06,.68-1.49,.85-.43,.16-.9,.25-1.39,.25-.8,0-1.46-.22-1.99-.66-.53-.44-.79-1.17-.79-2.18V4.55c0-.32-.03-.54-.08-.68-.06-.14-.15-.23-.3-.28-.14-.05-.38-.07-.71-.07-.04,0-.06-.05-.06-.17,0-.1,.02-.14,.06-.14,.62,0,1.14-.15,1.56-.44,.42-.3,.66-.68,.73-1.14,0-.04,.05-.06,.14-.06,.04,0,.08,0,.11,.02s.05,.03,.05,.06v1.5c.76-.01,1.96-.08,3.61-.19,.04,0,.08,.04,.1,.13,.03,.09,.04,.2,.04,.32,0,.14-.02,.27-.07,.4-.05,.13-.09,.19-.13,.17-1.04-.25-2.23-.38-3.55-.41v5.77c0,.91,.17,1.58,.52,2.03,.34,.45,.87,.67,1.59,.67s1.39-.19,1.94-.56l.04-.02Z"/><path class="f" d="M114.4,11.4c.06,0,.09,.03,.11,.09,.02,.06,0,.11-.05,.13l-2.19,1.05-.16,.04c-.23,0-.46-.12-.69-.37-.23-.25-.38-.62-.46-1.11l-1.32,.76c-.47,.26-.86,.44-1.16,.55-.31,.1-.61,.15-.92,.15-.51,0-.93-.14-1.26-.43-.33-.29-.5-.63-.5-1.03,0-.48,.16-.88,.48-1.21,.32-.32,.88-.63,1.68-.92l2.95-1.07v-2.43c0-.84-.11-1.45-.33-1.84-.22-.38-.57-.58-1.05-.58-.56,0-.99,.2-1.27,.6-.28,.4-.5,.91-.65,1.53-.15,.6-.46,.91-.93,.91-.26,0-.47-.08-.64-.23-.17-.15-.24-.34-.23-.58,0-.36,.25-.75,.75-1.17,.5-.43,1.11-.79,1.81-1.08,.71-.3,1.36-.44,1.95-.44,.63,0,1.14,.19,1.52,.57,.38,.38,.57,.94,.57,1.7v4.91c0,.66,.1,1.11,.29,1.36,.19,.25,.45,.37,.78,.37,.22,0,.52-.08,.89-.23h.02Zm-3.46-.47c-.01-.07-.02-.18-.02-.33v-2.23l-2.12,.8c-.45,.18-.78,.39-.97,.63-.19,.24-.29,.53-.29,.86s.11,.63,.32,.87c.21,.23,.47,.35,.77,.35,.26,0,.6-.1,1.03-.31l1.28-.64Z"/><path class="f" d="M117.54,5.58c.21,.3,.47,.55,.77,.75,.3,.2,.73,.44,1.28,.73,.56,.29,1.02,.55,1.37,.78,.35,.23,.65,.53,.89,.88,.24,.35,.36,.77,.36,1.25,0,.52-.15,1-.44,1.43-.3,.43-.71,.77-1.25,1.02-.54,.25-1.15,.37-1.86,.37-.52,0-1.02-.07-1.49-.2-.47-.13-.87-.3-1.19-.53-.11-.07-.17-.21-.17-.41l-.19-2.14c0-.06,.03-.09,.1-.1,.07-.01,.12,0,.14,.06,.28,.8,.7,1.49,1.27,2.07,.57,.58,1.21,.88,1.91,.88,.45,0,.85-.13,1.18-.4s.5-.68,.5-1.25c0-.44-.11-.83-.33-1.16-.22-.34-.5-.62-.82-.85-.33-.23-.76-.48-1.28-.77-.54-.29-.97-.55-1.3-.77-.33-.23-.61-.51-.83-.85-.23-.34-.34-.73-.34-1.19,0-.78,.32-1.4,.96-1.85,.64-.45,1.41-.68,2.32-.68,.77,0,1.5,.16,2.21,.47,.12,.06,.2,.11,.24,.15,.03,.05,.06,.12,.07,.22l.08,1.84c0,.05-.03,.09-.1,.1-.07,.01-.12,0-.14-.04-.07-.3-.22-.64-.46-1.01-.24-.37-.56-.69-.95-.96-.39-.27-.83-.4-1.31-.4s-.87,.14-1.12,.41c-.25,.28-.38,.64-.38,1.09,0,.4,.11,.75,.32,1.05Z"/></g><g><path class="f" d="M36.64,25.71c0,.39,.04,.67,.11,.87,.08,.19,.22,.33,.42,.4,.21,.08,.52,.11,.95,.11h.99c.74,0,1.36-.24,1.87-.71,.5-.47,.86-1.12,1.06-1.93,0-.03,.03-.04,.08-.04,.04,0,.08,0,.11,.02,.03,.01,.05,.03,.05,.06-.1,.66-.14,1.55-.14,2.66,0,.11-.02,.19-.07,.24-.05,.05-.13,.07-.26,.07h-8.12s-.04-.04-.04-.12,.01-.12,.04-.12c.43,0,.74-.03,.93-.1,.19-.07,.32-.2,.39-.4,.07-.2,.1-.51,.1-.92v-6.31c0-.41-.03-.71-.1-.91-.07-.19-.2-.33-.4-.4-.2-.08-.51-.11-.92-.11-.03,0-.04-.04-.04-.12s.01-.12,.04-.12l.95,.02c.55,.03,.98,.04,1.28,.04,.33,0,.77-.01,1.32-.04l.91-.02s.04,.04,.04,.12-.01,.12-.04,.12c-.44,0-.76,.04-.97,.11-.21,.08-.35,.21-.42,.41-.08,.2-.11,.51-.11,.92v6.21Z"/><path class="f" d="M52.58,26.31c.06,0,.09,.03,.11,.09,.02,.06,0,.11-.05,.13l-2.19,1.05-.16,.04c-.23,0-.46-.12-.69-.37-.23-.25-.38-.62-.46-1.11l-1.32,.76c-.47,.26-.86,.44-1.16,.55-.31,.1-.61,.15-.92,.15-.51,0-.93-.14-1.26-.43-.33-.29-.5-.63-.5-1.03,0-.48,.16-.88,.48-1.21,.32-.32,.88-.63,1.68-.92l2.95-1.07v-2.43c0-.84-.11-1.45-.33-1.84-.22-.38-.57-.58-1.05-.58-.56,0-.99,.2-1.27,.6-.28,.4-.5,.91-.65,1.53-.15,.6-.46,.91-.93,.91-.26,0-.47-.08-.64-.23-.17-.15-.24-.34-.23-.58,0-.36,.25-.75,.75-1.17,.5-.43,1.11-.79,1.81-1.08,.71-.3,1.36-.44,1.95-.44,.63,0,1.14,.19,1.52,.57,.38,.38,.57,.94,.57,1.7v4.91c0,.66,.1,1.11,.29,1.36,.19,.25,.45,.37,.78,.37,.22,0,.52-.08,.89-.23h.02Zm-3.46-.47c-.01-.07-.02-.18-.02-.33v-2.23l-2.12,.8c-.45,.18-.78,.39-.97,.63-.19,.24-.29,.53-.29,.86s.11,.63,.32,.87c.21,.23,.47,.35,.77,.35,.26,0,.6-.1,1.03-.31l1.28-.64Z"/><path class="f" d="M60.18,26.39s.08,.03,.1,.09c.03,.06,.02,.11-.02,.13-.56,.4-1.06,.68-1.49,.85-.43,.16-.9,.25-1.39,.25-.8,0-1.46-.22-1.99-.66-.53-.44-.79-1.17-.79-2.18v-5.4c0-.32-.03-.54-.08-.68-.06-.14-.15-.23-.3-.28-.14-.05-.38-.07-.71-.07-.04,0-.06-.05-.06-.17,0-.1,.02-.14,.06-.14,.62,0,1.14-.15,1.56-.44,.42-.3,.66-.68,.73-1.14,0-.04,.05-.06,.14-.06,.04,0,.08,0,.11,.02s.05,.03,.05,.06v1.5c.76-.01,1.96-.08,3.61-.19,.04,0,.08,.04,.1,.13,.03,.09,.04,.2,.04,.32,0,.14-.02,.27-.07,.4-.05,.13-.09,.19-.13,.17-1.04-.25-2.23-.38-3.55-.41v5.77c0,.91,.17,1.58,.52,2.03,.34,.45,.87,.67,1.59,.67s1.39-.19,1.94-.56l.04-.02Z"/><path class="f" d="M64.68,26.71c.07,.2,.2,.33,.4,.4,.2,.07,.52,.1,.96,.1,.04,0,.06,.04,.06,.12s-.02,.12-.06,.12c-.4,0-.71,0-.93-.02l-1.32-.02-1.28,.02c-.23,.01-.56,.02-.97,.02-.03,0-.04-.04-.04-.12s.01-.12,.04-.12c.44,0,.76-.03,.97-.1,.21-.07,.35-.2,.42-.4s.11-.51,.11-.92v-6.31c0-.41-.04-.71-.11-.91-.08-.19-.22-.33-.42-.4-.21-.08-.53-.11-.97-.11-.03,0-.04-.04-.04-.12s.01-.12,.04-.12l.97,.02c.52,.03,.95,.04,1.28,.04s.79-.01,1.34-.04l.91-.02s.06,.04,.06,.12-.02,.12-.06,.12c-.43,0-.74,.04-.94,.12s-.34,.22-.41,.42c-.08,.2-.11,.51-.11,.92v6.27c0,.41,.03,.72,.1,.92Z"/><path class="f" d="M78.98,27.34c0,.08-.01,.12-.04,.12-.34,0-.61,0-.8-.02l-1.09-.02-1.28,.02c-.21,.01-.48,.02-.82,.02-.03,0-.04-.04-.04-.12s.01-.12,.04-.12c.4,0,.7-.04,.9-.12,.2-.08,.33-.22,.4-.42,.07-.2,.1-.5,.1-.92v-4.1c0-1.32-.22-2.23-.66-2.73s-1.06-.75-1.86-.75c-.59,0-1.14,.13-1.66,.39-.52,.26-1.03,.71-1.56,1.34v5.85c0,.41,.03,.72,.09,.92,.06,.2,.19,.34,.37,.42,.19,.08,.47,.12,.86,.12,.04,0,.06,.04,.06,.12s-.02,.12-.06,.12c-.39,0-.69,0-.91-.02l-1.24-.02-1.17,.02c-.23,.01-.54,.02-.93,.02-.03,0-.04-.04-.04-.12s.01-.12,.04-.12c.41,0,.71-.04,.91-.11,.19-.08,.33-.21,.4-.4,.08-.19,.11-.5,.11-.91v-6.31c0-.41-.03-.71-.1-.91-.07-.19-.2-.33-.38-.4-.19-.08-.48-.11-.88-.11-.04,0-.06-.04-.06-.12s.02-.12,.06-.12l1.34,.02,1.13-.02c.17,0,.27,.02,.32,.07,.05,.05,.07,.15,.07,.32v1.2c.59-.63,1.2-1.1,1.83-1.39,.63-.3,1.31-.44,2.02-.44,.99,0,1.8,.28,2.42,.84,.63,.56,.94,1.43,.94,2.63v4.76c0,.41,.03,.72,.08,.92s.16,.33,.31,.4c.15,.07,.39,.1,.72,.1,.03,0,.04,.04,.04,.12Z"/><path class="f" d="M82.55,27.03c-.76-.45-1.34-1.07-1.76-1.84-.42-.77-.63-1.61-.63-2.51,0-1.06,.28-1.98,.82-2.75,.55-.78,1.25-1.36,2.11-1.76s1.74-.6,2.63-.6c.96,0,1.81,.24,2.56,.71,.74,.47,1.31,1.09,1.71,1.85s.6,1.55,.6,2.37c0,.92-.25,1.78-.74,2.59-.49,.8-1.16,1.44-1.99,1.92s-1.74,.71-2.73,.71-1.82-.23-2.58-.68Zm5.43-.89c.58-.76,.88-1.81,.88-3.15,0-.91-.15-1.74-.45-2.49s-.74-1.36-1.32-1.8-1.26-.67-2.06-.67c-1,0-1.78,.36-2.33,1.07-.55,.71-.82,1.72-.82,3.03,0,.96,.16,1.83,.47,2.62,.32,.78,.76,1.4,1.33,1.85s1.23,.68,1.97,.68c.98,0,1.76-.38,2.34-1.13Z"/><path class="f" d="M94.37,20.5c.21,.3,.47,.55,.77,.75,.3,.2,.73,.44,1.28,.73,.56,.29,1.02,.55,1.37,.78,.35,.23,.65,.53,.89,.88,.24,.35,.36,.77,.36,1.25,0,.52-.15,1-.44,1.43-.3,.43-.71,.77-1.25,1.02-.54,.25-1.15,.37-1.86,.37-.52,0-1.02-.07-1.49-.2-.47-.13-.87-.3-1.19-.53-.11-.07-.17-.21-.17-.41l-.19-2.14c0-.06,.03-.09,.1-.1,.07-.01,.12,0,.14,.06,.28,.8,.7,1.49,1.27,2.07,.57,.58,1.21,.88,1.91,.88,.45,0,.85-.13,1.18-.4s.5-.68,.5-1.25c0-.44-.11-.83-.33-1.16-.22-.34-.5-.62-.82-.85-.33-.23-.76-.48-1.28-.77-.54-.29-.97-.55-1.3-.77-.33-.23-.61-.51-.83-.85-.23-.34-.34-.73-.34-1.19,0-.78,.32-1.4,.96-1.85,.64-.45,1.41-.68,2.32-.68,.77,0,1.5,.16,2.21,.47,.12,.06,.2,.11,.24,.15,.03,.05,.06,.12,.07,.22l.08,1.84c0,.05-.03,.09-.1,.1-.07,.01-.12,0-.14-.04-.07-.3-.22-.64-.46-1.01-.24-.37-.56-.69-.95-.96-.39-.27-.83-.4-1.31-.4s-.87,.14-1.12,.41c-.25,.28-.38,.64-.38,1.09,0,.4,.11,.75,.32,1.05Z"/></g></g></g></g></svg>