<svg xmlns="http://www.w3.org/2000/svg" width="203.617" height="247.894" viewBox="0 0 203.617 247.894">
  <g id="Layer_2" data-name="Layer 2" transform="translate(-559 38)">
    <g id="Layer_1" data-name="Layer 1" transform="translate(559 -38)">
      <path id="Trazado_893" data-name="Trazado 893" d="M101.806,158.38A129.879,129.879,0,0,0,0,207.781c30.074,30.074,59.438,58.563,101.806,58.563s72.006-28.771,101.811-58.563A129.882,129.882,0,0,0,101.806,158.38Z" transform="translate(0 -88.415)" fill="#e6e6e6"/>
      <circle id="Elipse_76" data-name="Elipse 76" cx="45.721" cy="45.721" r="45.721" transform="translate(56.085 78.225)" fill="#3e0cf2"/>
      <circle id="Elipse_77" data-name="Elipse 77" cx="26.342" cy="26.342" r="26.342" transform="translate(75.465 97.605)"/>
      <circle id="Elipse_78" data-name="Elipse 78" cx="7.545" cy="7.545" r="7.545" transform="translate(94.261 116.402)" fill="#e6e6e6"/>
      <path id="Trazado_894" data-name="Trazado 894" d="M226.552,53.01a3.092,3.092,0,0,1-3.092-3.092V3.092a3.092,3.092,0,0,1,6.185,0V49.918a3.092,3.092,0,0,1-3.092,3.092Z" transform="translate(-124.746)" fill="#ffba0d"/>
      <path id="Trazado_895" data-name="Trazado 895" d="M60.5,89.009a3.066,3.066,0,0,1-2.187-.884L25.205,55a3.092,3.092,0,1,1,4.373-4.373l33.1,33.1a3.092,3.092,0,0,1-2.209,5.3Z" transform="translate(-13.565 -27.756)" fill="#ffba0d"/>
      <path id="Trazado_896" data-name="Trazado 896" d="M350.754,88.981a3.092,3.092,0,0,1-2.187-5.3l33.1-33.1a3.092,3.092,0,0,1,4.373,4.373l-33.1,33.1a3.092,3.092,0,0,1-2.187.928Z" transform="translate(-194.068 -27.728)" fill="#ffba0d"/>
      <path id="Trazado_897" data-name="Trazado 897" d="M226.552,494.17a3.092,3.092,0,0,1-3.092-3.092V444.252a3.092,3.092,0,0,1,6.185,0v46.826A3.092,3.092,0,0,1,226.552,494.17Z" transform="translate(-124.746 -246.277)" fill="#ffba0d"/>
      <path id="Trazado_898" data-name="Trazado 898" d="M383.887,461.789a3.066,3.066,0,0,1-2.187-.906l-33.1-33.1a3.092,3.092,0,1,1,4.373-4.373l33.1,33.1a3.092,3.092,0,0,1-2.187,5.279Z" transform="translate(-194.097 -235.859)" fill="#ffba0d"/>
      <path id="Trazado_899" data-name="Trazado 899" d="M27.392,461.789a3.092,3.092,0,0,1-2.187-5.279l33.1-33.1a3.092,3.092,0,1,1,4.373,4.373l-33.1,33.1a3.092,3.092,0,0,1-2.187.906Z" transform="translate(-13.565 -235.859)" fill="#ffba0d"/>
    </g>
  </g>
</svg>
