<svg xmlns="http://www.w3.org/2000/svg" width="55.744" height="55.744" viewBox="0 0 55.744 55.744">
  <g id="Grupo_446" data-name="Grupo 446" transform="translate(-339.42 -2701.284)">
    <path id="Trazado_902" data-name="Trazado 902" d="M17.61,3.832,19.705,0l2.1,3.832A34.675,34.675,0,0,0,35.583,17.61l3.832,2.1-3.832,2.1A34.678,34.678,0,0,0,21.8,35.587l-2.1,3.832-2.1-3.832A34.675,34.675,0,0,0,3.829,21.807L0,19.705l3.832-2.1A34.67,34.67,0,0,0,17.61,3.832Z" transform="translate(347.584 2709.447)" fill="#3e0cf2"/>
    <path id="Trazado_903" data-name="Trazado 903" d="M17.61,3.832,19.705,0l2.1,3.832A34.675,34.675,0,0,0,35.583,17.61l3.832,2.1-3.832,2.1A34.678,34.678,0,0,0,21.8,35.587l-2.1,3.832-2.1-3.832A34.675,34.675,0,0,0,3.829,21.807L0,19.705l3.832-2.1A34.67,34.67,0,0,0,17.61,3.832Z" transform="translate(339.42 2729.155) rotate(-45)" fill="#3e0cf2"/>
  </g>
</svg>
