<svg xmlns="http://www.w3.org/2000/svg" width="48.68" height="48.536" viewBox="0 0 48.68 48.536">
  <g id="Grupo_1" data-name="Grupo 1" transform="translate(93.262 92.251)">
    <g id="Layer_2" data-name="Layer 2" transform="translate(-93 -92)">
      <g id="Layer_1" data-name="Layer 1" transform="translate(0 0)">
        <path id="Trazado_1" data-name="Trazado 1" d="M24.175,34.768a.157.157,0,0,0,.249-.012l1.021-1.144L29,36.8a.169.169,0,0,0,.125.049.182.182,0,0,0,.116-.061l.092-.1a.172.172,0,0,0,.053-.131.165.165,0,0,0-.061-.116l-3.566-3.188,1.021-1.138a.174.174,0,0,0,.053-.129.165.165,0,0,0-.061-.116l-.092-.074a.178.178,0,0,0-.131-.053.172.172,0,0,0-.12.067l-2.363,2.641a.17.17,0,0,0-.049.125.178.178,0,0,0,.067.123Z" transform="translate(-19.119 -25.255)" fill="#fff" stroke="#fff" stroke-width="0.5"/>
        <path id="Trazado_2" data-name="Trazado 2" d="M60.838,19.134a.151.151,0,0,0,.12-.025l.133-.08a.149.149,0,0,0,.069-.094.159.159,0,0,0-.016-.118.4.4,0,0,0-.057-.065l-4.266-3.3a.253.253,0,0,0-.131-.057.233.233,0,0,0-.143.039l-.225.137a.218.218,0,0,0-.1.106.268.268,0,0,0-.01.141l.909,5.31a.274.274,0,0,0,.031.082.155.155,0,0,0,.1.069.153.153,0,0,0,.116-.016l.133-.08a.161.161,0,0,0,.082-.1.19.19,0,0,0,0-.088l-.227-1.309L59.7,18.278l1.05.817a.459.459,0,0,0,.09.039Zm-3.564.063-.555-3.221L59.3,17.982Z" transform="translate(-44.732 -12.251)" fill="#fff" stroke="#fff" stroke-width="0.5"/>
        <path id="Trazado_3" data-name="Trazado 3" d="M88.059,6.4a.161.161,0,0,0,.2.135l.137-.027a.184.184,0,0,0,.12-.071.176.176,0,0,0,.022-.131l-.408-2.081L89.7,3.912,91.3,5.721a.948.948,0,0,0,.135.12.239.239,0,0,0,.2.029l.092-.018a.155.155,0,0,0,.1-.065.159.159,0,0,0,.027-.116.192.192,0,0,0-.041-.078L90.182,3.754a1.55,1.55,0,0,0,.743-.66,1.5,1.5,0,0,0,.114-1.021A1.43,1.43,0,0,0,90.334,1,2.026,2.026,0,0,0,88.986.869l-1.762.345a.169.169,0,0,0-.114.069.184.184,0,0,0-.02.139Zm.984-5.067a1.55,1.55,0,0,1,1.037.078,1.021,1.021,0,0,1,.48.747,1,1,0,0,1-.165.872,1.532,1.532,0,0,1-.931.462l-1.43.278L87.626,1.61Z" transform="translate(-69.304 -0.641)" fill="#fff" stroke="#fff" stroke-width="0.5"/>
        <path id="Trazado_4" data-name="Trazado 4" d="M127.264.416a2.275,2.275,0,0,0-1.009-.392,2.246,2.246,0,0,0-1.086.067,1.634,1.634,0,0,0-.817.59,2.723,2.723,0,0,0-.445,1.146c-.041.229-.076.441-.108.641s-.061.408-.092.643a2.859,2.859,0,0,0,.076,1.225,1.538,1.538,0,0,0,.572.8,2.42,2.42,0,0,0,1.044.394,2.391,2.391,0,0,0,1.113-.059,1.567,1.567,0,0,0,.794-.584,2.8,2.8,0,0,0,.441-1.15c.045-.229.084-.441.114-.641s.059-.408.086-.645a2.594,2.594,0,0,0-.088-1.225,1.665,1.665,0,0,0-.594-.813Zm.2,2c-.027.233-.051.435-.08.613s-.063.376-.108.613a1.833,1.833,0,0,1-.658,1.225,1.687,1.687,0,0,1-2.161-.337,1.814,1.814,0,0,1-.257-1.364q.045-.345.086-.613c.029-.172.061-.374.1-.613A2.22,2.22,0,0,1,124.761,1a1.279,1.279,0,0,1,.627-.464,1.838,1.838,0,0,1,1.546.241,1.272,1.272,0,0,1,.457.631,2.191,2.191,0,0,1,.067,1Z" transform="translate(-98.421 0.013)" fill="#fff" stroke="#fff" stroke-width="0.5"/>
        <path id="Trazado_5" data-name="Trazado 5" d="M159.68,14.018l.123.065a.182.182,0,0,0,.139.02.174.174,0,0,0,.1-.09l2.22-4.238,1.352.709a.178.178,0,0,0,.137.02.174.174,0,0,0,.1-.088l.053-.1a.178.178,0,0,0,.02-.137.182.182,0,0,0-.1-.1l-3.137-1.644a.163.163,0,0,0-.133-.016.18.18,0,0,0-.1.094l-.053.1a.157.157,0,0,0-.016.131.17.17,0,0,0,.088.1l1.356.709-2.222,4.242a.157.157,0,0,0,.074.229Z" transform="translate(-126.997 -6.685)" fill="#fff" stroke="#fff" stroke-width="0.5"/>
        <path id="Trazado_6" data-name="Trazado 6" d="M182.623,29.384a.172.172,0,0,0-.059-.118l-.11-.1a.159.159,0,0,0-.241.012l-3.4,3.766a.163.163,0,0,0-.049.123.166.166,0,0,0,.061.116l.108.1a.17.17,0,0,0,.125.049.165.165,0,0,0,.116-.061l3.406-3.77A.176.176,0,0,0,182.623,29.384Z" transform="translate(-142.258 -23.169)" fill="#fff" stroke="#fff" stroke-width="0.5"/>
        <path id="Trazado_7" data-name="Trazado 7" d="M192.916,51.089a1.207,1.207,0,0,1,.039-.6.919.919,0,0,1,.255-.4.192.192,0,0,0,.063-.1.155.155,0,0,0-.027-.127l-.084-.131a.151.151,0,0,0-.1-.071.145.145,0,0,0-.116.02,1.211,1.211,0,0,0-.431.574,1.652,1.652,0,0,0-.071.843,2.533,2.533,0,0,0,.408,1,2.779,2.779,0,0,0,.709.776,1.473,1.473,0,0,0,.786.292,1.346,1.346,0,0,0,.8-.237,1.18,1.18,0,0,0,.48-.533,1.444,1.444,0,0,0,.074-.719,7.125,7.125,0,0,0-.2-1.009,7.92,7.92,0,0,1-.2-.933,1.323,1.323,0,0,1,.016-.613.868.868,0,0,1,1.127-.49,1.77,1.77,0,0,1,.684.654,1.587,1.587,0,0,1,.294.919.884.884,0,0,1-.315.688.166.166,0,0,0-.065.131.225.225,0,0,0,.027.1l.084.129a.149.149,0,0,0,.11.078.168.168,0,0,0,.108-.025,1.124,1.124,0,0,0,.321-.353,1.534,1.534,0,0,0,.186-.527,1.711,1.711,0,0,0-.031-.654,2.382,2.382,0,0,0-.329-.737,2.308,2.308,0,0,0-.684-.715,1.446,1.446,0,0,0-.749-.239,1.25,1.25,0,0,0-.709.2,1.164,1.164,0,0,0-.6,1.2,5.79,5.79,0,0,0,.182.962c.106.392.184.719.235.982a1.6,1.6,0,0,1,.014.649.688.688,0,0,1-.321.423.888.888,0,0,1-.817.11,1.779,1.779,0,0,1-.831-.78A2.022,2.022,0,0,1,192.916,51.089Z" transform="translate(-153.126 -38.265)" fill="#fff" stroke="#fff" stroke-width="0.5"/>
        <path id="Trazado_8" data-name="Trazado 8" d="M211.131,80.095,206.5,81.3a.157.157,0,0,0-.121.2l.035.135a.172.172,0,0,0,.086.129.167.167,0,0,0,.131.014l4.632-1.2.382,1.477a.178.178,0,0,0,.08.116.167.167,0,0,0,.131.014l.112-.029a.178.178,0,0,0,.116-.08.175.175,0,0,0,.012-.139l-.9-3.441a.161.161,0,0,0-.076-.108.176.176,0,0,0-.139-.012l-.112.029a.165.165,0,0,0-.108.076.172.172,0,0,0-.014.133Z" transform="translate(-164.23 -62.359)" fill="#fff" stroke="#fff" stroke-width="0.5"/>
        <path id="Trazado_9" data-name="Trazado 9" d="M214.347,112.345a.262.262,0,0,0-.112-.086l-4.93-2.191a.232.232,0,0,0-.086-.018.151.151,0,0,0-.11.041.147.147,0,0,0-.051.106v.155a.155.155,0,0,0,.039.12.169.169,0,0,0,.069.055l1.215.537-.127,2.737-1.26.423a.259.259,0,0,0-.076.049.147.147,0,0,0-.049.114v.155a.157.157,0,0,0,.147.161.272.272,0,0,0,.086-.01l5.106-1.724a.271.271,0,0,0,.12-.076.245.245,0,0,0,.045-.141l.012-.263A.235.235,0,0,0,214.347,112.345Zm-3.625,1.293.11-2.367,2.992,1.325Z" transform="translate(-166.219 -87.572)" fill="#fff" stroke="#fff" stroke-width="0.5"/>
        <path id="Trazado_10" data-name="Trazado 10" d="M206.674,146.137a1.24,1.24,0,0,0-.578-.459,1.17,1.17,0,0,0-1.332.2,5.665,5.665,0,0,0-.68.7q-.39.47-.668.756a1.581,1.581,0,0,1-.523.386.688.688,0,0,1-.531-.018.884.884,0,0,1-.556-.6,1.779,1.779,0,0,1,.159-1.129,2,2,0,0,1,.439-.709,1.226,1.226,0,0,1,.511-.31.913.913,0,0,1,.472-.018.2.2,0,0,0,.118,0,.159.159,0,0,0,.088-.094l.057-.145a.155.155,0,0,0,0-.125.153.153,0,0,0-.084-.084,1.225,1.225,0,0,0-.717-.022,1.683,1.683,0,0,0-.733.427,2.561,2.561,0,0,0-.584.913,2.752,2.752,0,0,0-.227,1.021,1.479,1.479,0,0,0,.216.817,1.338,1.338,0,0,0,.654.519,1.2,1.2,0,0,0,.713.088,1.45,1.45,0,0,0,.631-.355,7.1,7.1,0,0,0,.7-.752q.37-.441.641-.709a1.33,1.33,0,0,1,.515-.343.866.866,0,0,1,1.048.639,1.775,1.775,0,0,1-.143.954,1.6,1.6,0,0,1-.582.77.888.888,0,0,1-.745.137.157.157,0,0,0-.141.022.228.228,0,0,0-.065.078l-.059.145a.143.143,0,0,0,0,.133.171.171,0,0,0,.082.076,1.144,1.144,0,0,0,.474.057,1.493,1.493,0,0,0,.537-.151,1.71,1.71,0,0,0,.517-.408,2.347,2.347,0,0,0,.408-.692,2.314,2.314,0,0,0,.192-.972A1.43,1.43,0,0,0,206.674,146.137Z" transform="translate(-160.2 -114.931)" fill="#fff" stroke="#fff" stroke-width="0.5"/>
        <path id="Trazado_11" data-name="Trazado 11" d="M154.214,195.7a.182.182,0,0,0-.1-.09.176.176,0,0,0-.131.014l-2.753,1.385a.186.186,0,0,0-.1.1.18.18,0,0,0,.014.133l.053.1a.182.182,0,0,0,.1.1.172.172,0,0,0,.139-.018l2.469-1.242.921,1.838-2.261,1.136a.169.169,0,0,0-.1.1.166.166,0,0,0,.012.131l.053.1a.176.176,0,0,0,.1.1.18.18,0,0,0,.139-.016l2.263-1.138.886,1.764-2.414,1.2a.159.159,0,0,0-.084.233l.053.1a.159.159,0,0,0,.239.08l2.69-1.35a.159.159,0,0,0,.071-.235Z" transform="translate(-120.269 -155.658)" fill="#fff" stroke="#fff" stroke-width="0.5"/>
        <path id="Trazado_12" data-name="Trazado 12" d="M123.573,206.812a.169.169,0,0,0-.129-.031l-.139.016a.174.174,0,0,0-.125.061.17.17,0,0,0-.031.129l.511,4.242-3.349-3.978-.057-.047a.141.141,0,0,0-.114-.025l-.169.02a.167.167,0,0,0-.118.063.184.184,0,0,0-.031.133l.613,5.028a.174.174,0,0,0,.061.125.184.184,0,0,0,.137.031l.139-.018a.17.17,0,0,0,.116-.059.186.186,0,0,0,.031-.137l-.513-4.25,3.359,3.993a.262.262,0,0,0,.053.049.155.155,0,0,0,.118.024l.161-.02a.167.167,0,0,0,.118-.061.182.182,0,0,0,.031-.135l-.613-5.036A.163.163,0,0,0,123.573,206.812Z" transform="translate(-95.355 -164.547)" fill="#fff" stroke="#fff" stroke-width="0.5"/>
        <path id="Trazado_13" data-name="Trazado 13" d="M46.505,191.354l-.178-.125a.278.278,0,0,0-.165-.059.27.27,0,0,0-.157.059l-4.352,3.041a.288.288,0,0,0-.061.061.145.145,0,0,0-.025.116.155.155,0,0,0,.061.1l.133.094a.155.155,0,0,0,.12.031.3.3,0,0,0,.086-.029l4.123-2.9-1.35,4.846a.182.182,0,0,0,0,.09.178.178,0,0,0,.074.1l.133.094a.147.147,0,0,0,.116.024.155.155,0,0,0,.1-.061.321.321,0,0,0,.037-.08l1.415-5.106a.323.323,0,0,0,0-.172A.267.267,0,0,0,46.505,191.354Z" transform="translate(-33.08 -152.126)" fill="#fff" stroke="#fff" stroke-width="0.5"/>
        <path id="Trazado_14" data-name="Trazado 14" d="M30.785,174.8a.171.171,0,0,0-.043-.127l-.094-.112a.161.161,0,0,0-.114-.067.17.17,0,0,0-.125.043l-3.923,3.217a.174.174,0,0,0-.067.114.168.168,0,0,0,.043.125l.094.114a.173.173,0,0,0,.114.067.163.163,0,0,0,.125-.043l3.925-3.225A.169.169,0,0,0,30.785,174.8Z" transform="translate(-21.028 -138.859)" fill="#fff" stroke="#fff" stroke-width="0.5"/>
        <path id="Trazado_15" data-name="Trazado 15" d="M11.988,153.406a.265.265,0,0,0-.022-.167l-.09-.2a.266.266,0,0,0-.11-.137.27.27,0,0,0-.165-.029l-5.289.4a.239.239,0,0,0-.084.02.147.147,0,0,0-.082.086.157.157,0,0,0,0,.118l.065.149a.153.153,0,0,0,.088.088.407.407,0,0,0,.088.02l5.018-.378-3.637,3.472a.165.165,0,0,0-.047.076.155.155,0,0,0,0,.127l.065.149a.157.157,0,0,0,.2.078.249.249,0,0,0,.071-.049l3.831-3.676a.3.3,0,0,0,.1-.141Z" transform="translate(-4.886 -121.645)" fill="#fff" stroke="#fff" stroke-width="0.5"/>
        <path id="Trazado_16" data-name="Trazado 16" d="M2.314,119.04c.231-.012.447-.027.647-.041l.649-.057a2.9,2.9,0,0,0,1.18-.355,1.548,1.548,0,0,0,.649-.739,2.4,2.4,0,0,0,.145-1.107,2.369,2.369,0,0,0-.312-1.07,1.546,1.546,0,0,0-.762-.637,2.751,2.751,0,0,0-1.225-.167c-.231,0-.447.018-.649.035s-.408.037-.647.063a2.6,2.6,0,0,0-1.154.366,1.673,1.673,0,0,0-.654.764A2.518,2.518,0,0,0,.344,118.2a1.656,1.656,0,0,0,.76.654A2.726,2.726,0,0,0,2.314,119.04ZM.723,117.892a1.838,1.838,0,0,1-.118-1.56,1.285,1.285,0,0,1,.511-.59,2.175,2.175,0,0,1,.962-.294q.346-.043.613-.061c.178-.012.38-.025.613-.031a1.812,1.812,0,0,1,1.34.359,1.685,1.685,0,0,1,.165,2.179,1.8,1.8,0,0,1-1.268.564l-.613.055-.613.039a2.261,2.261,0,0,1-1-.153,1.281,1.281,0,0,1-.594-.506Z" transform="translate(-0.024 -91.396)" fill="#fff" stroke="#fff" stroke-width="0.5"/>
        <path id="Trazado_17" data-name="Trazado 17" d="M4.708,67.489c.662.112,1.252,1.546,1.43,2.087a.188.188,0,0,0,.149.133h.035a.19.19,0,0,0,.155-.076c.509-.639,1.517-1.617,2.063-1.523a.2.2,0,0,0,.225-.159.192.192,0,0,0-.159-.223c-.635-.108-1.43.586-1.948,1.117a21.1,21.1,0,0,1,2.833-7.521.2.2,0,0,0-.331-.2,21.546,21.546,0,0,0-2.9,7.7c-.284-.658-.8-1.593-1.487-1.709a.2.2,0,0,0-.223.159.192.192,0,0,0,.159.223Z" transform="translate(-3.622 -48.596)" fill="#fff" stroke="#fff" stroke-width="0.5"/>
        <path id="Trazado_18" data-name="Trazado 18" d="M81.361,213.517c-.68-.449-1.742-1.368-1.7-1.922a.194.194,0,1,0-.386-.031c-.053.641.709,1.381,1.28,1.838a21.238,21.238,0,0,1-6.831-1.811.194.194,0,0,0-.159.353,21.609,21.609,0,0,0,7,1.838c-.633.341-1.521.937-1.579,1.634a.2.2,0,0,0,.178.2h.016a.192.192,0,0,0,.192-.178c.055-.668,1.43-1.381,1.956-1.6a.2.2,0,0,0,.118-.161A.192.192,0,0,0,81.361,213.517Z" transform="translate(-58.465 -168.203)" fill="#fff" stroke="#fff" stroke-width="0.5"/>
        <path id="Trazado_19" data-name="Trazado 19" d="M186.944,174.873c-.553-.382-.48-1.93-.408-2.494a.192.192,0,0,0-.278-.2c-.729.363-2.057.817-2.514.507a.194.194,0,1,0-.221.319c.547.378,1.62.057,2.3-.2a21.412,21.412,0,0,1-4.858,5.152.194.194,0,0,0,.118.347.19.19,0,0,0,.116-.039,21.852,21.852,0,0,0,4.9-5.171c-.016.717.069,1.724.623,2.108a.193.193,0,1,0,.216-.321Z" transform="translate(-143.956 -136.993)" fill="#fff" stroke="#fff" stroke-width="0.5"/>
      </g>
    </g>
    <rect id="Rect치ngulo_2596" data-name="Rect치ngulo 2596" width="17" height="2" transform="translate(-75.633 -62.68) rotate(-45)" fill="#fff"/>
    <rect id="Rect치ngulo_2597" data-name="Rect치ngulo 2597" width="17" height="2" transform="translate(-63.613 -61.265) rotate(-135)" fill="#fff"/>
  </g>
</svg>
