<svg id="Logo_tarotistas" xmlns="http://www.w3.org/2000/svg" xmlns:xlink="http://www.w3.org/1999/xlink" width="155" height="39.479" viewBox="0 0 155 39.479">
  <defs>
    <linearGradient id="linear-gradient" x1="-0.606" y1="-1.212" x2="1.292" y2="2.115" gradientUnits="objectBoundingBox">
      <stop offset="0.01" stop-color="#ff5d0c"/>
      <stop offset="1" stop-color="#ffff0c"/>
    </linearGradient>
    <linearGradient id="linear-gradient-2" x1="0.181" y1="0.094" x2="0.59" y2="0.863" gradientUnits="objectBoundingBox">
      <stop offset="0" stop-color="#ff5d0c"/>
      <stop offset="1" stop-color="#ffff0c"/>
    </linearGradient>
  </defs>
  <path id="Trazado_783" data-name="Trazado 783" d="M47.909,15.851a.126.126,0,0,1,.117.1.1.1,0,0,1,0,.156,7.951,7.951,0,0,1-1.738.986,4.657,4.657,0,0,1-1.608.285,3.554,3.554,0,0,1-2.322-.765,3.165,3.165,0,0,1-.921-2.594V7.77a2.244,2.244,0,0,0-.091-.778A.519.519,0,0,0,41,6.667a2.594,2.594,0,0,0-.83-.091s-.065,0-.065-.195,0-.169.065-.169a3.126,3.126,0,0,0,1.816-.506,1.959,1.959,0,0,0,.843-1.3h.3a.068.068,0,0,1,.065.078V6.161c.882,0,2.283-.091,4.19-.221,0,0,.091,0,.13.156a1.6,1.6,0,0,1,0,.376,1.466,1.466,0,0,1-.078.467c0,.156-.1.221-.156.208a18.757,18.757,0,0,0-4.125-.48v6.706a3.891,3.891,0,0,0,.6,2.361,2.192,2.192,0,0,0,1.855.778,3.891,3.891,0,0,0,2.244-.649Z" transform="translate(11.932 1.31)" fill="#5d5d5d"/>
  <path id="Trazado_784" data-name="Trazado 784" d="M57.721,15.456a.143.143,0,0,1,.13.1.117.117,0,0,1-.065.156l-2.594,1.3H55.01a1.116,1.116,0,0,1-.8-.428,2.361,2.361,0,0,1-.545-1.3l-1.531.9a8.47,8.47,0,0,1-1.3.636A3.4,3.4,0,0,1,49.769,17a2.14,2.14,0,0,1-1.466-.506,1.57,1.57,0,0,1-.571-1.206,1.894,1.894,0,0,1,.558-1.4,5.435,5.435,0,0,1,1.959-1.064l3.424-1.3V8.776a4.67,4.67,0,0,0-.389-2.192,1.3,1.3,0,0,0-1.3-.662,1.66,1.66,0,0,0-1.466.687,4.864,4.864,0,0,0-.752,1.777Q49.5,9.438,48.68,9.438a1.09,1.09,0,0,1-.739-.259.817.817,0,0,1-.259-.675,1.959,1.959,0,0,1,.869-1.3,7.783,7.783,0,0,1,2.114-1.3,5.811,5.811,0,0,1,2.27-.519,2.361,2.361,0,0,1,1.751.662,2.685,2.685,0,0,1,.662,1.972v5.707a2.724,2.724,0,0,0,.4,1.531,1.09,1.09,0,0,0,.908.428,2.789,2.789,0,0,0,1.038-.259Zm-4.034-.545a2.465,2.465,0,0,1,0-.389V11.928l-2.465.947a2.594,2.594,0,0,0-1.129.726,1.544,1.544,0,0,0-.337,1,1.453,1.453,0,0,0,.376,1,1.167,1.167,0,0,0,.9.415,3.178,3.178,0,0,0,1.206-.363Z" transform="translate(14.184 1.601)" fill="#5d5d5d"/>
  <path id="Trazado_785" data-name="Trazado 785" d="M68.9,16.32a5.6,5.6,0,0,1-2.049-2.14,5.941,5.941,0,0,1-.726-2.919,5.344,5.344,0,0,1,.96-3.2,6.174,6.174,0,0,1,2.452-2.05,7.16,7.16,0,0,1,3.061-.687,5.461,5.461,0,0,1,2.97.882,5.539,5.539,0,0,1,1.985,2.153,5.746,5.746,0,0,1,.7,2.75,5.565,5.565,0,0,1-.869,3.009,6.408,6.408,0,0,1-5.487,3.061,5.682,5.682,0,0,1-3-.856Zm6.317-1.038a5.785,5.785,0,0,0,1.025-3.658,7.782,7.782,0,0,0-.532-2.906,4.812,4.812,0,0,0-1.531-2.1,3.891,3.891,0,0,0-2.4-.778,3.217,3.217,0,0,0-2.711,1.3,5.708,5.708,0,0,0-.96,3.528,7.977,7.977,0,0,0,.558,3.048,5.188,5.188,0,0,0,1.544,2.153,3.541,3.541,0,0,0,2.244.713,3.256,3.256,0,0,0,2.763-1.3Z" transform="translate(19.662 1.581)" fill="#5d5d5d"/>
  <path id="Trazado_786" data-name="Trazado 786" d="M84.649,15.851a.147.147,0,0,1,.13.1.13.13,0,0,1,0,.156,8.263,8.263,0,0,1-1.738.986,4.787,4.787,0,0,1-1.621.285,3.515,3.515,0,0,1-2.309-.765,3.126,3.126,0,0,1-.934-2.594V7.77a2.244,2.244,0,0,0-.091-.778.519.519,0,0,0-.35-.324,2.594,2.594,0,0,0-.83-.091s-.065,0-.065-.195,0-.169.065-.169a3.126,3.126,0,0,0,1.816-.506,1.972,1.972,0,0,0,.856-1.3h.3V6.161c.882,0,2.283-.091,4.2-.221q.078,0,.117.156a1.544,1.544,0,0,1,0,.376,1.193,1.193,0,0,1-.091.467c0,.156-.1.221-.156.208a18.575,18.575,0,0,0-4.125-.48v6.706a3.892,3.892,0,0,0,.61,2.361,2.166,2.166,0,0,0,1.842.778,3.891,3.891,0,0,0,2.257-.649Z" transform="translate(22.848 1.31)" fill="#5d5d5d"/>
  <path id="Trazado_787" data-name="Trazado 787" d="M87.725,15.878a.7.7,0,0,0,.467.467,3.891,3.891,0,0,0,1.116.117s.078,0,.078.156,0,.143-.078.143H84.08v-.3a3.892,3.892,0,0,0,1.129-.117.739.739,0,0,0,.493-.467,3.126,3.126,0,0,0,.13-1.064V7.434a3,3,0,0,0-.13-1.051.8.8,0,0,0-.428-.428,3.411,3.411,0,0,0-1.129-.13V5.54h5.228s.078,0,.078.143,0,.143-.078.143a3.191,3.191,0,0,0-1.09.143.817.817,0,0,0-.48.493,3.126,3.126,0,0,0-.13,1.064v7.29A3.58,3.58,0,0,0,87.725,15.878Z" transform="translate(25 1.646)" fill="#5d5d5d"/>
  <path id="Trazado_788" data-name="Trazado 788" d="M92.108,8.719a3.165,3.165,0,0,0,.9.869,16.555,16.555,0,0,0,1.492.856,16.548,16.548,0,0,1,1.583.908,3.71,3.71,0,0,1,1.038,1.025,2.594,2.594,0,0,1,.415,1.453,2.944,2.944,0,0,1-.506,1.66,3.593,3.593,0,0,1-1.453,1.193,5.189,5.189,0,0,1-2.166.428,6.486,6.486,0,0,1-1.738-.233,4.2,4.2,0,0,1-1.375-.61.506.506,0,0,1-.195-.48L89.89,13.3q0-.1.117-.117a.143.143,0,0,1,.169,0,6.2,6.2,0,0,0,1.466,2.413,3.1,3.1,0,0,0,2.218,1.025,2.062,2.062,0,0,0,1.362-.415,1.764,1.764,0,0,0,.571-1.44,2.491,2.491,0,0,0-.376-1.3,3.606,3.606,0,0,0-.96-.973,17.007,17.007,0,0,0-1.492-.908,17.1,17.1,0,0,1-1.5-.9,3.516,3.516,0,0,1-.973-.986,2.322,2.322,0,0,1-.4-1.375A2.594,2.594,0,0,1,91.2,6.163a4.631,4.631,0,0,1,2.724-.843,6.252,6.252,0,0,1,2.594.545.739.739,0,0,1,.272.182.752.752,0,0,1,.091.246l.091,2.14a.121.121,0,0,1-.117.117.615.615,0,0,1-.169,0,3.567,3.567,0,0,0-.545-1.167A3.762,3.762,0,0,0,95,6.2a2.594,2.594,0,0,0-1.518-.467,1.7,1.7,0,0,0-1.3.48,1.764,1.764,0,0,0-.441,1.3,2.088,2.088,0,0,0,.363,1.206Z" transform="translate(26.727 1.581)" fill="#5d5d5d"/>
  <path id="Trazado_789" data-name="Trazado 789" d="M104.972,15.851s.078,0,.117.1,0,.117,0,.156a8.262,8.262,0,0,1-1.738.986,4.735,4.735,0,0,1-1.621.285,3.515,3.515,0,0,1-2.309-.765,3.126,3.126,0,0,1-.921-2.594V7.77a2.179,2.179,0,0,0-.1-.778.519.519,0,0,0-.337-.324,2.594,2.594,0,0,0-.83-.091s-.078,0-.078-.195,0-.169.078-.169a3.074,3.074,0,0,0,1.8-.506,1.933,1.933,0,0,0,.856-1.3h.3V6.161c.869,0,2.27-.091,4.19-.221q.078,0,.117.156a1.1,1.1,0,0,1,0,.376,1.466,1.466,0,0,1-.078.467c0,.156-.117.221-.156.208a18.757,18.757,0,0,0-4.125-.48v6.706a3.892,3.892,0,0,0,.6,2.361,2.179,2.179,0,0,0,1.842.778,3.891,3.891,0,0,0,2.257-.649Z" transform="translate(28.883 1.31)" fill="#5d5d5d"/>
  <path id="Trazado_790" data-name="Trazado 790" d="M114.749,15.445a.13.13,0,0,1,.13.1V15.7L112.285,17h-.195a1.129,1.129,0,0,1-.8-.428,2.452,2.452,0,0,1-.532-1.3l-1.544.9a8.418,8.418,0,0,1-1.3.636,3.463,3.463,0,0,1-1.064.182,2.114,2.114,0,0,1-1.466-.506,1.544,1.544,0,0,1-.584-1.206,1.907,1.907,0,0,1,.571-1.4,5.435,5.435,0,0,1,1.959-1.064l3.424-1.3V8.764a4.488,4.488,0,0,0-.389-2.14,1.3,1.3,0,0,0-1.219-.662,1.7,1.7,0,0,0-1.479.687,5.356,5.356,0,0,0-.752,1.777c-.169.7-.532,1.051-1.077,1.051a1.064,1.064,0,0,1-.739-.259.817.817,0,0,1-.272-.675,1.985,1.985,0,0,1,.882-1.3,7.926,7.926,0,0,1,2.1-1.3,5.863,5.863,0,0,1,2.27-.519,2.374,2.374,0,0,1,1.764.662,2.685,2.685,0,0,1,.662,1.972v5.707a2.594,2.594,0,0,0,.337,1.479,1.077,1.077,0,0,0,.908.428,2.737,2.737,0,0,0,1.025-.259Zm-4.021-.545a1.493,1.493,0,0,1,0-.389V11.916l-2.465.947a2.594,2.594,0,0,0-1.129.726,1.479,1.479,0,0,0-.337,1,1.44,1.44,0,0,0,.363,1,1.219,1.219,0,0,0,.908.415,3.074,3.074,0,0,0,1.193-.363Z" transform="translate(31.156 1.613)" fill="#5d5d5d"/>
  <path id="Trazado_791" data-name="Trazado 791" d="M115.8,8.719a3.166,3.166,0,0,0,.9.869c.363.233.856.519,1.492.856a15.448,15.448,0,0,1,1.6.908,3.671,3.671,0,0,1,1.025,1.025,2.464,2.464,0,0,1,.428,1.453,2.854,2.854,0,0,1-.519,1.66,3.515,3.515,0,0,1-1.453,1.193,5.1,5.1,0,0,1-2.153.428,6.317,6.317,0,0,1-1.738-.233,4.086,4.086,0,0,1-1.375-.61.506.506,0,0,1-.195-.48L113.58,13.3q0-.1.117-.117h.169a6.382,6.382,0,0,0,1.479,2.413,3.061,3.061,0,0,0,2.218,1.025,2.011,2.011,0,0,0,1.3-.48,1.738,1.738,0,0,0,.584-1.44,2.4,2.4,0,0,0-.389-1.3,3.424,3.424,0,0,0-.96-.973,16.551,16.551,0,0,0-1.479-.908q-.934-.506-1.518-.9a3.891,3.891,0,0,1-.973-.986,2.413,2.413,0,0,1-.389-1.375A2.516,2.516,0,0,1,114.851,6.1a4.566,4.566,0,0,1,2.7-.778,6.148,6.148,0,0,1,2.594.545.713.713,0,0,1,.285.182.558.558,0,0,1,.078.246l.1,2.14s0,.1-.13.117a.156.156,0,0,1-.169,0,3.787,3.787,0,0,0-.532-1.167,3.891,3.891,0,0,0-1.1-1.116,2.594,2.594,0,0,0-1.531-.467,1.647,1.647,0,0,0-1.3.48,1.764,1.764,0,0,0-.428,1.219,2.075,2.075,0,0,0,.376,1.219Z" transform="translate(33.766 1.58)" fill="#5d5d5d"/>
  <path id="Trazado_792" data-name="Trazado 792" d="M63.856,19.831v.143a1.764,1.764,0,0,0-1.206.454,3.606,3.606,0,0,0-.9,1.44L58.2,30.948c0,.065-.1.1-.259.1s-.246,0-.272-.1l-4.384-9.21a5.085,5.085,0,0,0-.843-1.3,1.3,1.3,0,0,0-.973-.35s-.078,0-.078-.143,0-.143.078-.143h4.761v.285c-.83,0-1.3.246-1.3.739a1.609,1.609,0,0,0,.195.726l3.437,7.186,2.594-6.9a2.076,2.076,0,0,0,.169-.791c0-.636-.519-.96-1.557-.96,0,0-.078,0-.078-.143s0-.143.078-.143h4S63.856,19.74,63.856,19.831Z" transform="translate(15.285 5.879)" fill="#5d5d5d"/>
  <path id="Trazado_793" data-name="Trazado 793" d="M65.385,30.057a.752.752,0,0,0,.467.48,3.749,3.749,0,0,0,1.116.117v.285H61.74v-.285a3.891,3.891,0,0,0,1.116-.117.752.752,0,0,0,.493-.48,3.022,3.022,0,0,0,.143-1.064V21.665a3.074,3.074,0,0,0-.143-1.064.765.765,0,0,0-.493-.506,3.775,3.775,0,0,0-1.116-.13V19.68h5.228v.285a3.217,3.217,0,0,0-1.1.143.9.9,0,0,0-.48.493,3.5,3.5,0,0,0-.13,1.064v7.29a3.074,3.074,0,0,0,.13,1.1Z" transform="translate(18.361 5.848)" fill="#5d5d5d"/>
  <path id="Trazado_794" data-name="Trazado 794" d="M79.058,19.841v.143a1.79,1.79,0,0,0-1.206.454,3.606,3.606,0,0,0-.9,1.44L73.4,30.957c0,.065-.1.1-.259.1s-.246,0-.272-.1l-4.436-9.275a4.774,4.774,0,0,0-.843-1.3,1.3,1.3,0,0,0-.973-.35s-.078,0-.078-.143,0-.143.078-.143h4.761v.285q-1.3,0-1.3.739a1.582,1.582,0,0,0,.182.726L73.7,28.687l2.594-6.9A2.075,2.075,0,0,0,76.463,21c0-.636-.519-.96-1.557-.96,0,0-.078,0-.078-.143s0-.143.078-.143h4S79.058,19.75,79.058,19.841Z" transform="translate(19.787 5.869)" fill="#5d5d5d"/>
  <path id="Trazado_795" data-name="Trazado 795" d="M79.636,30.535a5.474,5.474,0,0,1-2.049-2.127,5.993,5.993,0,0,1-.726-2.932,5.435,5.435,0,0,1,.947-3.2,6.291,6.291,0,0,1,2.465-2.114,7.3,7.3,0,0,1,3.061-.687,5.37,5.37,0,0,1,2.97.83,5.617,5.617,0,0,1,1.985,2.14,5.824,5.824,0,0,1,.7,2.763,5.552,5.552,0,0,1-.869,3,6.408,6.408,0,0,1-5.487,3.061A5.681,5.681,0,0,1,79.636,30.535Zm6.317-1.025a5.915,5.915,0,0,0,1.025-3.671,7.782,7.782,0,0,0-.532-2.906,4.877,4.877,0,0,0-1.531-2.088,3.762,3.762,0,0,0-2.4-.791,3.191,3.191,0,0,0-2.711,1.3,5.668,5.668,0,0,0-.96,3.515,8.171,8.171,0,0,0,.545,3.048,5.188,5.188,0,0,0,1.544,2.075,3.541,3.541,0,0,0,2.283.791,3.269,3.269,0,0,0,2.737-1.31Z" transform="translate(22.854 5.785)" fill="#5d5d5d"/>
  <path id="Trazado_796" data-name="Trazado 796" d="M44.654,25.371a.117.117,0,0,1,.078,0,.078.078,0,0,1,0,.078,3.035,3.035,0,0,1-1.959.713,2.957,2.957,0,0,1-1.621-.428,2.7,2.7,0,0,1-1.025-1.1,3.347,3.347,0,0,1-.337-1.479,3.2,3.2,0,0,1,1.57-2.711A2.906,2.906,0,0,1,42.929,20a1.816,1.816,0,0,1,1.375.493,1.738,1.738,0,0,1,.48,1.3.661.661,0,0,1,0,.208H41.009a4.578,4.578,0,0,0,0,.623,3.632,3.632,0,0,0,.623,2.218,2.062,2.062,0,0,0,1.764.843,3.113,3.113,0,0,0,.675-.091,2.387,2.387,0,0,0,.61-.285ZM41.58,20.7a2.192,2.192,0,0,0-.532,1.129h2.594a1.868,1.868,0,0,0-.272-1.1.882.882,0,0,0-.791-.389,1.3,1.3,0,0,0-1,.363Z" transform="translate(11.84 5.942)" fill="#5d5d5d"/>
  <path id="Trazado_797" data-name="Trazado 797" d="M51.1,25.988v.078H48.651v-.143a1.116,1.116,0,0,0,.48-.078.441.441,0,0,0,.221-.259,2.114,2.114,0,0,0,0-.571V22.5a2.594,2.594,0,0,0-.376-1.647,1.3,1.3,0,0,0-1.038-.454,1.933,1.933,0,0,0-.973.246,3.1,3.1,0,0,0-.9.83v3.541a2.115,2.115,0,0,0,0,.571.415.415,0,0,0,.208.259,1.09,1.09,0,0,0,.467.078v.143H44.15v-.143a1.154,1.154,0,0,0,.48-.078.376.376,0,0,0,.221-.246,1.855,1.855,0,0,0,0-.558V21.15a2.7,2.7,0,0,0,0-.558.415.415,0,0,0-.221-.246,1.3,1.3,0,0,0-.467-.065v-.156h1.6a.311.311,0,0,1,.195,0,.389.389,0,0,1,0,.208v.713A3.541,3.541,0,0,1,47.03,20.2a2.815,2.815,0,0,1,1.3-.272,2.179,2.179,0,0,1,1.479.506,2.114,2.114,0,0,1,.636,1.738v2.867a3.061,3.061,0,0,0,0,.571.441.441,0,0,0,.169.246.9.9,0,0,0,.376.065S51.1,25.936,51.1,25.988Z" transform="translate(13.135 5.922)" fill="#5d5d5d"/>
  <path id="Trazado_798" data-name="Trazado 798" d="M60.39,10.044c2.958,5.189,4.112,6.2,7.16,8.419,3.5,2.594,10.377,1.129,11.22.091.156-.195-.182-.272-.182-.272a12.206,12.206,0,0,1-8.432-.519c-4.709-1.894-8.146-8.3-8.146-8.3Z" transform="translate(17.961 2.811)" fill="#5d5d5d"/>
  <path id="Trazado_799" data-name="Trazado 799" d="M60.335,16.368a.713.713,0,0,1-.454-.454,3.567,3.567,0,0,1-.117-1.077V11.426a6.018,6.018,0,0,0,.765,0h.8a7.082,7.082,0,0,0,1.777-.571,4.034,4.034,0,0,0,1.453-1.3,2.983,2.983,0,0,0,.571-1.764,1.972,1.972,0,0,0-.882-1.725,4.553,4.553,0,0,0-2.529-.6,13.647,13.647,0,0,0-1.414.078h-.636a8.2,8.2,0,0,1-.83,0H56.288s-.078,0-.078.143,0,.143.078.143a3.126,3.126,0,0,1,1.064.13.817.817,0,0,1,.48.467,3,3,0,0,1,.13,1.051v7.342a3.126,3.126,0,0,1-.13,1.064.752.752,0,0,1-.48.467,3.892,3.892,0,0,1-1.116.117v.3h5.2s.078,0,.078-.143,0-.156-.078-.156A3.7,3.7,0,0,1,60.335,16.368Zm-.506-8.821a2.361,2.361,0,0,1,.259-1.3,1.3,1.3,0,0,1,1.038-.376c1.427,0,2.127.856,2.127,2.594a2.828,2.828,0,0,1-.558,1.92,2.594,2.594,0,0,1-2,.649,8.419,8.419,0,0,1-.934,0Z" transform="translate(16.719 1.624)" fill="#5d5d5d"/>
  <path id="Trazado_800" data-name="Trazado 800" d="M26.985,10.786,19.02,6.35l.143,9.119Z" transform="translate(5.668 1.887)" fill="url(#linear-gradient)"/>
  <path id="Trazado_801" data-name="Trazado 801" d="M29.838,32.221A20.378,20.378,0,0,1,13.26,0,20.378,20.378,0,1,0,36.972,30.911,20.365,20.365,0,0,1,29.838,32.221Z" transform="translate(0.012)" fill="url(#linear-gradient-2)"/>
</svg>
