<svg xmlns="http://www.w3.org/2000/svg" width="460.154" height="740.19" viewBox="0 0 460.154 740.19">
  <g id="Layer_2" data-name="Layer 2" transform="translate(0 34.859) rotate(-5)">
    <g id="Capa_1" data-name="Capa 1">
      <rect id="Rectángulo_2571" data-name="Rectángulo 2571" width="399.968" height="708.025" rx="16" fill="#161616"/>
      <rect id="Rectángulo_2572" data-name="Rectángulo 2572" width="347.55" height="655.607" rx="16" transform="translate(26.209 26.209)" fill="none" stroke="#efefef" stroke-linecap="round" stroke-linejoin="round" stroke-width="2"/>
      <line id="Línea_32" data-name="Línea 32" y2="306.359" transform="translate(199.88 257.9)" fill="none" stroke="#efefef" stroke-linecap="round" stroke-linejoin="round" stroke-width="2"/>
      <line id="Línea_33" data-name="Línea 33" x2="75.23" y2="426.652" transform="translate(232.92 254.973)" fill="none" stroke="#efefef" stroke-linecap="round" stroke-linejoin="round" stroke-width="2"/>
      <line id="Línea_34" data-name="Línea 34" x2="108.799" y2="298.928" transform="translate(264.949 246.346)" fill="none" stroke="#efefef" stroke-linecap="round" stroke-linejoin="round" stroke-width="2"/>
      <line id="Línea_35" data-name="Línea 35" x2="78.714" y2="136.329" transform="translate(294.991 232.297)" fill="none" stroke="#efefef" stroke-linecap="round" stroke-linejoin="round" stroke-width="2"/>
      <line id="Línea_36" data-name="Línea 36" x2="51.544" y2="61.432" transform="translate(322.144 213.236)" fill="none" stroke="#efefef" stroke-linecap="round" stroke-linejoin="round" stroke-width="2"/>
      <line id="Línea_37" data-name="Línea 37" x2="27.978" y2="23.473" transform="translate(345.568 189.757)" fill="none" stroke="#efefef" stroke-linecap="round" stroke-linejoin="round" stroke-width="2"/>
      <line id="Línea_38" data-name="Línea 38" x2="9.026" y2="5.209" transform="translate(364.564 162.565)" fill="none" stroke="#efefef" stroke-linecap="round" stroke-linejoin="round" stroke-width="2"/>
      <line id="Línea_39" data-name="Línea 39" x1="8.703" y2="5.023" transform="translate(26.269 162.948)" fill="none" stroke="#efefef" stroke-linecap="round" stroke-linejoin="round" stroke-width="2"/>
      <line id="Línea_40" data-name="Línea 40" x1="27.727" y2="23.271" transform="translate(26.302 190.096)" fill="none" stroke="#efefef" stroke-linecap="round" stroke-linejoin="round" stroke-width="2"/>
      <line id="Línea_41" data-name="Línea 41" x1="51.189" y2="61.006" transform="translate(26.323 213.525)" fill="none" stroke="#efefef" stroke-linecap="round" stroke-linejoin="round" stroke-width="2"/>
      <line id="Línea_42" data-name="Línea 42" x1="78.479" y2="135.936" transform="translate(26.225 232.516)" fill="none" stroke="#efefef" stroke-linecap="round" stroke-linejoin="round" stroke-width="2"/>
      <line id="Línea_43" data-name="Línea 43" x1="108.504" y2="298.114" transform="translate(26.28 246.499)" fill="none" stroke="#efefef" stroke-linecap="round" stroke-linejoin="round" stroke-width="2"/>
      <line id="Línea_44" data-name="Línea 44" x1="75.181" y2="426.351" transform="translate(91.654 255.05)" fill="none" stroke="#efefef" stroke-linecap="round" stroke-linejoin="round" stroke-width="2"/>
      <ellipse id="Elipse_96" data-name="Elipse 96" cx="17.473" cy="17.473" rx="17.473" ry="17.473" transform="translate(43.567 43.665)" fill="#efefef"/>
      <ellipse id="Elipse_97" data-name="Elipse 97" cx="17.473" cy="17.473" rx="17.473" ry="17.473" transform="translate(43.567 629.415)" fill="#efefef"/>
      <ellipse id="Elipse_98" data-name="Elipse 98" cx="6.929" cy="6.929" rx="6.929" ry="6.929" transform="translate(54.11 639.959)" fill="#161616"/>
      <ellipse id="Elipse_99" data-name="Elipse 99" cx="17.473" cy="17.473" rx="17.473" ry="17.473" transform="translate(321.26 629.415)" fill="#efefef"/>
      <path id="Trazado_933" data-name="Trazado 933" d="M102,209.753s46.886-75.263,144.356-75.263,143.739,75.263,143.739,75.263-38.865,74.624-140.037,77.114S102,209.753,102,209.753Z" transform="translate(-46.306 -61.056)" fill="#f2f2f2"/>
      <ellipse id="Elipse_100" data-name="Elipse 100" cx="65.156" cy="65.156" rx="65.156" ry="65.156" transform="translate(134.506 499.103)" fill="#efefef"/>
      <path id="Trazado_934" data-name="Trazado 934" d="M331.8,999.419a40.864,40.864,0,0,1,20.443-35.409,40.88,40.88,0,1,0,0,70.818A40.853,40.853,0,0,1,331.8,999.419Z" transform="translate(-132.079 -435.16)" fill="#161616"/>
      <ellipse id="Elipse_101" data-name="Elipse 101" cx="65.156" cy="65.156" rx="65.156" ry="65.156" transform="translate(134.729 169.844)" fill="#3e0cf2"/>
      <path id="Trazado_935" data-name="Trazado 935" d="M328.074,363.475l4.368-7.945,4.368,7.945a71.85,71.85,0,0,0,28.584,28.584l7.945,4.368-7.945,4.368a71.85,71.85,0,0,0-28.584,28.584l-4.368,7.945-4.368-7.945a71.85,71.85,0,0,0-28.584-28.584l-7.95-4.368,7.95-4.368A71.85,71.85,0,0,0,328.074,363.475Z" transform="translate(-132.354 -161.405)" fill="#161616"/>
      <ellipse id="Elipse_102" data-name="Elipse 102" cx="9.14" cy="9.14" rx="9.14" ry="9.14" transform="translate(190.926 225.86)" fill="#efefef"/>
      <path id="Trazado_936" data-name="Trazado 936" d="M374.9,215.95a65.156,65.156,0,1,1-126.719.835l36.518-14.125,42.2.453Z" transform="translate(-111.897 -92.004)" fill="#ffba0d"/>
      <path id="Trazado_937" data-name="Trazado 937" d="M372.859,219.359l-7.994-4.368a71.848,71.848,0,0,1-8.813-5.695,72.308,72.308,0,0,1,2.184-10.26L360.8,190.3l-8.736,2.561a72.416,72.416,0,0,1-10.254,2.184,72.321,72.321,0,0,1-5.651-8.8l-4.368-7.988-4.368,7.988a72.937,72.937,0,0,1-5.722,8.8,72.327,72.327,0,0,1-10.26-2.184L302.7,190.3l2.561,8.736a72.3,72.3,0,0,1,2.184,10.26,71.844,71.844,0,0,1-8.813,5.695l-7.994,4.368,7.994,4.368a71.841,71.841,0,0,1,8.829,5.717,72.3,72.3,0,0,1-2.184,10.26l-2.561,8.736,8.736-2.561A72.323,72.323,0,0,1,321.7,243.64a72.935,72.935,0,0,1,5.69,8.818l4.368,7.988,4.368-7.988a72.322,72.322,0,0,1,5.7-8.818,72.418,72.418,0,0,1,10.254,2.211l8.736,2.561-2.561-8.736a72.307,72.307,0,0,1-2.184-10.26,71.841,71.841,0,0,1,8.813-5.695Z" transform="translate(-131.946 -80.927)" fill="#161616"/>
      <ellipse id="Elipse_103" data-name="Elipse 103" cx="9.14" cy="9.14" rx="9.14" ry="9.14" transform="translate(190.674 129.291)" fill="#efefef"/>
      <path id="Trazado_938" data-name="Trazado 938" d="M97.45,207.683s155.069-60.247,293.063-.06c0,0-41.5-82-154.364-79.172C143.861,130.777,97.45,207.683,97.45,207.683Z" transform="translate(-44.241 -58.282)" fill="#161616"/>
      <ellipse id="Elipse_104" data-name="Elipse 104" cx="65.156" cy="65.156" rx="65.156" ry="65.156" transform="translate(134.506 316.99)" fill="#ffff0c"/>
      <ellipse id="Elipse_105" data-name="Elipse 105" cx="40.88" cy="40.88" rx="40.88" ry="40.88" transform="translate(158.782 341.266)" fill="#161616"/>
      <ellipse id="Elipse_106" data-name="Elipse 106" cx="9.14" cy="9.14" rx="9.14" ry="9.14" transform="translate(190.707 373.006)" fill="#efefef"/>
      <path id="Trazado_939" data-name="Trazado 939" d="M111.6,101.35l-12.99,3.484,9.506,9.506Z" transform="translate(-44.767 -46.011)" fill="#161616"/>
      <path id="Trazado_940" data-name="Trazado 940" d="M622.045,1176.655l-1.895-1.032a17.08,17.08,0,0,1-2.091-1.354,16.9,16.9,0,0,1,.546-2.43l.606-2.075-2.075.606a16.934,16.934,0,0,1-2.43.546,17.083,17.083,0,0,1-1.349-2.091l-1.037-1.895-1.037,1.895a17.091,17.091,0,0,1-1.349,2.091,16.82,16.82,0,0,1-2.435-.546l-2.075-.606.606,2.075a16.91,16.91,0,0,1,.546,2.43,17.062,17.062,0,0,1-2.091,1.354l-1.895,1.032,1.895,1.037a17.082,17.082,0,0,1,2.091,1.354,16.9,16.9,0,0,1-.546,2.43l-.606,2.075,2.075-.606a16.851,16.851,0,0,1,2.435-.546,17.068,17.068,0,0,1,1.349,2.091l1.037,1.895,1.037-1.895a17.093,17.093,0,0,1,1.349-2.091,16.951,16.951,0,0,1,2.43.546l2.075.606-.606-2.075a16.918,16.918,0,0,1-.546-2.43,17.093,17.093,0,0,1,2.091-1.354Z" transform="translate(-273.566 -529.767)" fill="#161616"/>
      <ellipse id="Elipse_107" data-name="Elipse 107" cx="17.473" cy="17.473" rx="17.473" ry="17.473" transform="translate(321.26 43.665)" fill="#efefef"/>
      <path id="Trazado_941" data-name="Trazado 941" d="M614.464,106.071a6.8,6.8,0,0,1,3.4-5.892,6.8,6.8,0,1,0,0,11.778,6.787,6.787,0,0,1-3.4-5.886Z" transform="translate(-275.863 -45.064)" fill="#161616"/>
    </g>
  </g>
</svg>
