<svg xmlns="http://www.w3.org/2000/svg" xmlns:xlink="http://www.w3.org/1999/xlink" width="460.154" height="740.19" viewBox="0 0 460.154 740.19">
  <defs>
    <clipPath id="clip-path">
      <path id="Trazado_1034" data-name="Trazado 1034" d="M221.775,48h0A173.775,173.775,0,0,1,395.55,221.775V675.214H48V221.775A173.775,173.775,0,0,1,221.775,48Z" transform="translate(-48 -48)" fill="none"/>
    </clipPath>
    <linearGradient id="linear-gradient" x1="0.5" y1="0.379" x2="0.5" y2="1.013" gradientUnits="objectBoundingBox">
      <stop offset="0" stop-color="#fff"/>
      <stop offset="0.67" stop-color="#f6f6f6"/>
      <stop offset="1" stop-color="#efefef"/>
    </linearGradient>
    <radialGradient id="radial-gradient" cx="0.48" cy="0.83" r="0.859" gradientTransform="translate(0.061) scale(0.878 1)" gradientUnits="objectBoundingBox">
      <stop offset="0" stop-color="#f50"/>
      <stop offset="0.2" stop-color="#f65101"/>
      <stop offset="0.54" stop-color="#dc4705"/>
      <stop offset="0.97" stop-color="#b3370b"/>
      <stop offset="1" stop-color="#af360b"/>
    </radialGradient>
  </defs>
  <g id="Layer_2" data-name="Layer 2" transform="matrix(0.996, 0.087, -0.087, 0.996, 61.708, 0)">
    <g id="Capa_1" data-name="Capa 1" transform="translate(0 0)">
      <rect id="Rectángulo_2573" data-name="Rectángulo 2573" width="399.968" height="708.025" rx="16" fill="#efefef"/>
      <g id="Grupo_457" data-name="Grupo 457" transform="translate(26.209 26.209)" clip-path="url(#clip-path)">
        <path id="Trazado_942" data-name="Trazado 942" d="M627.833,1011.316l59.374-21.606-153.1-328.56-.246.087-.246-.087L380.646,989.437l-.126.273,59.374,21.606-.011.033.169.027.158.06.005-.027,61.891,10.909-.005.027h.169l.169.033v-.033h62.846v.033l.169-.033h.169l-.005-.027,61.891-10.909.005.027.158-.06.169-.027Z" transform="translate(-355.13 -373.672)" fill="url(#linear-gradient)"/>
        <path id="Trazado_943" data-name="Trazado 943" d="M642.408,983.443,508.159,791a157.391,157.391,0,0,1-22.3,11.21l98.862,210.309Z" transform="translate(-246.781 -385.31)" fill="#009b6f" stroke="#009b6f" stroke-miterlimit="10" stroke-width="1"/>
        <path id="Trazado_944" data-name="Trazado 944" d="M375.34,574.71l60.346,129.313a157.393,157.393,0,0,0,22.3-11.215Z" transform="translate(-196.607 -287.118)" fill="#efefef" stroke="#efefef" stroke-miterlimit="10" stroke-width="1"/>
        <path id="Trazado_945" data-name="Trazado 945" d="M700.141,916.742,547.316,763.83q-4.958,4.221-10.254,8.026-4.974,3.582-10.232,6.771L651.96,957.213Z" transform="translate(-265.381 -372.975)" fill="#3e0cf2" stroke="#3e0cf2" stroke-miterlimit="10" stroke-width="1"/>
        <path id="Trazado_946" data-name="Trazado 946" d="M478.547,677.973,375.35,574.71l82.711,118.06q5.247-3.194,10.232-6.771Q473.589,682.2,478.547,677.973Z" transform="translate(-196.612 -287.118)" fill="#161616" stroke="#161616" stroke-miterlimit="10" stroke-width="1"/>
        <path id="Trazado_947" data-name="Trazado 947" d="M757.82,853.243,582.581,730.46a158.94,158.94,0,0,1-18.111,18.166L717.355,901.445Z" transform="translate(-282.469 -357.826)" fill="#f50" stroke="#f50" stroke-miterlimit="10" stroke-width="1"/>
        <path id="Trazado_948" data-name="Trazado 948" d="M496.719,659.752,375.34,574.71l103.268,103.2a158.949,158.949,0,0,0,18.111-18.155Z" transform="translate(-196.607 -287.118)" fill="#ffba0d" stroke="#ffba0d" stroke-miterlimit="10" stroke-width="1"/>
        <path id="Trazado_949" data-name="Trazado 949" d="M804.505,780.866,612.9,691.45a158.23,158.23,0,0,1-15.157,21.235l175.3,122.668Z" transform="translate(-297.573 -340.116)" fill="#161616" stroke="#161616" stroke-miterlimit="10" stroke-width="1"/>
        <path id="Trazado_950" data-name="Trazado 950" d="M375.34,574.71l121.434,84.977a158.223,158.223,0,0,0,15.157-21.235Z" transform="translate(-196.607 -287.118)" fill="#b47bff" stroke="#b47bff" stroke-miterlimit="10" stroke-width="1"/>
        <path id="Trazado_951" data-name="Trazado 951" d="M838.756,701.626,637.2,647.57a157.6,157.6,0,0,1-11.619,23.894L817.232,760.77Z" transform="translate(-310.212 -320.195)" fill="#ffba0d" stroke="#ffba0d" stroke-miterlimit="10" stroke-width="1"/>
        <path id="Trazado_952" data-name="Trazado 952" d="M375.34,574.71l136.635,63.666a157.577,157.577,0,0,0,11.619-23.894Z" transform="translate(-196.607 -287.118)" fill="#009b6f" stroke="#009b6f" stroke-miterlimit="10" stroke-width="1"/>
        <path id="Trazado_953" data-name="Trazado 953" d="M859.419,617.729,654.412,599.71a155.487,155.487,0,0,1-4.062,16.107q-1.556,5.029-3.44,9.9l201.584,53.952Z" transform="translate(-319.895 -298.467)" fill="#b47bff" stroke="#b47bff" stroke-miterlimit="10" stroke-width="1"/>
        <path id="Trazado_954" data-name="Trazado 954" d="M531.124,588.41,375.34,574.76l148.282,39.663q1.878-4.881,3.44-9.9A155.483,155.483,0,0,0,531.124,588.41Z" transform="translate(-196.607 -287.14)" fill="#3e0cf2" stroke="#3e0cf2" stroke-miterlimit="10" stroke-width="1"/>
        <path id="Trazado_955" data-name="Trazado 955" d="M865.688,517.09,663.58,534.71a157.463,157.463,0,0,1-2.91,27.426l205.013,17.877Z" transform="translate(-326.142 -260.959)" fill="#009b6f" stroke="#009b6f" stroke-miterlimit="10" stroke-width="1"/>
        <path id="Trazado_956" data-name="Trazado 956" d="M375.34,563.2l155.8,13.585a157.466,157.466,0,0,0,2.9-27.426Z" transform="translate(-196.607 -275.609)" fill="#efefef" stroke="#efefef" stroke-miterlimit="10" stroke-width="1"/>
        <path id="Trazado_957" data-name="Trazado 957" d="M664.393,482.928l202.075-17.74-10.92-61.967L662.46,454.9a159.055,159.055,0,0,1,1.977,25.04C664.437,480.94,664.42,481.934,664.393,482.928Z" transform="translate(-326.955 -209.264)" fill="#3e0cf2" stroke="#3e0cf2" stroke-miterlimit="10" stroke-width="1"/>
        <path id="Trazado_958" data-name="Trazado 958" d="M534.045,525.9c0-.994.033-1.987.033-2.987a159.055,159.055,0,0,0-1.977-25.04L375.34,539.826Z" transform="translate(-196.607 -252.234)" fill="#161616" stroke="#161616" stroke-miterlimit="10" stroke-width="1"/>
        <path id="Trazado_959" data-name="Trazado 959" d="M849.6,353.688,828.083,294.56,649.47,377.795a156.489,156.489,0,0,1,7.1,27.694Z" transform="translate(-321.058 -159.934)" fill="#f50" stroke="#f50" stroke-miterlimit="10" stroke-width="1"/>
        <path id="Trazado_960" data-name="Trazado 960" d="M532.1,474.674A156.489,156.489,0,0,0,525,446.98L375.34,516.723Z" transform="translate(-196.607 -229.13)" fill="#ffba0d" stroke="#ffba0d" stroke-miterlimit="10" stroke-width="1"/>
        <path id="Trazado_961" data-name="Trazado 961" d="M817.789,248.9,786.327,194.41,627,305.9a157.108,157.108,0,0,1,12.22,26.329Z" transform="translate(-310.857 -114.468)" fill="#161616" stroke="#161616" stroke-miterlimit="10" stroke-width="1"/>
        <path id="Trazado_962" data-name="Trazado 962" d="M524.987,424.919A157.1,157.1,0,0,0,512.75,398.59L375.34,494.754Z" transform="translate(-196.607 -207.162)" fill="#b47bff" stroke="#b47bff" stroke-miterlimit="10" stroke-width="1"/>
        <path id="Trazado_963" data-name="Trazado 963" d="M771.948,154.012,731.5,105.81,595.59,241.648a158.416,158.416,0,0,1,17.118,23.937Z" transform="translate(-296.597 -74.245)" fill="#ffba0d" stroke="#ffba0d" stroke-miterlimit="10" stroke-width="1"/>
        <path id="Trazado_964" data-name="Trazado 964" d="M512.718,378.527A158.41,158.41,0,0,0,495.6,354.59L375.34,474.779Z" transform="translate(-196.607 -187.187)" fill="#009b6f" stroke="#009b6f" stroke-miterlimit="10" stroke-width="1"/>
        <path id="Trazado_965" data-name="Trazado 965" d="M577.551,207.822,713.384,71.913,665.2,31.47,556,187.265A159.052,159.052,0,0,1,577.551,207.822Z" transform="translate(-278.624 -40.496)" fill="#b47bff" stroke="#b47bff" stroke-miterlimit="10" stroke-width="1"/>
        <path id="Trazado_966" data-name="Trazado 966" d="M495.535,337.358A159.057,159.057,0,0,0,473.983,316.8L375.34,457.623Z" transform="translate(-196.607 -170.031)" fill="#3e0cf2" stroke="#3e0cf2" stroke-miterlimit="10" stroke-width="1"/>
        <path id="Trazado_967" data-name="Trazado 967" d="M534.154,160.946,643.215,5.091,588.723-26.37,508,146.6c1.4-.076,2.8-.142,4.21-.186a157.8,157.8,0,0,1,21.944,14.535Z" transform="translate(-256.833 -14.237)" fill="#009b6f" stroke="#009b6f" stroke-miterlimit="10" stroke-width="1"/>
        <path id="Trazado_968" data-name="Trazado 968" d="M473.929,304.6A157.805,157.805,0,0,0,451.99,290.07c-1.409.044-2.807.109-4.21.186L375.34,445.488Z" transform="translate(-196.607 -157.896)" fill="#efefef" stroke="#efefef" stroke-miterlimit="10" stroke-width="1"/>
        <path id="Trazado_969" data-name="Trazado 969" d="M479.264-75.08,417.3-86,398,133.635a175.779,175.779,0,0,1,27.88-9.342Z" transform="translate(-206.894 12.834)" fill="#f50" stroke="#f50" stroke-miterlimit="10" stroke-width="1"/>
        <path id="Trazado_970" data-name="Trazado 970" d="M561.879-44.426,502.746-65.95,449.28,133.373a176.479,176.479,0,0,1,31.958-4.739Z" transform="translate(-230.175 3.731)" fill="#3e0cf2" stroke="#3e0cf2" stroke-miterlimit="10" stroke-width="1"/>
        <path id="Trazado_971" data-name="Trazado 971" d="M447.671,290.415,375.34,445.643,447.775,290.41Z" transform="translate(-196.607 -158.05)" fill="none" stroke="#707070" stroke-miterlimit="10" stroke-width="1"/>
        <path id="Trazado_972" data-name="Trazado 972" d="M415.609,299.14a175.776,175.776,0,0,0-27.9,9.342L375.34,449.606Z" transform="translate(-196.607 -162.013)" fill="#ffba0d" stroke="#ffba0d" stroke-miterlimit="10" stroke-width="1"/>
        <path id="Trazado_973" data-name="Trazado 973" d="M415.712,295.159,375.34,445.647,447.671,290.42a176.483,176.483,0,0,0-31.958,4.739Z" transform="translate(-196.607 -158.055)" fill="#161616" stroke="#161616" stroke-miterlimit="10" stroke-width="1"/>
        <path id="Trazado_974" data-name="Trazado 974" d="M361.483,133.632,380.665-86.09H317.72L336.8,132.781q6.82,2.85,13.35,6.236Q355.706,136.128,361.483,133.632Z" transform="translate(-170.449 12.875)" fill="#161616" stroke="#161616" stroke-miterlimit="10" stroke-width="1"/>
        <path id="Trazado_975" data-name="Trazado 975" d="M377.35,315.612q-5.777,2.5-11.33,5.384-6.519-3.38-13.35-6.236l12.378,141.964Z" transform="translate(-186.315 -169.105)" fill="#b47bff" stroke="#b47bff" stroke-miterlimit="10" stroke-width="1"/>
        <path id="Trazado_976" data-name="Trazado 976" d="M265.817-86.06,203.85-75.107l53.237,198.919a175.875,175.875,0,0,1,27.94,8.977Z" transform="translate(-118.753 12.861)" fill="#ffba0d" stroke="#ffba0d" stroke-miterlimit="10" stroke-width="1"/>
        <path id="Trazado_977" data-name="Trazado 977" d="M661.36,661.342v0Z" transform="translate(-482.627 -373.75)" fill="none" stroke="#000" stroke-miterlimit="10" stroke-width="1"/>
        <path id="Trazado_978" data-name="Trazado 978" d="M154.314-65.95,95.18-44.426l80.6,172.973a176.457,176.457,0,0,1,31.871,4.368Z" transform="translate(-69.419 3.731)" fill="#b47bff" stroke="#b47bff" stroke-miterlimit="10" stroke-width="1"/>
        <path id="Trazado_979" data-name="Trazado 979" d="M341.663,449.206,301.258,298.26h-.1l40.5,150.968Z" transform="translate(-162.931 -161.614)" fill="none" stroke="#707070" stroke-miterlimit="10" stroke-width="1"/>
        <path id="Trazado_980" data-name="Trazado 980" d="M274.671,294.588A176.455,176.455,0,0,0,242.8,290.22l72.369,155.336Z" transform="translate(-136.436 -157.964)" fill="#3e0cf2" stroke="#3e0cf2" stroke-miterlimit="10" stroke-width="1"/>
        <path id="Trazado_981" data-name="Trazado 981" d="M352.6,314.733l-.082-.033,12.46,141.964Z" transform="translate(-186.247 -169.077)" fill="none" stroke="#707070" stroke-miterlimit="10" stroke-width="1"/>
        <path id="Trazado_982" data-name="Trazado 982" d="M341.75,449.171,329.29,307.207a175.874,175.874,0,0,0-27.94-8.977l40.405,150.946Z" transform="translate(-163.017 -161.6)" fill="#009b6f" stroke="#009b6f" stroke-miterlimit="10" stroke-width="1"/>
        <path id="Trazado_983" data-name="Trazado 983" d="M661.324,661.287l-.044-.087.044.087Z" transform="translate(-482.591 -373.695)" fill="none" stroke="#000" stroke-miterlimit="10" stroke-width="1"/>
        <path id="Trazado_984" data-name="Trazado 984" d="M130.188,146.51,49.514-26.37-5,5.091,104.749,161.929a157.659,157.659,0,0,1,23.189-15.518C128.7,146.433,129.446,146.471,130.188,146.51Z" transform="translate(-23.939 -14.237)" fill="#009b6f" stroke="#009b6f" stroke-miterlimit="10" stroke-width="1"/>
        <path id="Trazado_985" data-name="Trazado 985" d="M64.49,188.248-45.358,31.47l-48.2,40.443L43.31,208.86a158.763,158.763,0,0,1,21.18-20.612Z" transform="translate(16.266 -40.496)" fill="#3e0cf2" stroke="#3e0cf2" stroke-miterlimit="10" stroke-width="1"/>
        <path id="Trazado_986" data-name="Trazado 986" d="M293.859,458.39l-97.923-139.9-.076.06Z" transform="translate(-115.126 -170.798)" fill="none" stroke="#707070" stroke-miterlimit="10" stroke-width="1"/>
        <path id="Trazado_987" data-name="Trazado 987" d="M-127.457,105.81l-40.443,48.2L-7.289,266.546A158.634,158.634,0,0,1,9.5,242.685Z" transform="translate(50.015 -74.245)" fill="#f50" stroke="#f50" stroke-miterlimit="10" stroke-width="1"/>
        <path id="Trazado_988" data-name="Trazado 988" d="M276.213,475.578,157.056,356.35l-.066.076Z" transform="translate(-97.48 -187.986)" fill="none" stroke="#707070" stroke-miterlimit="10" stroke-width="1"/>
        <path id="Trazado_989" data-name="Trazado 989" d="M661.233,661.269l-.153-.109.153.109Z" transform="translate(-482.5 -373.677)" fill="none" stroke="#000" stroke-miterlimit="10" stroke-width="1"/>
        <path id="Trazado_990" data-name="Trazado 990" d="M-194.283,194.41-225.75,248.9l180.185,84.087a157.094,157.094,0,0,1,11.947-26.143Z" transform="translate(76.278 -114.468)" fill="#161616" stroke="#161616" stroke-miterlimit="10" stroke-width="1"/>
        <path id="Trazado_991" data-name="Trazado 991" d="M-243.8,294.56l-21.518,59.128,194.928,52.287a156.37,156.37,0,0,1,6.88-27.421Z" transform="translate(94.242 -159.934)" fill="#ffba0d" stroke="#ffba0d" stroke-miterlimit="10" stroke-width="1"/>
        <path id="Trazado_992" data-name="Trazado 992" d="M252.288,517.29l-147.97-69.06a.157.157,0,0,1-.027.087L252.315,517.29Z" transform="translate(-73.555 -229.698)" fill="none" stroke="#707070" stroke-miterlimit="10" stroke-width="1"/>
        <path id="Trazado_993" data-name="Trazado 993" d="M-79.542,455.392-274.47,403.22l-10.92,61.967,203.97,17.9c0-1.048-.033-2.1-.033-3.15a158.872,158.872,0,0,1,1.907-24.524Z" transform="translate(103.354 -209.264)" fill="#b47bff" stroke="#b47bff" stroke-miterlimit="10" stroke-width="1"/>
        <path id="Trazado_994" data-name="Trazado 994" d="M661.151,661.342l-.251-.022.251.022Z" transform="translate(-482.418 -373.75)" fill="none" stroke="#000" stroke-miterlimit="10" stroke-width="1"/>
        <path id="Trazado_995" data-name="Trazado 995" d="M-285.47,517.09v62.923l206.9-18.019A158.016,158.016,0,0,1-81.457,534.9Z" transform="translate(103.39 -260.959)" fill="#009b6f" stroke="#009b6f" stroke-miterlimit="10" stroke-width="1"/>
        <path id="Trazado_996" data-name="Trazado 996" d="M88.17,549.5v.093l156.548,13.65Z" transform="translate(-66.237 -275.673)" fill="none" stroke="#707070" stroke-miterlimit="10" stroke-width="1"/>
        <path id="Trazado_997" data-name="Trazado 997" d="M-78.534,599.45l-206.9,18.161,10.92,61.973L-71.2,625.167q-1.753-4.625-3.232-9.381a157.408,157.408,0,0,1-4.106-16.337Z" transform="translate(103.372 -298.349)" fill="#3e0cf2" stroke="#3e0cf2" stroke-miterlimit="10" stroke-width="1"/>
        <path id="Trazado_998" data-name="Trazado 998" d="M661.269,661.36h0l-.109.011.109-.011Z" transform="translate(-482.536 -373.768)" fill="none" stroke="#000" stroke-miterlimit="10" stroke-width="1"/>
        <path id="Trazado_999" data-name="Trazado 999" d="M-265.32,701.231l21.518,59.134,193.148-90.022A157,157,0,0,1-62.027,646.7Z" transform="translate(94.242 -319.8)" fill="#f50" stroke="#f50" stroke-miterlimit="10" stroke-width="1"/>
        <path id="Trazado_1000" data-name="Trazado 1000" d="M-225.75,780.289l31.467,54.487L-17.772,711.262A158.466,158.466,0,0,1-32.646,690.18Z" transform="translate(76.278 -339.539)" fill="#161616" stroke="#161616" stroke-miterlimit="10" stroke-width="1"/>
        <path id="Trazado_1001" data-name="Trazado 1001" d="M661.351,661.36h0l-.011.005.011-.005Z" transform="translate(-482.618 -373.768)" fill="none" stroke="#000" stroke-miterlimit="10" stroke-width="1"/>
        <path id="Trazado_1002" data-name="Trazado 1002" d="M8.551,728.91-167.9,852.539l40.443,48.2L26.34,747.032A157.967,157.967,0,0,1,8.551,728.91Z" transform="translate(50.015 -357.122)" fill="#ffba0d" stroke="#ffba0d" stroke-miterlimit="10" stroke-width="1"/>
        <path id="Trazado_1003" data-name="Trazado 1003" d="M661.319,661.36l-.049.033.049-.033Z" transform="translate(-482.586 -373.768)" fill="none" stroke="#000" stroke-miterlimit="10" stroke-width="1"/>
        <path id="Trazado_1004" data-name="Trazado 1004" d="M155.15,658.867l.06.066L275.334,574.77Z" transform="translate(-96.644 -287.145)" fill="none" stroke="#707070" stroke-miterlimit="10" stroke-width="1"/>
        <path id="Trazado_1005" data-name="Trazado 1005" d="M60.176,762.2-93.56,916l48.2,40.471L80.33,777.063q-4.554-2.823-8.895-5.946Q65.587,766.918,60.176,762.2Z" transform="translate(16.266 -372.235)" fill="#b47bff" stroke="#b47bff" stroke-miterlimit="10" stroke-width="1"/>
        <path id="Trazado_1006" data-name="Trazado 1006" d="M-5,968.965l45.156,50.627L142.648,800.846A156.074,156.074,0,0,1,120.584,789.5Z" transform="translate(-23.939 -384.629)" fill="#009b6f" stroke="#009b6f" stroke-miterlimit="10" stroke-width="1"/>
        <path id="Trazado_1007" data-name="Trazado 1007" d="M307.047,574.71,224.91,691.945l.071.044L307.047,574.71Z" transform="translate(-128.314 -287.118)" fill="none" stroke="#707070" stroke-miterlimit="10" stroke-width="1"/>
        <path id="Trazado_1008" data-name="Trazado 1008" d="M307.088,574.71,225,691.989a156.067,156.067,0,0,0,22.043,11.346Z" transform="translate(-128.355 -287.118)" fill="#efefef" stroke="#efefef" stroke-miterlimit="10" stroke-width="1"/>
        <path id="Trazado_1009" data-name="Trazado 1009" d="M187.84,677.028l.066.055L290.218,574.71Z" transform="translate(-111.485 -287.118)" fill="none" stroke="#707070" stroke-miterlimit="10" stroke-width="1"/>
        <path id="Trazado_1010" data-name="Trazado 1010" d="M188,677.083q5.427,4.712,11.281,8.917,4.341,3.123,8.895,5.946L290.291,574.71Z" transform="translate(-111.558 -287.118)" fill="#3e0cf2" stroke="#3e0cf2" stroke-miterlimit="10" stroke-width="1"/>
        <path id="Trazado_1011" data-name="Trazado 1011" d="M275.374,574.743,155.25,658.906a157.962,157.962,0,0,0,17.789,18.122L275.417,574.71Z" transform="translate(-96.69 -287.118)" fill="#009b6f" stroke="#009b6f" stroke-miterlimit="10" stroke-width="1"/>
        <path id="Trazado_1012" data-name="Trazado 1012" d="M127.83,637.665a.551.551,0,0,1,.044.076l135.09-63.021Z" transform="translate(-84.242 -287.122)" fill="none" stroke="#707070" stroke-miterlimit="10" stroke-width="1"/>
        <path id="Trazado_1013" data-name="Trazado 1013" d="M263.011,574.71h0l-135.1,63.049a158.469,158.469,0,0,0,14.873,21.082Z" transform="translate(-84.278 -287.118)" fill="#b47bff" stroke="#b47bff" stroke-miterlimit="10" stroke-width="1"/>
        <path id="Trazado_1014" data-name="Trazado 1014" d="M253.491,574.706,106.94,613.931l.033.082L253.491,574.7Z" transform="translate(-74.758 -287.113)" fill="none" stroke="#707070" stroke-miterlimit="10" stroke-width="1"/>
        <path id="Trazado_1015" data-name="Trazado 1015" d="M253.518,574.71,107,614.018a157.005,157.005,0,0,0,11.374,23.643Z" transform="translate(-74.785 -287.118)" fill="#ffba0d" stroke="#ffba0d" stroke-miterlimit="10" stroke-width="1"/>
        <path id="Trazado_1016" data-name="Trazado 1016" d="M93.46,588.14v.087l153.785-13.5Z" transform="translate(-68.638 -287.127)" fill="none" stroke="#707070" stroke-miterlimit="10" stroke-width="1"/>
        <path id="Trazado_1017" data-name="Trazado 1017" d="M247.385,574.71h-.109L93.49,588.219a157.418,157.418,0,0,0,4.1,16.337q1.474,4.756,3.232,9.381L247.374,574.71Z" transform="translate(-68.652 -287.118)" fill="#161616" stroke="#161616" stroke-miterlimit="10" stroke-width="1"/>
        <path id="Trazado_1018" data-name="Trazado 1018" d="M244.718,563.32,88.17,549.67a158.017,158.017,0,0,0,2.888,27.093l153.911-13.421Z" transform="translate(-66.237 -275.75)" fill="#efefef" stroke="#efefef" stroke-miterlimit="10" stroke-width="1"/>
        <path id="Trazado_1019" data-name="Trazado 1019" d="M246.545,540.162,91.64,498.61v.087l154.921,41.464Z" transform="translate(-67.812 -252.57)" fill="none" stroke="#707070" stroke-miterlimit="10" stroke-width="1"/>
        <path id="Trazado_1020" data-name="Trazado 1020" d="M244.942,540.234,90.021,498.77a158.954,158.954,0,0,0-1.911,24.571c0,1.054,0,2.1.033,3.151l156.8,13.765Z" transform="translate(-66.209 -252.642)" fill="#3e0cf2" stroke="#3e0cf2" stroke-miterlimit="10" stroke-width="1"/>
        <path id="Trazado_1021" data-name="Trazado 1021" d="M246.545,517.363,98.52,448.39a156.365,156.365,0,0,0-6.88,27.421l154.9,41.552Z" transform="translate(-67.812 -229.771)" fill="#009b6f" stroke="#009b6f" stroke-miterlimit="10" stroke-width="1"/>
        <path id="Trazado_1022" data-name="Trazado 1022" d="M126.214,400.19l-.044.087,135.9,95.094Z" transform="translate(-83.488 -207.888)" fill="none" stroke="#707070" stroke-miterlimit="10" stroke-width="1"/>
        <path id="Trazado_1023" data-name="Trazado 1023" d="M252.135,495.444l-135.9-95.094a157.094,157.094,0,0,0-11.947,26.143l147.97,69.06Z" transform="translate(-73.555 -207.961)" fill="#b47bff" stroke="#b47bff" stroke-miterlimit="10" stroke-width="1"/>
        <path id="Trazado_1024" data-name="Trazado 1024" d="M143.045,356.49a158.629,158.629,0,0,0-16.785,23.861l136,95.291Z" transform="translate(-83.529 -188.049)" fill="#ffba0d" stroke="#ffba0d" stroke-miterlimit="10" stroke-width="1"/>
        <path id="Trazado_1025" data-name="Trazado 1025" d="M276.267,458.44,178.29,318.6a158.768,158.768,0,0,0-21.18,20.612Z" transform="translate(-97.534 -170.848)" fill="#161616" stroke="#161616" stroke-miterlimit="10" stroke-width="1"/>
        <path id="Trazado_1026" data-name="Trazado 1026" d="M242.7,290.26h-.115l72.44,155.232Z" transform="translate(-136.341 -157.982)" fill="none" stroke="#707070" stroke-miterlimit="10" stroke-width="1"/>
        <path id="Trazado_1027" data-name="Trazado 1027" d="M293.879,445.4l-72.44-155.232c-.743-.038-1.485-.076-2.228-.1A157.659,157.659,0,0,0,196,305.588l97.9,139.9Z" transform="translate(-115.19 -157.896)" fill="#efefef" stroke="#efefef" stroke-miterlimit="10" stroke-width="1"/>
        <path id="Trazado_1028" data-name="Trazado 1028" d="M396.87,459.67a127.38,127.38,0,0,1-5.695,37.839,121.566,121.566,0,0,0-15.054-52.871,83.8,83.8,0,0,0-43.015-40.662,82.521,82.521,0,0,0-20.361-5.591,84.2,84.2,0,0,0-11.87-.841,83.213,83.213,0,0,0-31.849,6.279,84.048,84.048,0,0,0-43.736-5.46,82.523,82.523,0,0,0-20.334,5.613,84.01,84.01,0,0,0-42.95,40.558,121.4,121.4,0,0,0-15.1,53.029A128.019,128.019,0,0,1,207.686,347.42,142.712,142.712,0,0,1,269.01,363.4a142.542,142.542,0,0,1,61.323-15.976A127.883,127.883,0,0,1,396.87,459.67Z" transform="translate(-90.293 -183.932)" fill="#f50"/>
        <path id="Trazado_1029" data-name="Trazado 1029" d="M380.923,681.66a83.9,83.9,0,0,1-33.2,24.833,83.955,83.955,0,0,1-33.22-24.822,50.684,50.684,0,0,0,5.335.289,49.425,49.425,0,0,0,27.885-8.55,49.371,49.371,0,0,0,27.847,8.551,50.774,50.774,0,0,0,5.356-.3Z" transform="translate(-168.987 -331.926)" fill="#ff7704"/>
        <path id="Trazado_1030" data-name="Trazado 1030" d="M377.461,445.639a82.519,82.519,0,0,0-20.361-5.591,84.2,84.2,0,0,0-11.87-.841,83.213,83.213,0,0,0-31.849,6.279,84.048,84.048,0,0,0-43.736-5.46,82.519,82.519,0,0,0-20.334,5.613,74.258,74.258,0,0,0-10.451,38.079,75.429,75.429,0,0,0,1.256,13.792c.36,1.884.77,3.729,1.267,5.542a74.389,74.389,0,0,0,21.742,35.666A80.851,80.851,0,0,0,265.484,548a83.027,83.027,0,0,0,14.677,27.3,50.7,50.7,0,0,0,5.335.289,49.425,49.425,0,0,0,27.885-8.551,49.545,49.545,0,0,1-21.229-33.389,75.036,75.036,0,0,1,42.442,0A49.622,49.622,0,0,1,313.38,567.04a49.371,49.371,0,0,0,27.847,8.551,50.739,50.739,0,0,0,5.34-.289A83.026,83.026,0,0,0,361.244,548a80.853,80.853,0,0,0,2.359-9.282,74.389,74.389,0,0,0,21.742-35.666c.5-1.813.906-3.658,1.267-5.542a75.425,75.425,0,0,0,1.278-13.836A74.258,74.258,0,0,0,377.461,445.639Z" transform="translate(-134.647 -225.594)" fill="#ffba0d"/>
        <path id="Trazado_1031" data-name="Trazado 1031" d="M380.9,491.64A83.8,83.8,0,0,0,337.882,451a74.258,74.258,0,0,1,10.445,38.079,75.421,75.421,0,0,1-1.278,13.792c-.36,1.884-.77,3.729-1.267,5.542a74.39,74.39,0,0,1-21.742,35.666,80.846,80.846,0,0,1-2.359,9.282,83.029,83.029,0,0,1-14.677,27.3,83.9,83.9,0,0,1-33.2,24.86,83.956,83.956,0,0,1-33.22-24.822,83.027,83.027,0,0,1-14.677-27.3,80.842,80.842,0,0,1-2.359-9.282A74.389,74.389,0,0,1,201.8,508.452c-.5-1.813-.906-3.658-1.267-5.542a75.429,75.429,0,0,1-1.283-13.836A74.258,74.258,0,0,1,209.732,451a84.086,84.086,0,0,0-42.95,40.558,121.4,121.4,0,0,0-15.1,53.029,128,128,0,0,0,74.056,80.592,143.547,143.547,0,0,0,48.049,40.334A143.985,143.985,0,0,0,321.835,625.2a128.177,128.177,0,0,0,74.116-80.685A121.565,121.565,0,0,0,380.9,491.64Z" transform="translate(-95.069 -230.955)" fill="url(#radial-gradient)"/>
        <path id="Trazado_1032" data-name="Trazado 1032" d="M378.9,609.693a49.622,49.622,0,0,1-21.213,33.389,49.545,49.545,0,0,1-21.229-33.389A75.038,75.038,0,0,1,378.9,609.693Z" transform="translate(-178.956 -301.609)" fill="#ff7704"/>
        <ellipse id="Elipse_108" data-name="Elipse 108" cx="36.37" cy="36.37" rx="36.37" ry="36.37" transform="translate(142.363 226.668)" fill="#3e0cf2"/>
        <path id="Trazado_1033" data-name="Trazado 1033" d="M379.579,508.784l-4.914-2.681a44.091,44.091,0,0,1-5.406-3.489,44.683,44.683,0,0,1,1.354-6.29l1.594-5.362-5.373,1.583a44.665,44.665,0,0,1-6.29,1.354,44.082,44.082,0,0,1-3.489-5.406l-2.681-4.914-2.681,4.914a44.087,44.087,0,0,1-3.489,5.406,44.683,44.683,0,0,1-6.29-1.354l-5.362-1.573,1.573,5.362a44.682,44.682,0,0,1,1.354,6.29,44.1,44.1,0,0,1-5.406,3.489L329.16,508.8l4.914,2.681a44.093,44.093,0,0,1,5.406,3.489,44.677,44.677,0,0,1-1.354,6.29l-1.573,5.362,5.362-1.573a44.675,44.675,0,0,1,6.268-1.376,44.1,44.1,0,0,1,3.489,5.406l2.681,4.914,2.681-4.914a44.1,44.1,0,0,1,3.489-5.406,44.674,44.674,0,0,1,6.29,1.354l5.362,1.573-1.573-5.362a44.681,44.681,0,0,1-1.332-6.3,44.091,44.091,0,0,1,5.406-3.489Zm-25.2,5.6a5.6,5.6,0,1,1,5.6-5.6,5.6,5.6,0,0,1-5.6,5.6Z" transform="translate(-175.642 -245.746)" fill="#ffba0d"/>
      </g>
      <path id="Trazado_1035" data-name="Trazado 1035" d="M507.786,134.65h0A173.775,173.775,0,0,1,681.561,308.425V761.865H334V308.425A173.775,173.775,0,0,1,507.786,134.65Z" transform="translate(-307.802 -108.441)" fill="none" stroke="#efefef" stroke-miterlimit="10" stroke-width="2"/>
      <path id="Trazado_1036" data-name="Trazado 1036" d="M507.786,134.65h0A173.775,173.775,0,0,1,681.561,308.425V761.865H334V308.425A173.775,173.775,0,0,1,507.786,134.65Z" transform="translate(-307.802 -108.441)" fill="none" stroke="#3e0cf2" stroke-miterlimit="10" stroke-width="2"/>
      <rect id="Rectángulo_2574" data-name="Rectángulo 2574" width="347.55" height="655.607" rx="16" transform="translate(26.209 26.209)" fill="none" stroke="#3e0cf2" stroke-linecap="round" stroke-linejoin="round" stroke-width="2"/>
      <rect id="Rectángulo_2575" data-name="Rectángulo 2575" width="347.55" height="47.542" rx="16" transform="translate(26.209 634.275)" fill="#efefef" stroke="#3e0cf2" stroke-linecap="round" stroke-linejoin="round" stroke-width="2"/>
      <text id="LA_FUERZA" data-name="LA FUERZA" transform="translate(74.002 667.277)" fill="#3e0cf2" font-size="31" font-family="SegoeUI-Bold, Segoe UI" font-weight="700" letter-spacing="0.3em"><tspan x="0" y="0">LA FUERZA</tspan></text>
      <path id="Trazado_1037" data-name="Trazado 1037" d="M291.353,800.827l9.32-17.047,9.321,17.047a154.2,154.2,0,0,0,61.29,61.3l17.041,9.32-17.041,9.321a154.167,154.167,0,0,0-61.29,61.29l-9.321,17.041-9.32-17.041a154.2,154.2,0,0,0-61.29-61.29L213,871.443l17.047-9.32a154.234,154.234,0,0,0,61.307-61.3Z" transform="translate(-96.699 -355.823)" fill="#ffba0d"/>
      <path id="Trazado_1038" data-name="Trazado 1038" d="M365.371,836.27l18.641-5.46-5.46,18.641a154.19,154.19,0,0,0,0,86.68l5.46,18.641-18.641-5.46a154.188,154.188,0,0,0-86.68,0l-18.641,5.46,5.46-18.641a154.191,154.191,0,0,0,0-86.68l-5.46-18.641,18.641,5.46a154.187,154.187,0,0,0,86.68,0Z" transform="translate(-118.058 -377.174)" fill="#ffba0d"/>
      <ellipse id="Elipse_109" data-name="Elipse 109" cx="56.627" cy="56.627" rx="56.627" ry="56.627" transform="translate(147.348 458.992)" fill="#ffba0d"/>
      <ellipse id="Elipse_110" data-name="Elipse 110" cx="45.865" cy="45.865" rx="45.865" ry="45.865" transform="translate(158.11 469.754)" fill="#3e0cf2"/>
      <path id="Trazado_1039" data-name="Trazado 1039" d="M379.1,932.99h0v-1.054a5.378,5.378,0,0,0-.055-.59l-.033-.235c-.027-.224-.06-.448-.1-.672v-.109c-.049-.273-.109-.546-.175-.814a.363.363,0,0,1,0-.038c-.06-.246-.131-.491-.207-.737a.606.606,0,0,0-.038-.12c-.076-.235-.153-.464-.24-.693a.375.375,0,0,1,0-.055A12.78,12.78,0,0,0,366.46,919.4c-7.2,0-13.951,4.75-18.444,8.862,1.158,1.25,2.211,2.353,3.14,3.276,3.167-3.074,9.113-7.879,15.288-7.879a9.282,9.282,0,0,1,7.879,4.816,8.8,8.8,0,0,1,.513,1.043h0c.071.169.131.339.191.508a.1.1,0,0,0,.027.071c.055.164.109.333.153.5a.364.364,0,0,0,0,.038c.049.18.093.366.131.546v.049q.049.24.082.475a1.284,1.284,0,0,0,0,.153c0,.136.027.268.038.4a.651.651,0,0,1,0,.158v.546h0a9.391,9.391,0,0,1-2.73,6.509c-.1.109-.213.213-.322.317a9.7,9.7,0,0,1-1.037.841c-.24.169-.491.333-.748.481a8.24,8.24,0,0,1-.792.4,8.334,8.334,0,0,1-1.234.448c-.169.049-.339.087-.508.126l-.131.027-.377.066h-.169l-.366.038h-1.381a5.312,5.312,0,0,1-.666-.06,17.019,17.019,0,0,1-5.782-1.846,36.846,36.846,0,0,1-7.972-5.771c-.743-.683-1.687-1.682-2.615-2.686l-.464-.5-.453-.5-.764-.83-.4-.431-.317-.333c-.218-.235-.453-.47-.688-.7l-.1-.1c-.235-.235-.475-.464-.721-.693l-.087-.076c-4.625-4.275-11.33-8.332-17.942-8.332h-.846l-.491.044h-.186a3.048,3.048,0,0,0-.491.071l-.158.027c-.169.033-.339.065-.508.109l-.126.027-.546.142h-.137l-.093.027-.426.142h-.1l-.42.164-.082.033h-.033l-.6.273h0a11.844,11.844,0,0,0-1.125.628l-.066.038c-.126.076-.246.158-.36.24l-.115.076-.339.24-.12.093-.322.257-.1.087a11.552,11.552,0,0,0-1.037.966l-.071.066-.251.279-.142.158-.224.268-.153.186-.208.267-.147.208c-.066.087-.131.175-.191.268s-.1.153-.153.229-.12.169-.175.262-.191.311-.284.475l-.131.235c-.055.1-.109.2-.158.295l-.126.251-.142.295-.115.251-.131.317-.1.246-.131.344-.082.235c-.049.142-.093.289-.137.431l-.049.388c-.055.2-.109.393-.158.59a1.075,1.075,0,0,1-.038.191c-.011.06-.066.284-.093.426s-.033.158-.044.235-.049.262-.066.393-.027.164-.038.246-.033.262-.044.4a.85.85,0,0,1-.027.24l-.033.437v.863h0a14.2,14.2,0,0,0,1.54,6.47,13.574,13.574,0,0,0,3.1,4.008,12.741,12.741,0,0,0,3.32,2.108h.06l.546.224.1.033c.175.066.349.12.546.175l.142.044.491.137.175.044q.235.06.475.1l.2.038.464.071h.213c.164,0,.322.033.486.044h.89c.235,0,.546,0,.846-.027h.049a18.648,18.648,0,0,0,3.014-.431,22.094,22.094,0,0,0,2.572-.764,26.767,26.767,0,0,0,2.479-1.048,40.407,40.407,0,0,0,9.408-6.5c-1.414-1.513-2.457-2.583-3.151-3.276-2.856,2.768-7.977,6.951-13.5,7.737-.273.038-.546.065-.825.087h-.147q-.41.033-.819.033h-.448l-.371-.033H325.8c-.289-.033-.573-.076-.857-.136a8.649,8.649,0,0,1-1.725-.546c-.268-.12-.546-.257-.792-.4s-.508-.311-.748-.48a10.268,10.268,0,0,1-1.037-.841l-.322-.317a9.386,9.386,0,0,1-2.73-6.508V932.6a1.246,1.246,0,0,1,0-.142q0-.147,0-.295v-.175l.033-.262.033-.186a1.289,1.289,0,0,1,.044-.246c.016-.082.027-.126.044-.186s.033-.158.055-.24l.049-.186a.74.74,0,0,1,.071-.229,1.745,1.745,0,0,0,.055-.191l.082-.224.066-.186.087-.218.076-.18c.033-.076.066-.142.1-.213l.082-.18.109-.213c.033-.055.06-.115.093-.175l.136-.24.2-.322.1-.153.147-.207.1-.142c.049-.071.1-.137.153-.2l.1-.137.169-.2.1-.126.18-.2.1-.115.191-.2.1-.1.207-.2.087-.082.235-.2.071-.055a3.341,3.341,0,0,1,.262-.207h0a9.517,9.517,0,0,1,1.594-.977l.235-.109.186-.082.229-.093.191-.071h0l.224-.076.153-.049h.06l.2-.06.158-.044h.033l.251-.06.158-.033.279-.049.207-.033h.158l.333-.033h.622c4.439,0,8.84,2.55,12.225,5.22.393.306.775.617,1.136.928l.033.027.491.42.049.044c.339.3.666.6.972.879l.044.044.382.36.1.1.306.295.1.1.371.371.257.262c.071.071.147.147.218.229.732.754,1.567,1.638,2.266,2.419l.2.213c.1.109.191.208.279.311l.169.18.644.683c.426.442.879.89,1.36,1.338s.977.89,1.5,1.327l.546.437a34.943,34.943,0,0,0,7.213,4.554,21.294,21.294,0,0,0,8.84,2.146h.764l.42-.033h.18a2.994,2.994,0,0,0,.546-.076.536.536,0,0,0,.093,0,2.314,2.314,0,0,0,.464-.087l.208-.044.355-.093.207-.049.5-.158h0a12.215,12.215,0,0,0,3.358-1.72,12.075,12.075,0,0,0,.983-.781,13.487,13.487,0,0,0,3.1-4.008,14.2,14.2,0,0,0,1.54-6.47Z" transform="translate(-142.555 -417.37)" fill="#efefef"/>
      <path id="Trazado_1040" data-name="Trazado 1040" d="M545.59,1176.54H649.7a13.65,13.65,0,0,1,13.65,13.651v25.526H531.94v-25.526A13.65,13.65,0,0,1,545.59,1176.54Z" transform="translate(-397.664 -581.442)" fill="#efefef" stroke="#3e0cf2" stroke-linecap="round" stroke-linejoin="round" stroke-width="2"/>
      <text id="xi" transform="translate(188.447 619.955)" fill="#3e0cf2" font-size="26" font-family="SegoeUI-Bold, Segoe UI" font-weight="700"><tspan x="0" y="0">xi</tspan></text>
    </g>
  </g>
</svg>
