<svg id="Layer_2" data-name="Layer 2" xmlns="http://www.w3.org/2000/svg" xmlns:xlink="http://www.w3.org/1999/xlink" width="399.968" height="708.025" viewBox="0 0 399.968 708.025">
  <defs>
    <clipPath id="clip-path">
      <path id="Trazado_1176" data-name="Trazado 1176" d="M318.863,406.75h0a56.754,56.754,0,0,1,56.758,56.758V611.6H262.11V463.5A56.753,56.753,0,0,1,318.863,406.75Z" transform="translate(-262.11 -406.75)" fill="none"/>
    </clipPath>
    <linearGradient id="linear-gradient" x1="0.5" y1="0.864" x2="0.5" y2="0.353" gradientUnits="objectBoundingBox">
      <stop offset="0" stop-color="#efefef"/>
      <stop offset="1" stop-color="#c4c4c4"/>
    </linearGradient>
    <linearGradient id="linear-gradient-2" y1="1.108" y2="0.598" xlink:href="#linear-gradient"/>
    <linearGradient id="linear-gradient-5" x1="1.156" y1="-0.336" x2="0.491" y2="0.511" gradientUnits="objectBoundingBox">
      <stop offset="0.01" stop-color="#ffff0c"/>
      <stop offset="0.22" stop-color="#fff60c"/>
      <stop offset="0.57" stop-color="#ffde0c"/>
      <stop offset="0.98" stop-color="#ffba0d"/>
    </linearGradient>
    <linearGradient id="linear-gradient-6" x1="0.973" y1="1.07" x2="0.178" y2="0.313" gradientUnits="objectBoundingBox">
      <stop offset="0" stop-color="#ffb399" stop-opacity="0"/>
      <stop offset="0.08" stop-color="#ffb399" stop-opacity="0.031"/>
      <stop offset="0.22" stop-color="#ffb399" stop-opacity="0.129"/>
      <stop offset="0.4" stop-color="#ffb399" stop-opacity="0.29"/>
      <stop offset="0.6" stop-color="#ffb399" stop-opacity="0.502"/>
      <stop offset="0.83" stop-color="#ffb399" stop-opacity="0.769"/>
      <stop offset="1" stop-color="#ffb399"/>
    </linearGradient>
    <linearGradient id="linear-gradient-7" x1="0.647" y1="0.183" x2="0.292" y2="1.314" gradientUnits="objectBoundingBox">
      <stop offset="0" stop-color="#ffb399"/>
      <stop offset="1" stop-color="#ff3b31"/>
    </linearGradient>
    <linearGradient id="linear-gradient-8" x1="0.028" y1="-0.064" x2="0.9" y2="0.78" xlink:href="#linear-gradient-6"/>
    <linearGradient id="linear-gradient-9" x1="0.866" y1="0.367" x2="-0.89" y2="0.731" xlink:href="#linear-gradient-7"/>
    <linearGradient id="linear-gradient-10" x1="-0.239" y1="0.262" x2="0.999" y2="0.72" gradientUnits="objectBoundingBox">
      <stop offset="0" stop-color="#efefef"/>
      <stop offset="0.28" stop-color="#efefef"/>
      <stop offset="0.37" stop-color="#efefef" stop-opacity="0.831"/>
      <stop offset="0.54" stop-color="#efefef" stop-opacity="0.541"/>
      <stop offset="0.7" stop-color="#efefef" stop-opacity="0.31"/>
      <stop offset="0.83" stop-color="#efefef" stop-opacity="0.141"/>
      <stop offset="0.94" stop-color="#efefef" stop-opacity="0.039"/>
      <stop offset="1" stop-color="#efefef" stop-opacity="0"/>
    </linearGradient>
    <linearGradient id="linear-gradient-11" x1="1.243" y1="0.39" x2="-0.025" y2="0.604" gradientUnits="objectBoundingBox">
      <stop offset="0" stop-color="#ff3b31"/>
      <stop offset="0.25" stop-color="#ff3b31"/>
      <stop offset="0.29" stop-color="#fd544c" stop-opacity="0.859"/>
      <stop offset="0.37" stop-color="#fa7872" stop-opacity="0.659"/>
      <stop offset="0.45" stop-color="#f79893" stop-opacity="0.478"/>
      <stop offset="0.52" stop-color="#f4b3b0" stop-opacity="0.329"/>
      <stop offset="0.61" stop-color="#f2c9c7" stop-opacity="0.212"/>
      <stop offset="0.69" stop-color="#f1dad8" stop-opacity="0.122"/>
      <stop offset="0.78" stop-color="#f0e6e5" stop-opacity="0.051"/>
      <stop offset="0.88" stop-color="#efeded" stop-opacity="0.012"/>
      <stop offset="1" stop-color="#efefef" stop-opacity="0"/>
    </linearGradient>
    <linearGradient id="linear-gradient-12" x1="0.459" y1="1.162" x2="0.541" y2="-0.038" gradientUnits="objectBoundingBox">
      <stop offset="0" stop-color="#3e0cf2"/>
      <stop offset="0.22" stop-color="#3e0cf2"/>
      <stop offset="0.25" stop-color="#3e0cf2" stop-opacity="0.91"/>
      <stop offset="0.33" stop-color="#3e0cf2" stop-opacity="0.702"/>
      <stop offset="0.41" stop-color="#3e0cf2" stop-opacity="0.51"/>
      <stop offset="0.5" stop-color="#3e0cf2" stop-opacity="0.361"/>
      <stop offset="0.58" stop-color="#3e0cf2" stop-opacity="0.231"/>
      <stop offset="0.68" stop-color="#3e0cf2" stop-opacity="0.129"/>
      <stop offset="0.77" stop-color="#3e0cf2" stop-opacity="0.059"/>
      <stop offset="0.87" stop-color="#3e0cf2" stop-opacity="0.012"/>
      <stop offset="1" stop-color="#3e0cf2" stop-opacity="0"/>
    </linearGradient>
    <linearGradient id="linear-gradient-13" x1="1.505" y1="0.994" x2="0.018" y2="0.079" gradientUnits="objectBoundingBox">
      <stop offset="0" stop-color="#009b6f"/>
      <stop offset="0.29" stop-color="#009b6f"/>
      <stop offset="0.33" stop-color="#009b6f" stop-opacity="0.902"/>
      <stop offset="0.44" stop-color="#009b6f" stop-opacity="0.631"/>
      <stop offset="0.55" stop-color="#009b6f" stop-opacity="0.4"/>
      <stop offset="0.66" stop-color="#009b6f" stop-opacity="0.22"/>
      <stop offset="0.77" stop-color="#009b6f" stop-opacity="0.102"/>
      <stop offset="0.88" stop-color="#009b6f" stop-opacity="0.02"/>
      <stop offset="1" stop-color="#009b6f" stop-opacity="0"/>
    </linearGradient>
    <clipPath id="clip-path-2">
      <circle id="Elipse_233" data-name="Elipse 233" cx="7.486" cy="7.486" r="7.486" fill="none"/>
    </clipPath>
  </defs>
  <g id="Capa_1" data-name="Capa 1">
    <rect id="Rectángulo_2639" data-name="Rectángulo 2639" width="399.968" height="708.025" rx="16" fill="#b47bff"/>
    <path id="Trazado_1169" data-name="Trazado 1169" d="M221.775,48h0A173.775,173.775,0,0,1,395.55,221.775V675.214H48V221.775A173.775,173.775,0,0,1,221.775,48Z" transform="translate(-21.791 -21.791)" fill="#efefef" stroke="#3e0cf2" stroke-miterlimit="10" stroke-width="2"/>
    <path id="Trazado_1170" data-name="Trazado 1170" d="M248.883,121.73h0A141.172,141.172,0,0,1,390.055,262.9V637.83H107.71V262.9A141.171,141.171,0,0,1,248.877,121.73Z" transform="translate(-48.899 -55.263)" fill="#ff3b31"/>
    <path id="Trazado_1171" data-name="Trazado 1171" d="M271.6,213.83h0A113.838,113.838,0,0,1,385.429,327.663v301.69H157.74V327.669A113.839,113.839,0,0,1,271.6,213.83Z" transform="translate(-71.611 -97.075)" fill="#3e0cf2"/>
    <path id="Trazado_1172" data-name="Trazado 1172" d="M290.617,290.85h0a90.977,90.977,0,0,1,90.977,90.977V622.266H199.64V381.827a90.977,90.977,0,0,1,90.977-90.977Z" transform="translate(-90.633 -132.041)" fill="#ffba0d"/>
    <path id="Trazado_1173" data-name="Trazado 1173" d="M303.41,342.7h0A75.59,75.59,0,0,1,379,418.29V617.51H227.82V418.29a75.591,75.591,0,0,1,75.59-75.59Z" transform="translate(-103.427 -155.58)" fill="#161616"/>
    <path id="Trazado_1174" data-name="Trazado 1174" d="M313.167,382.24h0A63.857,63.857,0,0,1,377.023,446.1V613.855H249.31V446.1A63.857,63.857,0,0,1,313.167,382.24Z" transform="translate(-113.183 -173.531)" fill="#b47bff"/>
    <path id="Trazado_1175" data-name="Trazado 1175" d="M319.073,406.75h0A56.753,56.753,0,0,1,375.826,463.5V611.6H262.32V463.5A56.753,56.753,0,0,1,319.073,406.75Z" transform="translate(-119.089 -184.658)" fill="#efefef"/>
    <g id="Grupo_469" data-name="Grupo 469" transform="translate(143.116 222.092)" clip-path="url(#clip-path)">
      <ellipse id="Elipse_209" data-name="Elipse 209" cx="47.542" cy="31.522" rx="47.542" ry="31.522" transform="translate(-77.911 35.142)" fill="url(#linear-gradient)"/>
      <ellipse id="Elipse_210" data-name="Elipse 210" cx="47.542" cy="31.522" rx="47.542" ry="31.522" transform="translate(-22.359 19.744)" fill="url(#linear-gradient-2)"/>
      <ellipse id="Elipse_211" data-name="Elipse 211" cx="47.542" cy="31.522" rx="47.542" ry="31.522" transform="translate(103.596 35.142)" fill="url(#linear-gradient)"/>
      <ellipse id="Elipse_212" data-name="Elipse 212" cx="47.542" cy="31.522" rx="47.542" ry="31.522" transform="translate(48.049 19.744)" fill="url(#linear-gradient-2)"/>
      <ellipse id="Elipse_213" data-name="Elipse 213" cx="51.79" cy="34.344" rx="51.79" ry="34.344" transform="translate(-103.781 13.028)" fill="#fff"/>
      <ellipse id="Elipse_214" data-name="Elipse 214" cx="51.79" cy="34.344" rx="51.79" ry="34.344" transform="translate(-64.343 -5.788)" fill="#fff"/>
      <ellipse id="Elipse_215" data-name="Elipse 215" cx="51.79" cy="34.344" rx="51.79" ry="34.344" transform="translate(128.166 13.028)" fill="#fff"/>
      <ellipse id="Elipse_216" data-name="Elipse 216" cx="61.864" cy="41.022" rx="61.864" ry="41.022" transform="translate(-0.923 -21.671)" fill="#fff"/>
      <ellipse id="Elipse_217" data-name="Elipse 217" cx="51.79" cy="34.344" rx="51.79" ry="34.344" transform="translate(88.728 -5.788)" fill="#fff"/>
      <ellipse id="Elipse_218" data-name="Elipse 218" cx="32.908" cy="21.824" rx="32.908" ry="21.824" transform="translate(-42.627 184.1)" fill="#fff"/>
      <ellipse id="Elipse_219" data-name="Elipse 219" cx="32.908" cy="21.824" rx="32.908" ry="21.824" transform="translate(-17.565 172.143)" fill="#fff"/>
      <ellipse id="Elipse_220" data-name="Elipse 220" cx="32.908" cy="21.824" rx="32.908" ry="21.824" transform="translate(104.77 184.1)" fill="#fff"/>
      <ellipse id="Elipse_221" data-name="Elipse 221" cx="39.313" cy="26.067" rx="39.313" ry="26.067" transform="translate(22.736 162.052)" fill="#fff"/>
      <ellipse id="Elipse_222" data-name="Elipse 222" cx="32.908" cy="21.824" rx="32.908" ry="21.824" transform="translate(79.713 172.143)" fill="#fff"/>
    </g>
    <circle id="Elipse_223" data-name="Elipse 223" cx="18.521" cy="18.521" r="18.521" transform="translate(205.793 271.31)" fill="url(#linear-gradient-5)"/>
    <circle id="Elipse_224" data-name="Elipse 224" cx="44.413" cy="44.413" r="44.413" transform="translate(155.456 285.141)" fill="#161616"/>
    <path id="Trazado_1177" data-name="Trazado 1177" d="M314.307,569.7H339.09a56.24,56.24,0,0,1-28-38.849,44.632,44.632,0,0,0-15.835,14.863,10.194,10.194,0,0,0,1.573,12.973A56.177,56.177,0,0,0,314.307,569.7Z" transform="translate(-133.297 -240.997)" fill="url(#linear-gradient-6)"/>
    <circle id="Elipse_225" data-name="Elipse 225" cx="7.486" cy="7.486" r="7.486" transform="translate(167.207 358.995)" fill="#005cff"/>
    <path id="Trazado_1178" data-name="Trazado 1178" d="M434.935,644.23a2.277,2.277,0,0,1,0,2.583c-.917,1.36-1.895,0-1.895,0a11.128,11.128,0,0,0,1.895-2.583Z" transform="translate(-196.593 -292.47)" fill="url(#linear-gradient-7)"/>
    <path id="Trazado_1179" data-name="Trazado 1179" d="M362.445,620.37H323.29a57.763,57.763,0,0,0,39.5,28.737,16.845,16.845,0,0,0,14.349-3.866A44.566,44.566,0,0,0,385.11,636,57.784,57.784,0,0,1,362.445,620.37Z" transform="translate(-146.768 -281.638)" fill="url(#linear-gradient-8)"/>
    <path id="Trazado_1180" data-name="Trazado 1180" d="M372.825,601.625c1.971,3.964,2.512,6.787,1.3,7.994-3.9,3.9-24.571-10.429-46.144-32.013s-35.917-42.245-32.013-46.138c1.147-1.152,3.757-.715,7.409,1.021" transform="translate(-134.074 -240.986)" fill="none" stroke="#3e0cf2" stroke-linecap="round" stroke-linejoin="round" stroke-width="2"/>
    <path id="Trazado_1181" data-name="Trazado 1181" d="M325.62,530.763a2.255,2.255,0,0,1,1.835.147s-1.349.677-1.638.879Z" transform="translate(-147.826 -240.899)" fill="url(#linear-gradient-9)"/>
    <path id="Trazado_1182" data-name="Trazado 1182" d="M469.509,826.093a1.707,1.707,0,0,1,.065.306l.076.4c.049.268.1.546.169.83.109.546.262,1.136.4,1.7.3,1.141.633,2.277,1.021,3.4a52.6,52.6,0,0,0,2.73,6.552c.486,1.092,1.092,2.1,1.638,3.134l.9,1.518c.295.5.59,1,.923,1.491.644.983,1.261,1.96,1.971,2.894l1.021,1.409,1.092,1.36a69.579,69.579,0,0,0,9.686,9.79,76.627,76.627,0,0,0,11.226,7.808c.491.284.972.584,1.469.863l1.523.8c1.021.546,2,1.092,3.041,1.567,2.1.956,4.117,1.955,6.285,2.779,1.092.42,2.1.879,3.194,1.267l3.276,1.141c.546.186,1.092.388,1.638.546l1.671.5,3.309.994a168.329,168.329,0,0,0,27.519,5.154,22.343,22.343,0,1,1-11.03,42.835l-.546-.246a206.624,206.624,0,0,1-30.8-15.867l-3.658-2.408-1.813-1.2c-.6-.42-1.2-.857-1.785-1.289l-3.544-2.577c-1.174-.863-2.31-1.824-3.456-2.73-2.31-1.78-4.494-3.789-6.683-5.728-1.092-.977-2.129-2.048-3.183-3.063l-1.567-1.545c-.513-.546-1.01-1.092-1.512-1.638a100.586,100.586,0,0,1-10.975-13.814,89.127,89.127,0,0,1-8.223-15.474,76.394,76.394,0,0,1-4.75-16.615,64.61,64.61,0,0,1-.868-8.512c-.06-1.42-.055-2.85,0-4.281.038-.726.066-1.436.131-2.184.033-.36.06-.726.1-1.092l.153-1.234a3.691,3.691,0,0,1,6.607-1.786Z" transform="translate(-209.251 -373.348)" fill="url(#linear-gradient-10)"/>
    <path id="Trazado_1183" data-name="Trazado 1183" d="M194.42,637.043l-1.856,2.1-1.791,2.058c-1.2,1.365-2.424,2.7-3.642,4.046-2.424,2.7-4.914,5.335-7.42,7.983-5.051,5.247-10.249,10.423-15.769,15.414-2.768,2.484-5.6,4.947-8.567,7.317s-6.039,4.7-9.282,6.923c-.824.546-1.638,1.092-2.473,1.638l-1.289.781-.639.4-.317.2-.158.1-.109.076q-1.638,1.185-3.221,2.583a52.812,52.812,0,0,0-5.924,6.192,83.179,83.179,0,0,0-9.719,15.288,118.877,118.877,0,0,0-7.011,17.331c-.972,2.981-1.78,6.006-2.517,9.047s-1.36,6.077-1.829,9.108-.852,6.006-1.032,8.955a61.892,61.892,0,0,0-.049,8.4,29.277,29.277,0,1,1-56.655-8.125l1.272-3.336c1.638-4.308,3.385-8.31,5.236-12.165s3.822-7.546,5.875-11.133c1.021-1.8,2.08-3.555,3.151-5.3s2.151-3.467,3.276-5.171c2.222-3.4,4.576-6.7,6.978-9.948a176.745,176.745,0,0,1,15.785-18.444A121.212,121.212,0,0,1,113.8,673.49a84.767,84.767,0,0,1,11.259-6.257,64.086,64.086,0,0,1,6.143-2.419l2.293-.737c.748-.246,1.5-.546,2.25-.786a114.433,114.433,0,0,0,17.937-8.594,170.459,170.459,0,0,0,17.139-11.466c2.779-2.064,5.46-4.259,8.136-6.481,1.321-1.092,2.621-2.271,3.915-3.424.644-.573,1.272-1.163,1.906-1.753s1.261-1.2,1.818-1.753l.06-.06a5.324,5.324,0,0,1,7.775,7.262Z" transform="translate(-23.299 -285.201)" fill="url(#linear-gradient-11)"/>
    <path id="Trazado_1184" data-name="Trazado 1184" d="M379.832,341.613l.5-.863.431-.683c.278-.437.546-.868.841-1.278.546-.83,1.147-1.638,1.736-2.386,1.179-1.545,2.419-3,3.7-4.417a87.7,87.7,0,0,1,8.157-7.846,112.372,112.372,0,0,1,18.515-12.558,142.771,142.771,0,0,1,20.317-9.031l2.615-.923,2.632-.852c1.758-.59,3.527-1.092,5.3-1.605s3.555-.961,5.34-1.441l.666-.175c.213-.055.475-.115.617-.169l1-.311c.672-.2,1.321-.453,1.977-.672,10.445-3.789,18.9-10.92,25.422-20a81.39,81.39,0,0,0,8.354-14.8c1.147-2.626,2.184-5.318,3.069-8.021.442-1.349.852-2.7,1.207-4.019.175-.661.344-1.316.486-1.944.071-.311.137-.612.191-.9l.071-.393v-.207a.111.111,0,0,1-.044.087,20.144,20.144,0,1,1,38.6,11.548l-.136.393-.1.262-.18.453-.339.825-.666,1.529c-.442.988-.89,1.938-1.349,2.872-.912,1.873-1.857,3.675-2.845,5.46-1.966,3.549-4.09,6.967-6.367,10.292a115.2,115.2,0,0,1-15.742,18.565,90.889,90.889,0,0,1-20.137,14.54,77.282,77.282,0,0,1-23.637,7.928c-1.021.142-2.037.317-3.058.42l-2.768.306c-1.589.186-3.2.317-4.778.546s-3.178.415-4.745.7l-2.364.388-2.348.459a122.858,122.858,0,0,0-18.368,5.078,95,95,0,0,0-17.019,8.19,72.656,72.656,0,0,0-7.612,5.395c-1.19.977-2.342,1.993-3.429,3.036-.546.519-1.065,1.048-1.551,1.573-.251.262-.486.546-.71.781l-.317.366-.142.164-.055.06h0V348.3a6.413,6.413,0,1,1-10.953-6.672Z" transform="translate(-172.007 -105.248)" fill="url(#linear-gradient-12)"/>
    <path id="Trazado_1185" data-name="Trazado 1185" d="M167.845,155.179a41.178,41.178,0,0,0-5.744,11.4,87.265,87.265,0,0,0-3.576,15.01,152.641,152.641,0,0,0-1.092,33.405,165.377,165.377,0,0,0,5.963,33.766,110.344,110.344,0,0,0,5.957,15.916,64.487,64.487,0,0,0,8.665,13.956l.175.207a6.361,6.361,0,0,1-8.884,9.02,78.3,78.3,0,0,1-13.771-14.841,127.918,127.918,0,0,1-10.271-16.872,188.054,188.054,0,0,1-13.912-36.583c-1.682-6.334-3.052-12.766-4.144-19.351a168.361,168.361,0,0,1-2.037-20.17,122.685,122.685,0,0,1,.928-21.295,81.2,81.2,0,0,1,6.438-23l.683-1.491a20.358,20.358,0,0,1,37.031,16.926A21.141,21.141,0,0,1,167.845,155.179Z" transform="translate(-56.774 -55.548)" fill="url(#linear-gradient-13)"/>
    <path id="Trazado_1186" data-name="Trazado 1186" d="M441.253,609.541l.393-.721.393.721a6.553,6.553,0,0,0,2.583,2.583l.721.393-.721.393a6.491,6.491,0,0,0-2.583,2.583l-.393.721-.393-.743a6.459,6.459,0,0,0-2.583-2.583l-.721-.393.721-.393a6.493,6.493,0,0,0,2.583-2.561Z" transform="translate(-198.822 -276.395)" fill="#ff3b31"/>
    <path id="Trazado_1187" data-name="Trazado 1187" d="M405.958,590.908l.279-.508.278.508a4.659,4.659,0,0,0,1.84,1.84l.508.278-.508.278a4.646,4.646,0,0,0-1.84,1.835l-.278.513-.279-.513a4.635,4.635,0,0,0-1.835-1.835l-.513-.278.513-.278a4.647,4.647,0,0,0,1.835-1.84Z" transform="translate(-183.232 -268.032)" fill="#ffba0d"/>
    <path id="Trazado_1188" data-name="Trazado 1188" d="M290.034,564.193l.284-.513.284.513a4.608,4.608,0,0,0,1.851,1.851l.513.279-.513.284a4.608,4.608,0,0,0-1.851,1.851l-.284.513-.284-.513a4.63,4.63,0,0,0-1.846-1.851l-.519-.284.519-.279A4.63,4.63,0,0,0,290.034,564.193Z" transform="translate(-130.598 -255.902)" fill="#009b6f"/>
    <circle id="Elipse_226" data-name="Elipse 226" cx="1.638" cy="1.638" r="1.638" transform="translate(227.023 315.99)" fill="#efefef"/>
    <circle id="Elipse_227" data-name="Elipse 227" cx="0.661" cy="0.661" r="0.661" transform="translate(246.526 329.553)" fill="#3e0cf2"/>
    <circle id="Elipse_228" data-name="Elipse 228" cx="0.661" cy="0.661" r="0.661" transform="translate(231.134 321.707)" fill="#b47bff"/>
    <circle id="Elipse_229" data-name="Elipse 229" cx="0.661" cy="0.661" r="0.661" transform="translate(219.318 317.629)" fill="#efefef"/>
    <circle id="Elipse_230" data-name="Elipse 230" cx="0.661" cy="0.661" r="0.661" transform="translate(150.367 316.662)" fill="#b47bff"/>
    <circle id="Elipse_231" data-name="Elipse 231" cx="2.473" cy="2.473" r="2.473" transform="translate(221.841 359.934)" fill="#3e0cf2"/>
    <rect id="Rectángulo_2640" data-name="Rectángulo 2640" width="347.55" height="655.607" rx="25" transform="translate(26.209 26.209)" fill="none" stroke="#3e0cf2" stroke-linecap="round" stroke-linejoin="round" stroke-width="2"/>
    <path id="Trazado_1189" data-name="Trazado 1189" d="M294.045,937.929l8.392-15.349,8.392,15.349a138.9,138.9,0,0,0,55.2,55.2l15.349,8.392-15.349,8.392a138.889,138.889,0,0,0-55.2,55.2l-8.392,15.349-8.392-15.348a138.873,138.873,0,0,0-55.2-55.2l-15.348-8.392,15.349-8.392A138.89,138.89,0,0,0,294.045,937.929Z" transform="translate(-101.465 -418.836)" fill="#161616"/>
    <path id="Trazado_1190" data-name="Trazado 1190" d="M322.6,987.78l5.154-9.43,5.154,9.43a85.343,85.343,0,0,0,33.908,33.908l9.43,5.154-9.43,5.154a85.342,85.342,0,0,0-33.908,33.908l-5.154,9.446-5.154-9.43a85.342,85.342,0,0,0-33.908-33.908l-9.43-5.154,9.43-5.154A85.343,85.343,0,0,0,322.6,987.78Z" transform="translate(-126.78 -444.155)" fill="#3e0cf2"/>
    <path id="Trazado_1191" data-name="Trazado 1191" d="M345.711,1028.146l2.534-4.636,2.539,4.636a41.906,41.906,0,0,0,16.67,16.676l4.636,2.533-4.636,2.533a41.907,41.907,0,0,0-16.67,16.675l-2.539,4.636-2.534-4.636a41.956,41.956,0,0,0-16.675-16.675l-4.636-2.533,4.636-2.533A41.957,41.957,0,0,0,345.711,1028.146Z" transform="translate(-147.272 -464.657)" fill="#ffba0d"/>
    <path id="Trazado_1192" data-name="Trazado 1192" d="M338.675,1041.352l-1.485-5.073,5.073,1.485a41.928,41.928,0,0,0,23.577,0l5.073-1.485-1.485,5.073a41.929,41.929,0,0,0,0,23.577l1.512,5.051-5.073-1.485a41.928,41.928,0,0,0-23.577,0l-5.072,1.485,1.485-5.073A41.928,41.928,0,0,0,338.675,1041.352Z" transform="translate(-153.079 -470.454)" fill="#ffba0d"/>
    <rect id="Rectángulo_2641" data-name="Rectángulo 2641" width="347.55" height="47.542" rx="16" transform="translate(26.209 634.274)" fill="#b47bff" stroke="#3e0cf2" stroke-linecap="round" stroke-linejoin="round" stroke-width="2"/>
    <text id="EL_MUNDO" data-name="EL MUNDO" transform="translate(77.179 667.277)" fill="#3e0cf2" font-size="31" font-family="SegoeUI-Bold, Segoe UI" font-weight="700" letter-spacing="0.3em"><tspan x="0" y="0">EL MUNDO</tspan></text>
    <path id="Trazado_1193" data-name="Trazado 1193" d="M259.57,1089.89H363.685a13.65,13.65,0,0,1,13.65,13.65v25.526H245.92V1103.54A13.65,13.65,0,0,1,259.57,1089.89Z" transform="translate(-111.644 -494.793)" fill="#b47bff" stroke="#3e0cf2" stroke-linecap="round" stroke-linejoin="round" stroke-width="2"/>
    <text id="xxi" transform="translate(181.048 619.955)" fill="#3e0cf2" font-size="26" font-family="SegoeUI-Bold, Segoe UI" font-weight="700"><tspan x="0" y="0">xxi</tspan></text>
    <circle id="Elipse_232" data-name="Elipse 232" cx="5.138" cy="5.138" r="5.138" transform="translate(195.834 577.549)" fill="#161616"/>
    <g id="Grupo_470" data-name="Grupo 470" transform="translate(167.207 358.995)" clip-path="url(#clip-path-2)">
      <path id="Trazado_1194" data-name="Trazado 1194" d="M313.29,658.45s3.156.044,4.308,2.184,3.276,2.91,5.023,3.511,3.221,2.867,3.08,3.074" transform="translate(-309.435 -657.92)" fill="none" stroke="#707070" stroke-miterlimit="10" stroke-width="1"/>
      <path id="Trazado_1195" data-name="Trazado 1195" d="M302.94,668.8s3.156.044,4.308,2.184,3.276,2.91,5.023,3.511,3.221,2.867,3.08,3.074" transform="translate(-304.736 -662.619)" fill="none" stroke="#707070" stroke-miterlimit="10" stroke-width="1"/>
      <path id="Trazado_1196" data-name="Trazado 1196" d="M317.72,656s2.828.038,3.866,1.949,2.927,2.61,4.5,3.145,2.888,2.572,2.73,2.73" transform="translate(-311.446 -656.808)" fill="none" stroke="#707070" stroke-miterlimit="10" stroke-width="1"/>
      <path id="Trazado_1197" data-name="Trazado 1197" d="M301.82,673.94s2.828.044,3.866,1.955,2.927,2.6,4.5,3.145a5.09,5.09,0,0,1,2.757,2.757" transform="translate(-304.228 -664.953)" fill="none" stroke="#707070" stroke-miterlimit="10" stroke-width="1"/>
      <path id="Trazado_1198" data-name="Trazado 1198" d="M308.29,660.88s3.571.055,4.881,2.468,3.7,3.276,5.684,3.975,3.647,3.243,3.484,3.484" transform="translate(-307.165 -659.023)" fill="none" stroke="#707070" stroke-miterlimit="10" stroke-width="1"/>
      <path id="Trazado_1199" data-name="Trazado 1199" d="M304.56,664.61s3.571.055,4.881,2.468,3.7,3.276,5.684,3.975,3.647,3.243,3.484,3.484" transform="translate(-305.472 -660.717)" fill="none" stroke="#707070" stroke-miterlimit="10" stroke-width="1"/>
    </g>
  </g>
</svg>
