<svg xmlns="http://www.w3.org/2000/svg" width="31.993" height="22.49" viewBox="0 0 31.993 22.49">
  <g id="Layer_2" data-name="Layer 2" transform="translate(-0.002 0.004)">
    <g id="Layer_1" data-name="Layer 1" transform="translate(0.002 -0.004)">
      <path id="Trazado_107" data-name="Trazado 107" d="M11.934,1.254A7.238,7.238,0,0,0,1.675,3.467c-2.416,3.864-2.04,7.829,0,11.719a20.126,20.126,0,0,0,6.281,6.8h0a2.592,2.592,0,0,0,1.525.5h.605a.362.362,0,0,0,.206-.658c-.266-.187-.533-.371-.806-.547-2.472-1.607-4.261-3.673-4.625-6.736-.273-2.3.626-3.4,2.946-3.542a18.034,18.034,0,0,0,2.764-.327,4.337,4.337,0,0,0,3.5-3.89A5.158,5.158,0,0,0,11.934,1.254Z" transform="translate(-0.002 0.004)" fill="#3e0cf2"/>
      <path id="Trazado_108" data-name="Trazado 108" d="M113.806,1.255a7.236,7.236,0,0,0-10.257,2.213c-2.417,3.864-2.041,7.829,0,11.719a20.121,20.121,0,0,0,6.28,6.8h0a2.6,2.6,0,0,0,1.525.5h.605a.362.362,0,0,0,.208-.658c-.266-.187-.534-.371-.806-.547-2.473-1.607-4.263-3.673-4.625-6.736-.273-2.3.626-3.4,2.944-3.542a18.057,18.057,0,0,0,2.765-.327,4.337,4.337,0,0,0,3.5-3.89A5.156,5.156,0,0,0,113.806,1.255Z" transform="translate(-84.055 0.004)" fill="#3e0cf2"/>
    </g>
  </g>
</svg>
