<svg id="Layer_2" data-name="Layer 2" xmlns="http://www.w3.org/2000/svg" width="240.836" height="240.84" viewBox="0 0 240.836 240.84">
  <g id="Capa_1" data-name="Capa 1">
    <path id="Trazado_860" data-name="Trazado 860" d="M267.57,405.424A532.113,532.113,0,0,0,273,463.191l1.715,11.431,1.693-11.431a532.081,532.081,0,0,0,5.432-57.771,51.654,51.654,0,0,1-7.142.5,52.347,52.347,0,0,1-7.129-.5Z" transform="translate(-154.292 -233.782)" fill="#ffba0d"/>
    <path id="Trazado_861" data-name="Trazado 861" d="M240.836,120.416l-11.431-1.693a532.117,532.117,0,0,0-57.767-5.432,51.183,51.183,0,0,1,0,14.267h0a52.114,52.114,0,0,0,.491-7.134,52.719,52.719,0,0,0-.5-7.172c.555-.224,11.211-4.593,15.558-13.67,3.527-7.358,11.393-14.394,19.013-16s18.725-3.92,18.374-14.394c0,0-5.821,8.929-15.7,8.62-6.88-.212-15.342-3.218-21.168,2.248S176.456,90.6,170.076,90.6A19.263,19.263,0,0,1,162,88.905a532.927,532.927,0,0,0,36.7-44.347l6.871-9.314-9.293,6.892a532.411,532.411,0,0,0-44.359,36.709,19.267,19.267,0,0,1-1.693-8.128c0-6.38,5.08-11.816,10.559-17.637s2.46-14.28,2.248-21.168c-.309-9.881,8.62-15.7,8.62-15.7-10.474-.351-12.811,10.758-14.394,18.374s-8.653,15.5-16.011,19.026c-9.242,4.428-13.6,15.4-13.674,15.58h0a531.937,531.937,0,0,0-5.44-57.759L120.433,0l-1.693,11.431a532.035,532.035,0,0,0-5.432,57.763h0c-.08-.207-4.441-11.155-13.674-15.58-7.362-3.527-14.394-11.393-16-19.013S79.706,15.876,69.236,16.227c0,0,8.929,5.821,8.62,15.7C77.64,38.8,74.634,47.268,80.1,53.1S90.628,64.35,90.628,70.7a19.2,19.2,0,0,1-1.693,8.137,531.781,531.781,0,0,0-44.376-36.7l-9.314-6.867,6.871,9.288A532.12,532.12,0,0,0,78.829,88.905,19.271,19.271,0,0,1,70.756,90.6c-6.376,0-11.816-5.08-17.633-10.559s-14.284-2.46-21.168-2.248c-9.881.309-15.7-8.62-15.7-8.62-.351,10.474,10.758,12.811,18.374,14.394s15.486,8.645,19.013,16c4.335,9.047,14.94,13.42,15.554,13.666a.444.444,0,0,1-.021.165v-.106a532.081,532.081,0,0,0-57.746,5.415L0,120.424l11.431,1.693a531.91,531.91,0,0,0,57.7,5.427c-1.139.47-11.266,4.843-15.478,13.632-3.527,7.362-11.4,14.415-19.013,16S15.918,161.1,16.27,171.574c0,0,5.817-8.924,15.7-8.62,6.875.216,15.338,3.222,21.168-2.248s11.257-10.559,17.633-10.559a19.25,19.25,0,0,1,8.137,1.693,532.184,532.184,0,0,0-36.765,44.44l-6.867,9.288,9.288-6.871a530.829,530.829,0,0,0,44.385-36.731,19.3,19.3,0,0,1,1.693,8.069c0,6.376-5.08,11.816-10.559,17.633s-2.464,14.284-2.248,21.168c.309,9.881-8.62,15.7-8.62,15.7,10.47.356,12.807-10.758,14.394-18.374s8.641-15.486,16-19.013c8.958-4.293,13.332-14.729,13.658-15.529a52.044,52.044,0,0,0,14.326,0c.326.8,4.7,11.236,13.658,15.529,7.345,3.518,14.4,11.405,15.986,19.026s3.92,18.729,14.394,18.374c0,0-8.929-5.817-8.62-15.7.212-6.875,3.218-15.338-2.248-21.168s-10.559-11.27-10.559-17.646a19.284,19.284,0,0,1,1.693-8.082,531.764,531.764,0,0,0,44.393,36.739l9.288,6.871-6.871-9.293a531.939,531.939,0,0,0-36.747-44.4,19.293,19.293,0,0,1,8.124-1.693c6.38,0,11.816,5.08,17.637,10.559s14.28,2.464,21.168,2.248c9.877-.309,15.7,8.62,15.7,8.62.351-10.47-10.758-12.807-18.374-14.394s-15.486-8.641-19.013-16c-4.234-8.865-14.508-13.238-15.5-13.645a531.313,531.313,0,0,0,57.729-5.428ZM158.628,85.569q-1.215-1.325-2.511-2.57c.292.279.588.555.872.847C157.557,84.4,158.095,84.985,158.628,85.569Zm2.117,2.494-.292-.364Zm-1.029-1.245c-.275-.322-.559-.644-.847-.961.313.318.584.639.859.961Zm-3.637-3.84-.779-.724Zm-1.3-1.194-.508-.453ZM153.027,80.3a1.162,1.162,0,0,0-.11-.093,1.167,1.167,0,0,1,.11.076ZM122.351,68.732ZM120.424,68.694Zm-1.719.034ZM84.126,83.579l-.576.58c.1-.1.2-.212.3-.313Zm1.2-1.143-.343.322Zm-2.54,2.5-.389.423ZM68.859,116.423c-.1,1.308-.148,2.633-.148,3.967a51.946,51.946,0,0,0,.377,6.27,51.571,51.571,0,0,1-.394-6.244C68.694,119.078,68.753,117.749,68.859,116.423Zm.152-1.617c0,.1-.025.195-.034.292a.9.9,0,0,0,.03-.284Zm.131,12.311a3.272,3.272,0,0,0,.059.423h0ZM88.5,161.1a51.684,51.684,0,0,1-4.657-4.111,50.123,50.123,0,0,1-4.14-4.7h0a51.831,51.831,0,0,0,8.776,8.785Zm68.491-4.115a50.894,50.894,0,0,1-4.657,4.124l.025-.042a52.019,52.019,0,0,0,8.751-8.751l.038-.021a51.775,51.775,0,0,1-4.157,4.7Z" fill="#ffba0d"/>
    <path id="Trazado_862" data-name="Trazado 862" d="M262.8,200.342c-15.444-15.444-33.759,7.548-33.759,7.548s-18.31-22.993-33.759-7.548c-16.088,16.088-1.389,38.221,12.332,56.112,4.551,5.927,8.844,11.431,12.379,15.952a11.354,11.354,0,0,0,17.967-.131c3.954-5.19,8.857-11.693,13.937-18.6C264.793,236.132,278.18,215.748,262.8,200.342Z" transform="translate(-108.553 -112.448)" fill="#ff3b31"/>
    <path id="Trazado_863" data-name="Trazado 863" d="M135.209,353.47l-25.6,8.78h0c-11.431,3.916-19.1,16.668-13.873,22.988Z" transform="translate(-54.237 -203.826)" fill="#3e0cf2"/>
    <path id="Trazado_864" data-name="Trazado 864" d="M135.209,353.47l-25.6,8.78h0c-11.431,3.916-19.1,16.668-13.873,22.988Z" transform="translate(-54.237 -203.826)" fill="#3e0cf2" opacity="0.29"/>
    <path id="Trazado_865" data-name="Trazado 865" d="M137.558,353.55l-13.776,22.912h0c-6.143,10.211-20.4,15.114-25.7,8.857Z" transform="translate(-56.557 -203.872)" fill="#3e0cf2"/>
    <path id="Trazado_866" data-name="Trazado 866" d="M137.558,353.55l-13.776,22.912h0c-6.143,10.211-20.4,15.114-25.7,8.857Z" transform="translate(-56.557 -203.872)" fill="#3e0cf2" opacity="0.29"/>
    <path id="Trazado_867" data-name="Trazado 867" d="M255,157.466,124.221,262.7a1.693,1.693,0,0,1-2.371-.224l-.2-.237a1.63,1.63,0,0,1,.237-2.324L252.664,154.68Z" transform="translate(-69.93 -89.195)" fill="#d7bdff"/>
    <path id="Trazado_868" data-name="Trazado 868" d="M398.139,134.291c-.847,8.226,10.512,8.044,10.512,8.044s-2.4,10.88,6,11.676c8.738.826,11.769-8.793,13.763-17.1.66-2.76,1.27-5.339,1.744-7.455a4.31,4.31,0,0,0-4.433-5.22c-2.519.1-5.664.229-8.971.423C408.354,125.109,398.977,126.108,398.139,134.291Z" transform="translate(-229.557 -71.634)" fill="#3e0cf2"/>
    <path id="Trazado_869" data-name="Trazado 869" d="M224.99,248.279l7.773,13.107,49.893-34.068-5.931-10.808-20.5,12.862Z" transform="translate(-129.739 -124.849)" fill="#ff3b31"/>
    <path id="Trazado_870" data-name="Trazado 870" d="M232.59,263.116A28.408,28.408,0,0,1,255.837,251a28.105,28.105,0,0,1,23.141,12.121s-6.257,12.011-22.548,12.434A27.658,27.658,0,0,1,232.59,263.116Z" transform="translate(-134.121 -144.737)" fill="#f2f2f2"/>
    <path id="Trazado_871" data-name="Trazado 871" d="M283.274,267.282a10.491,10.491,0,1,1-20.406.131l5.88-2.273,6.795.072Z" transform="translate(-151.424 -152.891)" fill="#ffba0d"/>
    <path id="Trazado_872" data-name="Trazado 872" d="M284.355,268.513a4.843,4.843,0,1,1-7.328.072l.872-.055,1.969-.08h2.472l1.164.034Z" transform="translate(-159.083 -154.8)"/>
    <ellipse id="Elipse_56" data-name="Elipse 56" cx="1.473" cy="1.473" rx="1.473" ry="1.473" transform="translate(121.635 114.523)" fill="#f2f2f2"/>
    <path id="Trazado_873" data-name="Trazado 873" d="M232.59,263.127s24.555-9.216,46.387,0c0,0-6.566-12.544-24.432-12.112C239.935,251.362,232.59,263.127,232.59,263.127Z" transform="translate(-134.121 -144.74)" fill="#b47bff"/>
  </g>
</svg>
