<svg id="Capa_1" data-name="Capa 1" xmlns="http://www.w3.org/2000/svg" width="246.179" height="242.542" viewBox="0 0 246.179 242.542">
  <path id="Trazado_874" data-name="Trazado 874" d="M130.335,69.3l42.293-58.36L155.605,81.454,217.61,46.2l-43.64,54.1h72.208l-69.9,26.269L240.1,159.873l-71.73-8.514,41.663,57.428L149.526,169.6l10.334,68.69-34.127-60.18-24.254,64.435-3.7-71.73L46.8,219.443l28.3-63.22L11.164,172.637,67.077,131.3,0,114.887l71.086-7.9L17.353,58.965,83.622,83.888,57.64,18.238,106.369,68.69,113.663,0Z"/>
  <path id="Trazado_875" data-name="Trazado 875" d="M195.094,181.538h0c4.894,12.205,13.124,21.4,21.591,25.368a16.782,16.782,0,0,1,5,3.548l.254.279a31.051,31.051,0,0,1,2.684,3.345,31.612,31.612,0,0,1,5.631,17.417v1.041a16.6,16.6,0,0,1-1.143,5.309c-3.387,8.717-3.014,21.024,1.85,33.221l44.694-17.921c-4.9-12.159-13.1-21.312-21.566-25.274a16.748,16.748,0,0,1-4.966-3.544l-.254-.275a31.443,31.443,0,0,1-8.315-20.745v-1.041a16.578,16.578,0,0,1,1.143-5.3c3.408-8.73,3.019-21.054-1.863-33.259h0l-.03-.072L195.09,181.521Z" transform="translate(-112.497 -94.356)" fill="#efefef"/>
  <rect id="Rect치ngulo_2547" data-name="Rect치ngulo 2547" width="52.784" height="2.811" transform="translate(79.401 85.415) rotate(-21.85)" fill="#3e0cf2"/>
  <rect id="Rect치ngulo_2548" data-name="Rect치ngulo 2548" width="52.784" height="2.811" transform="translate(116.261 177.619) rotate(-21.85)" fill="#3e0cf2"/>
  <path id="Trazado_876" data-name="Trazado 876" d="M281.577,265.447l-3.992.288-.059-.737a13.811,13.811,0,0,0-.948-4.081l-12.2-30.422,1.384-.555,11.46,28.589a22.777,22.777,0,0,0,4.352,6.918Z" transform="translate(-152.453 -132.593)" fill="#ffb399"/>
  <path id="Trazado_877" data-name="Trazado 877" d="M333.171,353.178q-1.647-1.905-3.417-3.628a29.837,29.837,0,0,1-6.871,6.795c-5.927,4.551-10.377,7.62-13.624,9.7l26.015-10.427Z" transform="translate(-178.332 -201.565)" fill="#c4c4c4"/>
  <path id="Trazado_878" data-name="Trazado 878" d="M314.1,344.6c-1.317-1.27-2.688-2.489-4.107-3.637-2.6,2.206-9.894,7.447-27.836,15.694a55.461,55.461,0,0,0,.356,8.89h0l11.092-4.45c3.247-2.074,7.68-5.148,13.624-9.7A29.837,29.837,0,0,0,314.1,344.6Z" transform="translate(-162.678 -196.612)" fill="#ff3b31"/>
  <path id="Trazado_879" data-name="Trazado 879" d="M310.063,337.05c-1.27-1.016-2.54-1.977-3.87-2.9a113.11,113.11,0,0,1-13.6,6.384c-4.267,1.528-7.2.724-8.692.025a65.317,65.317,0,0,0-1.693,12.184C300.156,344.48,307.446,339.239,310.063,337.05Z" transform="translate(-162.734 -192.685)" fill="#3e0cf2"/>
  <path id="Trazado_880" data-name="Trazado 880" d="M299.46,321.26A13.781,13.781,0,0,1,295,325.409a26.672,26.672,0,0,1-7.62,3.023c-.457,1.554-.872,3.116-1.232,4.678,1.482.7,4.424,1.5,8.692-.025a111.181,111.181,0,0,0,13.6-6.384A84.118,84.118,0,0,0,299.46,321.26Z" transform="translate(-165.006 -185.252)" fill="#009b6f"/>
  <path id="Trazado_881" data-name="Trazado 881" d="M296.7,318.339a13.78,13.78,0,0,0,4.458-4.149l-.423-.22L292.413,309l-2.176,8.713c-.423,1.215-.792,2.43-1.147,3.654A26.669,26.669,0,0,0,296.7,318.339Z" transform="translate(-166.701 -178.182)" fill="#ffb399"/>
  <path id="Trazado_882" data-name="Trazado 882" d="M213.22,197.064l5.279,2.964c1.715-1.478,5.178-3.98,11.719-7.159a55.268,55.268,0,0,1,16.02-5.271l2.028-4.6Z" transform="translate(-122.952 -105.526)" fill="#3e0cf2"/>
  <path id="Trazado_883" data-name="Trazado 883" d="M237.569,204.478c5.927-2.426,8.929-5.753,14.335-6.99.389-.97.792-1.939,1.215-2.9l.309-.7a55.269,55.269,0,0,0-16.02,5.271c-6.541,3.179-10,5.681-11.719,7.159l2.578,1.452C230.436,207.128,233.713,206.057,237.569,204.478Z" transform="translate(-130.142 -111.805)" fill="#f50"/>
  <path id="Trazado_884" data-name="Trazado 884" d="M253.545,206.876c.318-.652.605-1.321.872-2,.322-.847.648-1.664.982-2.494-5.406,1.236-8.425,4.564-14.335,6.99a98.654,98.654,0,0,1-9.314,3.294l1.579.893a16.731,16.731,0,0,0,6.35,2.3,25.694,25.694,0,0,0,7.252-4.564A30.481,30.481,0,0,1,253.545,206.876Z" transform="translate(-133.637 -116.701)" fill="#ffba0d"/>
  <path id="Trazado_885" data-name="Trazado 885" d="M264.339,213a30.482,30.482,0,0,0-6.617,4.42,25.693,25.693,0,0,1-7.252,4.564,12.739,12.739,0,0,0,4.166-.11C258.848,221.044,262.184,217.433,264.339,213Z" transform="translate(-144.432 -122.825)" fill="#ffb399"/>
  <path id="Trazado_886" data-name="Trazado 886" d="M250.877,246.5c-1.367,3.569-1.583,6.16-.351,7.155,3.044,2.468,13.789-5.753,24-18.361S290.542,210.459,287.5,208c-1.533-1.24-5.017.224-9.4,3.6" transform="translate(-143.996 -119.687)" fill="none" stroke="#3e0cf2" stroke-linecap="round" stroke-linejoin="round" stroke-width="2"/>
  <path id="Trazado_887" data-name="Trazado 887" d="M187.813,232.938c-4.547-.546-7.519-.161-8.107,1.308-1.456,3.637,12.222,12.531,30.55,19.868s34.364,10.334,35.82,6.7c.732-1.833-2.371-5-7.972-8.624" transform="translate(-103.564 -134.185)" fill="none" stroke="#3e0cf2" stroke-linecap="round" stroke-linejoin="round" stroke-width="2"/>
  <ellipse id="Elipse_57" data-name="Elipse 57" cx="2.074" cy="2.074" rx="2.074" ry="2.074" transform="translate(156.333 123.341)" fill="#b47bff"/>
  <ellipse id="Elipse_58" data-name="Elipse 58" cx="2.739" cy="2.739" rx="2.739" ry="2.739" transform="translate(137.74 99.019)" fill="#ffba0d"/>
  <ellipse id="Elipse_59" data-name="Elipse 59" cx="2.074" cy="2.074" rx="2.074" ry="2.074" transform="translate(127.228 124.929)" fill="#ff3b31"/>
  <ellipse id="Elipse_60" data-name="Elipse 60" cx="1.465" cy="1.465" rx="1.465" ry="1.465" transform="translate(126.203 110.259)" fill="#009b6f"/>
  <ellipse id="Elipse_61" data-name="Elipse 61" cx="2.074" cy="2.074" rx="2.074" ry="2.074" transform="translate(113.943 140.635)" fill="#3e0cf2"/>
  <ellipse id="Elipse_62" data-name="Elipse 62" cx="1.329" cy="1.329" rx="1.329" ry="1.329" transform="translate(149.5 165.766)" fill="#efefef"/>
  <ellipse id="Elipse_63" data-name="Elipse 63" cx="0.842" cy="0.842" rx="0.842" ry="0.842" transform="translate(128.333 93.177)" fill="#ff3b31"/>
  <ellipse id="Elipse_64" data-name="Elipse 64" cx="0.842" cy="0.842" rx="0.842" ry="0.842" transform="translate(131.046 167.629)" fill="#ff3b31"/>
  <ellipse id="Elipse_65" data-name="Elipse 65" cx="0.842" cy="0.842" rx="0.842" ry="0.842" transform="translate(96.394 136.601)" fill="#b47bff"/>
  <ellipse id="Elipse_66" data-name="Elipse 66" cx="2.748" cy="2.748" rx="2.748" ry="2.748" transform="translate(77.199 103.151)" fill="#efefef"/>
</svg>
