<svg id="Capa_1" data-name="Capa 1" xmlns="http://www.w3.org/2000/svg" width="246.179" height="242.542" viewBox="0 0 246.179 242.542">
  <path id="Trazado_888" data-name="Trazado 888" d="M130.335,69.3l42.293-58.36L155.605,81.454,217.61,46.2l-43.64,54.1h72.208l-69.9,26.269L240.1,159.873l-71.73-8.514,41.663,57.428L149.526,169.6l10.334,68.69-34.127-60.18-24.254,64.435-3.7-71.73L46.8,219.443l28.3-63.22L11.164,172.637,67.077,131.3,0,114.887l71.086-7.9L17.353,58.965,83.622,83.888,57.64,18.238,106.369,68.69,113.663,0Z" fill="#3e0cf2"/>
  <ellipse id="Elipse_67" data-name="Elipse 67" cx="33.911" cy="33.911" rx="33.911" ry="33.911" transform="translate(90.027 86.937)" fill="#161616"/>
  <ellipse id="Elipse_68" data-name="Elipse 68" cx="32.014" cy="33.911" rx="32.014" ry="33.911" transform="translate(90.027 86.937)" fill="#efefef"/>
  <ellipse id="Elipse_69" data-name="Elipse 69" cx="27.357" cy="28.975" rx="27.357" ry="28.975" transform="translate(94.684 91.873)" fill="none" stroke="#3e0cf2" stroke-miterlimit="10" stroke-width="2"/>
  <path id="Trazado_889" data-name="Trazado 889" d="M274.7,279.688a.771.771,0,0,1-.6-.229.847.847,0,0,1-.216-.584v-2.481a10.817,10.817,0,0,1-4.356-1.185,7.481,7.481,0,0,1-2.693-2.358,5.677,5.677,0,0,1-.991-2.938.711.711,0,0,1,.233-.517.745.745,0,0,1,.546-.229h1.829a.847.847,0,0,1,.605.212,1.075,1.075,0,0,1,.279.5,4.433,4.433,0,0,0,.889,1.693,4.97,4.97,0,0,0,1.931,1.38,8.1,8.1,0,0,0,3.239.55,7.485,7.485,0,0,0,4.483-1.08,3.429,3.429,0,0,0,1.431-2.887,2.705,2.705,0,0,0-.758-2,6.7,6.7,0,0,0-2.32-1.363q-1.562-.6-4.039-1.312a23.151,23.151,0,0,1-4.289-1.63,6.414,6.414,0,0,1-2.54-2.193,6.122,6.122,0,0,1-.847-3.332,5.991,5.991,0,0,1,1.914-4.445,8.633,8.633,0,0,1,5.419-2.176V248.63a.847.847,0,0,1,.216-.584.771.771,0,0,1,.6-.229h1.346a.783.783,0,0,1,.813.813v2.481a9.314,9.314,0,0,1,3.967,1.308,7.468,7.468,0,0,1,2.409,2.375,5.292,5.292,0,0,1,.847,2.621.77.77,0,0,1-.178.478.66.66,0,0,1-.567.233h-1.875a1.046,1.046,0,0,1-.512-.144.931.931,0,0,1-.423-.529,3.582,3.582,0,0,0-1.626-2.447,6.316,6.316,0,0,0-3.687-.991,7.045,7.045,0,0,0-3.734.885,3.353,3.353,0,0,0-.762,4.767,5.5,5.5,0,0,0,2.117,1.4,36.417,36.417,0,0,0,3.789,1.27,28.522,28.522,0,0,1,4.657,1.647,6.507,6.507,0,0,1,2.676,2.163,5.8,5.8,0,0,1,.868,3.311,6.3,6.3,0,0,1-.974,3.488,6.773,6.773,0,0,1-2.765,2.392,11.794,11.794,0,0,1-4.234,1.1v2.447a.783.783,0,0,1-.813.813Z" transform="translate(-153.294 -142.901)" fill="#f50"/>
  <ellipse id="Elipse_70" data-name="Elipse 70" cx="11.062" cy="11.062" rx="11.062" ry="11.062" transform="translate(82.301 129.933)" fill="#ffba0d"/>
  <ellipse id="Elipse_71" data-name="Elipse 71" cx="8.937" cy="8.937" rx="8.937" ry="8.937" transform="translate(84.426 132.058)" fill="none" stroke="#161616" stroke-miterlimit="10" stroke-width="2"/>
  <path id="Trazado_890" data-name="Trazado 890" d="M216.067,331.157a.242.242,0,0,1-.195-.076.271.271,0,0,1-.072-.191v-.809a3.434,3.434,0,0,1-1.418-.389,2.393,2.393,0,0,1-.881-.766,1.838,1.838,0,0,1-.322-.961.241.241,0,0,1,.072-.165.246.246,0,0,1,.182-.076h.6a.279.279,0,0,1,.195.068.356.356,0,0,1,.093.165,1.4,1.4,0,0,0,.288.546,1.617,1.617,0,0,0,.631.453,2.676,2.676,0,0,0,1.058.178,2.456,2.456,0,0,0,1.461-.351,1.122,1.122,0,0,0,.466-.944.885.885,0,0,0-.246-.652,2.193,2.193,0,0,0-.758-.444c-.339-.131-.779-.271-1.317-.423a7.652,7.652,0,0,1-1.4-.529,2.091,2.091,0,0,1-.847-.72,2.007,2.007,0,0,1-.271-1.084,1.948,1.948,0,0,1,.627-1.452,2.836,2.836,0,0,1,1.765-.711v-.8a.271.271,0,0,1,.072-.191.241.241,0,0,1,.195-.076h.423a.258.258,0,0,1,.191.076.254.254,0,0,1,.072.191v.809a3.04,3.04,0,0,1,1.3.423,2.46,2.46,0,0,1,.787.775,1.749,1.749,0,0,1,.275.847.254.254,0,0,1-.055.157.224.224,0,0,1-.186.076h-.614a.347.347,0,0,1-.165-.047.322.322,0,0,1-.135-.174,1.177,1.177,0,0,0-.529-.8,2.092,2.092,0,0,0-1.2-.322,2.32,2.32,0,0,0-1.219.288,1.092,1.092,0,0,0-.25,1.554,1.8,1.8,0,0,0,.694.457,11.537,11.537,0,0,0,1.236.423,9.4,9.4,0,0,1,1.516.538,2.155,2.155,0,0,1,.872.707,1.91,1.91,0,0,1,.284,1.08,2.028,2.028,0,0,1-.322,1.139,2.219,2.219,0,0,1-.834.8,3.81,3.81,0,0,1-1.384.36v.8a.254.254,0,0,1-.072.191.258.258,0,0,1-.191.076Z" transform="translate(-122.929 -184.963)" fill="#3e0cf2"/>
  <ellipse id="Elipse_72" data-name="Elipse 72" cx="18.42" cy="18.42" rx="18.42" ry="18.42" transform="translate(116.009 174.347)" fill="#f50"/>
  <ellipse id="Elipse_73" data-name="Elipse 73" cx="14.881" cy="14.881" rx="14.881" ry="14.881" transform="translate(119.548 177.886)" fill="none" stroke="#3e0cf2" stroke-miterlimit="10" stroke-width="2"/>
  <path id="Trazado_891" data-name="Trazado 891" d="M310.159,452.2a.424.424,0,0,1-.326-.127.457.457,0,0,1-.114-.318v-1.346a5.88,5.88,0,0,1-2.367-.643,4.06,4.06,0,0,1-1.465-1.27,3.078,3.078,0,0,1-.538-1.6.389.389,0,0,1,.127-.279.423.423,0,0,1,.3-.123h1a.453.453,0,0,1,.33.114.559.559,0,0,1,.152.271,2.354,2.354,0,0,0,.483.91,2.671,2.671,0,0,0,1.046.754,4.453,4.453,0,0,0,1.761.3,4.062,4.062,0,0,0,2.434-.584,1.867,1.867,0,0,0,.779-1.571,1.477,1.477,0,0,0-.423-1.088,3.725,3.725,0,0,0-1.27-.741q-.847-.322-2.193-.711a12.6,12.6,0,0,1-2.328-.885,3.472,3.472,0,0,1-1.376-1.194,3.518,3.518,0,0,1,.584-4.234,4.7,4.7,0,0,1,2.964-1.181v-1.329a.457.457,0,0,1,.114-.318.424.424,0,0,1,.326-.123h.732a.444.444,0,0,1,.318.123.423.423,0,0,1,.127.318v1.346a5.08,5.08,0,0,1,2.155.715,4.091,4.091,0,0,1,1.308,1.27,2.93,2.93,0,0,1,.461,1.427.423.423,0,0,1-.1.258.356.356,0,0,1-.309.123h-1.016a.58.58,0,0,1-.279-.076.5.5,0,0,1-.224-.288,1.952,1.952,0,0,0-.885-1.329,3.438,3.438,0,0,0-2-.538,3.81,3.81,0,0,0-2.032.483,1.82,1.82,0,0,0-.423,2.587,3.043,3.043,0,0,0,1.156.762,19.833,19.833,0,0,0,2.057.69,15.534,15.534,0,0,1,2.54.9,3.518,3.518,0,0,1,1.452,1.173,3.175,3.175,0,0,1,.47,1.8,3.387,3.387,0,0,1-.529,1.9,3.671,3.671,0,0,1-1.5,1.3,6.542,6.542,0,0,1-2.3.6v1.325a.423.423,0,0,1-.445.445Z" transform="translate(-176.078 -250.775)" fill="#efefef"/>
  <ellipse id="Elipse_74" data-name="Elipse 74" cx="14.805" cy="14.805" rx="14.805" ry="14.805" transform="translate(153.696 39.161)" fill="#b47bff"/>
  <ellipse id="Elipse_75" data-name="Elipse 75" cx="11.96" cy="11.96" rx="11.96" ry="11.96" transform="translate(156.541 42.006)" fill="none" stroke="#3e0cf2" stroke-miterlimit="10" stroke-width="2"/>
  <path id="Trazado_892" data-name="Trazado 892" d="M392.1,124.978a.339.339,0,0,1-.262-.1.356.356,0,0,1-.093-.254v-1.084a4.742,4.742,0,0,1-1.9-.521,3.276,3.276,0,0,1-1.177-1.025,2.5,2.5,0,0,1-.423-1.27.313.313,0,0,1,.1-.224.326.326,0,0,1,.237-.1h.8a.343.343,0,0,1,.262.093.424.424,0,0,1,.127.216,1.891,1.891,0,0,0,.385.732,2.176,2.176,0,0,0,.847.605,3.62,3.62,0,0,0,1.414.237,3.26,3.26,0,0,0,1.956-.47,1.5,1.5,0,0,0,.627-1.27,1.181,1.181,0,0,0-.33-.872,2.921,2.921,0,0,0-1.029-.584c-.453-.174-1.041-.364-1.761-.572a10.124,10.124,0,0,1-1.871-.711,2.79,2.79,0,0,1-1.1-.957,2.68,2.68,0,0,1-.364-1.456,2.616,2.616,0,0,1,.847-1.939,3.776,3.776,0,0,1,2.367-.953v-1.067a.356.356,0,0,1,.093-.254.339.339,0,0,1,.262-.1h.589a.347.347,0,0,1,.356.356v1.084a4.005,4.005,0,0,1,1.732.572,3.235,3.235,0,0,1,1.05,1.037,2.3,2.3,0,0,1,.373,1.143.339.339,0,0,1-.076.207.292.292,0,0,1-.25.1h-.817a.466.466,0,0,1-.224-.064.39.39,0,0,1-.178-.229,1.571,1.571,0,0,0-.711-1.067,2.726,2.726,0,0,0-1.609-.423,3.057,3.057,0,0,0-1.63.389,1.465,1.465,0,0,0-.334,2.079,2.35,2.35,0,0,0,.927.61,16.084,16.084,0,0,0,1.655.559,11.857,11.857,0,0,1,2.024.72,2.807,2.807,0,0,1,1.168.94,2.54,2.54,0,0,1,.381,1.448,2.752,2.752,0,0,1-.423,1.524,2.964,2.964,0,0,1-1.207,1.041,5.081,5.081,0,0,1-1.846.478v1.071a.347.347,0,0,1-.356.356Z" transform="translate(-223.875 -64.053)" fill="#161616"/>
</svg>
