<svg id="Grupo_476" data-name="Grupo 476" xmlns="http://www.w3.org/2000/svg" xmlns:xlink="http://www.w3.org/1999/xlink" width="90.233" height="90.233" viewBox="0 0 90.233 90.233">
  <defs>
    <clipPath id="clip-path">
      <ellipse id="Elipse_117" data-name="Elipse 117" cx="45.116" cy="45.116" rx="45.116" ry="45.116" fill="none"/>
    </clipPath>
  </defs>
  <ellipse id="Elipse_116" data-name="Elipse 116" cx="45.116" cy="45.116" rx="45.116" ry="45.116" transform="translate(0 0)" fill="#b47bff"/>
  <g id="Grupo_458" data-name="Grupo 458" clip-path="url(#clip-path)">
    <path id="Trazado_1086" data-name="Trazado 1086" d="M364.3,484.6s19.014.268,25.98,13.124,19.674,17.548,30.257,21.165,19.406,17.254,18.55,18.55" transform="translate(-341.058 -481.398)" fill="none" stroke="rgba(112,112,112,0.23)" stroke-miterlimit="10" stroke-width="2"/>
    <path id="Trazado_1087" data-name="Trazado 1087" d="M350.36,498.54s19.014.269,25.98,13.124,19.7,17.523,30.281,21.14,19.406,17.279,18.526,18.55" transform="translate(-361.187 -461.269)" fill="none" stroke="rgba(112,112,112,0.23)" stroke-miterlimit="10" stroke-width="2"/>
    <path id="Trazado_1088" data-name="Trazado 1088" d="M370.27,481.34s17.108.245,23.267,11.78,17.646,15.715,27.128,18.941,17.4,15.471,16.619,16.62" transform="translate(-332.437 -486.106)" fill="none" stroke="rgba(112,112,112,0.23)" stroke-miterlimit="10" stroke-width="2"/>
    <path id="Trazado_1089" data-name="Trazado 1089" d="M348.87,505.46s17.108.244,23.267,11.78,17.621,15.69,27.1,18.941,17.4,15.471,16.619,16.619" transform="translate(-363.339 -451.277)" fill="none" stroke="rgba(112,112,112,0.23)" stroke-miterlimit="10" stroke-width="2"/>
    <path id="Trazado_1090" data-name="Trazado 1090" d="M357.57,487.88S379.1,488.2,386.9,502.74s22.289,19.87,34.216,23.951,22,19.552,20.994,20.994" transform="translate(-350.776 -476.662)" fill="none" stroke="rgba(112,112,112,0.23)" stroke-miterlimit="10" stroke-width="2"/>
    <path id="Trazado_1091" data-name="Trazado 1091" d="M352.55,492.9s21.532.318,29.328,14.859,22.289,19.87,34.216,23.951,22,19.552,20.994,20.994" transform="translate(-358.025 -469.413)" fill="none" stroke="rgba(112,112,112,0.23)" stroke-miterlimit="10" stroke-width="2"/>
  </g>
</svg>
