<svg id="Grupo_478" data-name="Grupo 478" xmlns="http://www.w3.org/2000/svg" xmlns:xlink="http://www.w3.org/1999/xlink" width="169.544" height="169.544" viewBox="0 0 169.544 169.544">
  <defs>
    <clipPath id="clip-path">
      <ellipse id="Elipse_125" data-name="Elipse 125" cx="84.772" cy="84.772" rx="84.772" ry="84.772" fill="none"/>
    </clipPath>
    <linearGradient id="linear-gradient" x1="0.639" y1="-0.613" x2="0.408" y2="1.589" gradientUnits="objectBoundingBox">
      <stop offset="0" stop-color="#49e295"/>
      <stop offset="0.21" stop-color="#40d990"/>
      <stop offset="0.55" stop-color="#28c284"/>
      <stop offset="0.97" stop-color="#019c6f"/>
      <stop offset="0.98" stop-color="#009b6f"/>
    </linearGradient>
    <linearGradient id="linear-gradient-2" x1="1.015" y1="-2.683" x2="0.548" y2="0.26" xlink:href="#linear-gradient"/>
    <linearGradient id="linear-gradient-3" x1="0.728" y1="-0.918" x2="0.428" y2="0.733" xlink:href="#linear-gradient"/>
    <linearGradient id="linear-gradient-4" x1="1.007" y1="-1.858" x2="0.387" y2="1.289" xlink:href="#linear-gradient"/>
    <linearGradient id="linear-gradient-5" x1="0.909" y1="-2.923" x2="0.496" y2="0.575" xlink:href="#linear-gradient"/>
  </defs>
  <ellipse id="Elipse_124" data-name="Elipse 124" cx="84.772" cy="84.772" rx="84.772" ry="84.772" fill="#49e295"/>
  <g id="Grupo_459" data-name="Grupo 459" clip-path="url(#clip-path)">
    <path id="Trazado_1092" data-name="Trazado 1092" d="M462.539,376.56s-10.177,29.826-19.61,32.415c0,0,14.982,6.1,18.727,2.608s-16.335,10.609-26.9,12.668c-9.628,1.961-15.59,17.648-19.472,37.807,0,0,12.393-19.825,20.531-2.157,0,0-4.8-11.413,10.217-16.943s9.609,17,9.609,17,18.668-5.412,19.982-20.433,4.883-34.513,13.55-29.708,23.865,4.137,23.865,4.137Z" transform="translate(-353.647 -384.639)" fill="url(#linear-gradient)"/>
    <path id="Trazado_1093" data-name="Trazado 1093" d="M419.05,497.339s.647-23.375,18.865-30.65S465.191,437,465.191,437s6,13.413-1.667,24.178-18.61,33.611-17.178,38.18S419.05,497.339,419.05,497.339Z" transform="translate(-350.024 -326.559)" fill="url(#linear-gradient-2)"/>
    <path id="Trazado_1094" data-name="Trazado 1094" d="M420.771,402.213s-12.844,10.55-12.256,26.748-8.079,22.845-14.158,22.982-17.335,8.354-18,20.61S406.4,512.183,406.4,512.183s-8.354-31.022,6.138-37.415S426.379,446.3,426.379,446.3s-6.589,14.982-10.883,13.393,4.255-27.453,14.178-25.61,6.157,14.884,6.157,14.884,8.648-8.9,1.961-24.649,6.628-22.022,13.727-23.728C451.577,400.585,434.5,394,420.771,402.213Z" transform="translate(-391.062 -363.954)" fill="url(#linear-gradient-3)"/>
    <path id="Trazado_1095" data-name="Trazado 1095" d="M486.579,409.56s-24.041,11.923-25.316,31.846-4.981,26.63-7.158,27.846,12.825-5.883,17.158-18.551c0,0,6.373,3.922,1.863,11.256a41.9,41.9,0,0,0,14.825-17.649C494.03,431.738,486.579,409.56,486.579,409.56Z" transform="translate(-316.544 -352.928)" fill="url(#linear-gradient-4)"/>
    <path id="Trazado_1096" data-name="Trazado 1096" d="M433.179,438.361c-2.235,4.177-17.825,9.06-21.355,20.237s-2.216,16.805-8.844,21.257c0,0,12.1,5.883,18.06-3.706s10.021,5.412,10.021,5.412,4.2-12.236-1.451-20.531S445,428.2,457.553,433.713c0,0-20.845-14.335-38.847,1.667C418.707,435.38,438.12,429.144,433.179,438.361Z" transform="translate(-365.467 -335.391)" fill="url(#linear-gradient-5)"/>
  </g>
</svg>
